<svg width="43" height="33" viewBox="0 0 43 33" fill="none" xmlns="http://www.w3.org/2000/svg">
<path d="M41.8127 30.2187L38.8717 27.2777C39.4233 27.2204 39.9025 26.8499 40.091 26.3198C40.2211 25.9542 40.2009 25.5599 40.0342 25.2094C39.8679 24.8589 39.5746 24.5944 39.2092 24.4644L34.0096 22.6149C33.8529 22.5594 33.6895 22.5312 33.5235 22.5312C33.1353 22.5312 32.7704 22.6823 32.4965 22.9564C32.1022 23.3506 31.9681 23.9448 32.1549 24.4702L33.9327 29.4676C34.1382 30.0454 34.6881 30.4335 35.3012 30.4335C35.4669 30.4335 35.6307 30.4052 35.7882 30.3493C36.2936 30.1694 36.638 29.7365 36.7293 29.2435L39.7584 32.2726C40.0326 32.5469 40.3973 32.6981 40.7854 32.6981C41.1735 32.6981 41.5383 32.5469 41.8123 32.2729C42.0868 31.9985 42.2378 31.6338 42.2378 31.2457C42.2378 30.8576 42.0872 30.4931 41.8127 30.2187Z" fill="white"/>
<path d="M14.8552 10.2538H16.1236L15.4856 8.56055L14.8552 10.2538Z" fill="white"/>
<path d="M23.9021 7.3833H21.9165V12.9024H23.9021C25.4726 12.9024 26.7502 11.6668 26.7502 10.148C26.7503 8.62353 25.4726 7.3833 23.9021 7.3833Z" fill="white"/>
<path d="M39.2752 18.2529V2.08119C39.2752 0.933624 38.3418 0 37.1945 0H2.08105C0.933624 0 0 0.933624 0 2.08119V18.2529C0 19.4004 0.933624 20.3341 2.08105 20.3341H37.1945C38.3418 20.3341 39.2752 19.4004 39.2752 18.2529ZM18.9272 14.6937C18.9261 14.6937 18.9252 14.6937 18.9243 14.6937H18.1481C17.9365 14.6937 17.747 14.5627 17.6725 14.3646L16.7801 11.9965H14.2064L13.3258 14.3625C13.2517 14.5617 13.0617 14.6935 12.8495 14.6935H12.0745C11.9081 14.6935 11.7519 14.6121 11.6569 14.4752C11.5619 14.3386 11.54 14.1638 11.598 14.0078L14.5757 6.00755C14.6498 5.80886 14.8392 5.67698 15.0511 5.67655L15.9078 5.6748H15.9089C16.1206 5.6748 16.31 5.80581 16.3846 6.00392L19.3814 13.9567C19.416 14.0254 19.4356 14.103 19.4356 14.1852C19.4356 14.4661 19.2081 14.6937 18.9272 14.6937ZM23.9021 14.6452H20.6819C20.4012 14.6452 20.1736 14.4176 20.1736 14.1368V6.14859C20.1736 5.86783 20.4012 5.64023 20.6819 5.64023H23.9021C26.4337 5.64023 28.4931 7.66231 28.4931 10.1479C28.4932 12.6277 26.4337 14.6452 23.9021 14.6452Z" fill="white"/>
</svg>
