<svg width="27" height="23" viewBox="0 0 27 23" fill="none" xmlns="http://www.w3.org/2000/svg">
<path d="M26.7282 20.5123L24.8482 18.5216C25.2008 18.4829 25.5071 18.2321 25.6277 17.8733C25.7108 17.6259 25.6979 17.359 25.5914 17.1218C25.485 16.8845 25.2976 16.7055 25.064 16.6175L21.7402 15.3657C21.64 15.3282 21.5356 15.3091 21.4295 15.3091C21.1813 15.3091 20.9481 15.4113 20.773 15.5968C20.5209 15.8636 20.4352 16.2658 20.5546 16.6215L21.691 20.0039C21.8224 20.395 22.1739 20.6577 22.5658 20.6577C22.6717 20.6577 22.7765 20.6385 22.8771 20.6006C23.2002 20.4789 23.4204 20.1859 23.4788 19.8522L25.415 21.9024C25.5903 22.0881 25.8235 22.1904 26.0715 22.1904C26.3196 22.1904 26.5529 22.0881 26.728 21.9026C26.9034 21.7169 27 21.4701 27 21.2074C27 20.9447 26.9037 20.698 26.7282 20.5123Z" fill="black"/>
<path d="M9.49585 6.99909H10.3067L9.8988 5.85303L9.49585 6.99909Z" fill="black"/>
<path d="M15.2793 5.05615H14.01V8.79171H15.2793C16.2832 8.79171 17.0999 7.95541 17.0999 6.92742C17.1 5.89559 16.2832 5.05615 15.2793 5.05615Z" fill="black"/>
<path d="M25.1063 12.4129V1.46723C25.1063 0.690509 24.5095 0.0585938 23.7762 0.0585938H1.33029C0.596809 0.0585938 0 0.690509 0 1.46723V12.4129C0 13.1896 0.596809 13.8215 1.33029 13.8215H23.7762C24.5095 13.8215 25.1063 13.1896 25.1063 12.4129ZM12.099 10.0039C12.0983 10.0039 12.0977 10.0039 12.0972 10.0039H11.601C11.4657 10.0039 11.3446 9.91521 11.2969 9.78112L10.7265 8.17833H9.08128L8.51836 9.77974C8.47101 9.91452 8.34957 10.0038 8.21392 10.0038H7.7185C7.6121 10.0038 7.51229 9.94864 7.45157 9.85603C7.39085 9.76352 7.37683 9.64526 7.41387 9.53968L9.31738 4.12475C9.36473 3.99027 9.4858 3.90101 9.62127 3.90071L10.1689 3.89953H10.1696C10.3049 3.89953 10.426 3.98821 10.4737 4.1223L12.3893 9.50508C12.4114 9.55157 12.424 9.60407 12.424 9.65971C12.424 9.84984 12.2786 10.0039 12.099 10.0039ZM15.2792 9.97105H13.2207C13.0412 9.97105 12.8957 9.817 12.8957 9.62698V4.22021C12.8957 4.03018 13.0412 3.87614 13.2207 3.87614H15.2792C16.8974 3.87614 18.2139 5.24476 18.2139 6.92708C18.214 8.60557 16.8974 9.97105 15.2792 9.97105Z" fill="black"/>
</svg>
