<svg width="13" height="13" viewBox="0 0 13 13" fill="none" xmlns="http://www.w3.org/2000/svg">
<path d="M1.01609 0.173013L6.5 5.65707L11.9839 0.173013C12.1968 -0.0399261 12.5319 -0.0563052 12.7636 0.123874L12.827 0.180715C13.0577 0.411399 13.0577 0.785413 12.827 1.0161L7.34293 6.5L12.827 11.9839C13.0399 12.1968 13.0563 12.5319 12.8761 12.7636L12.8193 12.827C12.5886 13.0577 12.2146 13.0577 11.9839 12.827L6.5 7.34293L1.01609 12.827C0.803154 13.0399 0.468088 13.0563 0.23636 12.8761L0.173014 12.8193C-0.0576706 12.5886 -0.0576706 12.2146 0.173014 11.9839L5.65706 6.5L0.173014 1.0161C-0.0399253 0.803158 -0.0563066 0.468092 0.123873 0.236364L0.180729 0.173013C0.411414 -0.0576711 0.785409 -0.0576711 1.01609 0.173013ZM0.590696 0.598406L6.49246 6.5L0.590696 12.4016L0.598411 12.4093L6.5 6.50754L12.4016 12.4093L12.4093 12.4016L6.50753 6.5L12.4093 0.598406L12.4016 0.590705L6.5 6.49246L0.598411 0.590705L0.590696 0.598406Z" fill="white"/>
</svg>
