<svg width="17" height="17" viewBox="0 0 17 17" fill="none" xmlns="http://www.w3.org/2000/svg">
<path d="M8.49994 0C9.95356 0 11.1555 0.127858 12.0803 0.283684C12.9318 0.42714 13.6358 0.519241 14.181 1.18976L14.1937 1.20559C14.7285 1.87606 14.6693 2.63493 14.6323 3.56303C14.5599 5.38528 14.3192 7.53712 13.4662 9.24851C13.0349 10.1136 12.4377 10.8859 11.6097 11.4405C10.7777 11.9977 9.74933 12.3103 8.49994 12.3103C7.25053 12.3103 6.22214 11.9977 5.39014 11.4405C4.56211 10.8859 3.96491 10.1136 3.53368 9.24851C2.68057 7.53712 2.43989 5.38528 2.36744 3.56303C2.33025 2.62758 2.27046 1.86412 2.81876 1.18979C3.36398 0.519232 4.06803 0.427139 4.91948 0.283684C5.84437 0.127859 7.04623 1.52133e-07 8.49994 0ZM8.49994 1.19132C7.11651 1.19132 5.98109 1.313 5.11796 1.45842C4.15805 1.62015 3.9564 1.68065 3.74492 1.94074C3.53651 2.19707 3.51671 2.43951 3.55949 3.51578C3.63081 5.30961 3.86779 7.24539 4.60168 8.71762C4.96394 9.44434 5.43758 10.0378 6.05466 10.4511C6.66777 10.8617 7.45877 11.119 8.49994 11.119C9.54108 11.119 10.3321 10.8617 10.9452 10.4511C11.5622 10.0378 12.0359 9.44435 12.3981 8.71762C13.132 7.24539 13.369 5.30958 13.4403 3.51575C13.4831 2.43943 13.4633 2.19707 13.2549 1.94076L13.2549 1.94072C13.0434 1.68063 12.8418 1.62014 11.8818 1.45842C11.0187 1.313 9.88329 1.19132 8.49994 1.19132Z" fill="white"/>
<path d="M15.9036 5.47548V5.41789C15.9036 4.99023 15.9028 4.71946 15.8813 4.51505C15.8614 4.32586 15.8288 4.25553 15.8001 4.21235L15.8001 4.21226C15.7714 4.16909 15.7203 4.11332 15.5612 4.03299C15.3893 3.94621 15.1529 3.85974 14.7791 3.7245H14.7791L14.0857 3.47363L14.4324 2.34473L15.1258 2.59558L15.1258 2.5956C15.4756 2.72217 15.7819 2.83202 16.0236 2.95406C16.2781 3.08254 16.5112 3.24803 16.6895 3.51647L16.7059 3.54171C16.8722 3.80323 16.9397 4.08687 16.9706 4.38009C17.0008 4.66754 17 5.01769 16.9999 5.41793V5.47548C16.9999 5.80515 17.0006 6.09577 16.9783 6.33775C16.9548 6.59296 16.9027 6.84107 16.7728 7.08084C16.6428 7.3206 16.4682 7.49045 16.2741 7.63667C16.09 7.77532 15.8557 7.91582 15.5902 8.07592L13.4289 9.37921L12.8965 8.339L15.0577 7.03573V7.03571C15.3421 6.8642 15.5202 6.75604 15.649 6.65905C15.7677 6.56963 15.8064 6.5169 15.8278 6.47732C15.8493 6.43776 15.873 6.37547 15.8873 6.21943C15.9029 6.05016 15.9036 5.82865 15.9036 5.47548Z" fill="white"/>
<path d="M2.9142 3.47363L2.22086 3.7245C1.84706 3.85974 1.61064 3.94621 1.43876 4.03299C1.27967 4.11333 1.22848 4.16911 1.19981 4.21228C1.17114 4.25546 1.13857 4.32584 1.11868 4.51505C1.09718 4.71948 1.09635 4.99026 1.09636 5.41791L1.09643 5.60187C1.09677 5.88319 1.09896 6.07131 1.11259 6.21943C1.12696 6.37549 1.15065 6.43778 1.1721 6.47734L1.17634 6.48492C1.19869 6.52363 1.23963 6.57519 1.35092 6.65903C1.47969 6.75602 1.65779 6.86419 1.94223 7.03571L4.10345 8.339L3.57099 9.37921L1.40979 8.07594C1.14428 7.91585 0.909917 7.77532 0.725849 7.63667C0.537791 7.49502 0.368108 7.33118 0.239511 7.10308L0.227199 7.08082C0.0972145 6.84105 0.0451724 6.59295 0.0216742 6.33775C-0.000605769 6.09578 1.45705e-05 5.80517 3.99093e-06 5.4755V5.41793C-6.63968e-06 5.01768 -0.000846101 4.66753 0.029383 4.38009C0.0612111 4.07744 0.132117 3.78498 0.310389 3.51651L0.327263 3.49164C0.503257 3.23773 0.729813 3.07853 0.97632 2.95406C1.218 2.83203 1.52431 2.72215 1.87416 2.59558L2.5675 2.34473L2.9142 3.47363Z" fill="white"/>
<path d="M8.20703 14.0271V12.3522C8.20703 12.0053 8.33826 11.7241 8.50013 11.7241C8.66201 11.7241 8.79324 12.0053 8.79324 12.3522V14.0271C8.79324 14.374 8.66201 14.6552 8.50013 14.6552C8.33826 14.6552 8.20703 14.374 8.20703 14.0271Z" fill="white"/>
<path d="M10.154 14.0688C10.7769 14.0688 11.3146 14.487 11.4496 15.0717L11.4558 15.0997V15.0997L11.7131 16.3425C11.7465 16.504 11.7033 16.6714 11.5952 16.7988C11.4871 16.9261 11.3256 16.9999 11.1552 16.9999H5.84485C5.67439 16.9999 5.5129 16.9261 5.40484 16.7987C5.29678 16.6714 5.2535 16.504 5.28693 16.3425L5.54428 15.0997L5.55041 15.0717C5.68544 14.487 6.2231 14.0688 6.84607 14.0688H10.154ZM6.84607 15.168C6.75571 15.168 6.67786 15.2296 6.66011 15.3153L6.53888 15.9007H10.4612L10.3399 15.3153V15.3152C10.3222 15.2296 10.2443 15.168 10.154 15.168H6.84607Z" fill="white"/>
<path d="M13.4503 15.8276L13.4663 15.8278C13.8006 15.8358 14.0691 16.0952 14.0691 16.4138C14.0691 16.7325 13.8006 16.9918 13.4663 16.9999L13.4503 17.0001H3.54993C3.20819 17.0001 2.93115 16.7376 2.93115 16.4138C2.93115 16.0901 3.20819 15.8276 3.54993 15.8276H13.4503Z" fill="white"/>
</svg>
