<svg width="26" height="26" viewBox="0 0 26 26" fill="none" xmlns="http://www.w3.org/2000/svg">
<path d="M3.25016 6.14852V3.25016C3.25016 2.65186 2.76513 2.16683 2.16683 2.16683C1.56853 2.16683 1.0835 2.65186 1.0835 3.25016V7.58349C1.0835 8.78011 2.05355 9.75016 3.25016 9.75016H7.5835C8.18181 9.75016 8.66683 9.26514 8.66683 8.66683C8.66683 8.06852 8.18181 7.58349 7.5835 7.58349H4.89884C4.92086 7.55646 4.94186 7.5284 4.96177 7.49931C6.08958 5.85118 7.70276 4.5817 9.58973 3.87636C11.8165 3.04398 14.2709 3.05473 16.4903 3.90655C18.7098 4.75838 20.541 6.39249 21.6392 8.50097C22.7373 10.6094 23.0263 13.0467 22.4519 15.3536C21.8775 17.6604 20.4794 19.6776 18.5207 21.025C16.5622 22.3724 14.1784 22.957 11.8187 22.6686C9.45895 22.3803 7.28613 21.2389 5.70963 19.4595C4.37372 17.9516 3.54417 16.074 3.32087 14.0895C3.25398 13.4948 2.76996 13.0087 2.17166 13.0093C1.57335 13.0097 1.0788 13.4962 1.13361 14.0919C1.3651 16.6086 2.39238 18.9971 4.08071 20.9026C6.00944 23.0796 8.66774 24.476 11.5547 24.8289C14.4416 25.1816 17.358 24.4664 19.7542 22.818C22.1504 21.1696 23.861 18.7017 24.5638 15.8794C25.2665 13.0571 24.9128 10.0753 23.5694 7.49571C22.2259 4.91613 19.9855 2.91692 17.2701 1.87477C14.5549 0.832616 11.5521 0.819477 8.82774 1.83783C6.56583 2.68332 4.62549 4.19137 3.25016 6.14852Z" fill="white"/>
<path d="M12.9998 5.4165C12.4015 5.4165 11.9165 5.90152 11.9165 6.49984V13.5054C11.9165 13.5054 11.9165 13.7879 12.0538 14.0003C12.1456 14.1805 12.2888 14.3371 12.477 14.4457L17.4818 17.3352C18 17.6343 18.6625 17.4568 18.9616 16.9386C19.2607 16.4205 19.0833 15.758 18.5651 15.4588L14.0832 12.8711V6.49984C14.0832 5.90153 13.5982 5.4165 12.9998 5.4165Z" fill="white"/>
</svg>
