<svg width="34" height="34" viewBox="0 0 34 34" fill="none" xmlns="http://www.w3.org/2000/svg">
<path d="M16.9732 8.46684C17.8465 8.46283 18.774 8.75427 19.6057 9.16878C20.4458 9.58744 21.2471 10.1608 21.8749 10.788C22.4885 11.401 23.0043 12.1336 23.1512 12.8819C23.2273 13.2692 23.2079 13.682 23.0248 14.0743C22.8404 14.4691 22.5186 14.7823 22.0998 15.0125C20.9001 15.6717 19.7178 16.3195 18.8355 16.8024C18.702 16.8755 18.5754 16.9447 18.4566 17.0096C18.9969 17.308 19.6853 17.6882 20.4061 18.0862C22.0149 18.9745 23.784 19.9508 24.4289 20.3052C24.948 20.5905 25.246 21.0303 25.3203 21.5356C25.3891 22.0041 25.2584 22.4681 25.0709 22.8584C24.6985 23.6333 23.9761 24.3787 23.2557 24.7787C22.4467 25.2279 21.6309 25.2124 20.8971 25.0098C20.1979 24.8168 19.5233 24.4392 18.9512 24.1189C18.4964 23.8642 17.9914 23.4681 17.6246 23.1971C17.4256 23.0501 17.265 22.9371 17.1376 22.862C17.1264 22.8554 17.1159 22.8494 17.1062 22.844C17.0844 22.8542 17.0593 22.8664 17.031 22.881C16.8777 22.9599 16.6847 23.0765 16.4573 23.2213C16.0311 23.4926 15.4689 23.8752 15.0201 24.1218C14.4361 24.4427 13.7573 24.8143 13.0601 25.0043C12.3304 25.2032 11.5209 25.2204 10.7225 24.7796C10.0086 24.3855 9.29244 23.6371 8.92442 22.8616C8.73881 22.4704 8.60997 22.0058 8.67909 21.5375C8.75357 21.0328 9.05016 20.5913 9.57073 20.3052C10.4996 19.7947 13.7538 17.9798 15.4983 17.0063C14.5982 16.5041 13.2565 15.758 11.8999 15.0125C11.4827 14.7832 11.1617 14.4714 10.977 14.0786C10.7935 13.6882 10.7724 13.277 10.8466 12.8908C10.9898 12.1446 11.5001 11.4138 12.1079 10.8018C12.7298 10.1757 13.5244 9.60254 14.3582 9.18212C15.1839 8.76581 16.1047 8.47083 16.9732 8.46684ZM16.9705 17.8268C15.6351 18.5723 11.4015 20.935 10.3157 21.5317C10.1906 21.6005 10.1643 21.6629 10.1538 21.7344C10.1379 21.8423 10.1618 22.0261 10.2817 22.2788C10.5248 22.7911 11.0309 23.3121 11.47 23.5546C11.8246 23.7503 12.1917 23.7675 12.6498 23.6427C13.1405 23.5089 13.6608 23.2329 14.2751 22.8953C14.6678 22.6796 15.1334 22.3596 15.6291 22.0441C15.8627 21.8954 16.1041 21.7475 16.3224 21.6352C16.4318 21.5789 16.5497 21.524 16.6682 21.4818C16.7766 21.4432 16.9386 21.3954 17.1213 21.3954L17.139 21.3955C17.3218 21.3986 17.4795 21.4484 17.5882 21.4912C17.7075 21.5382 17.8211 21.5985 17.9221 21.658C18.1226 21.7763 18.3375 21.9303 18.5381 22.0785C18.9702 22.3978 19.3599 22.7041 19.7067 22.8982C20.3107 23.2365 20.8238 23.5147 21.3122 23.6495C21.766 23.7748 22.1378 23.7593 22.5049 23.5554C22.9606 23.3024 23.472 22.7784 23.7165 22.2696C23.8373 22.0181 23.8609 21.8368 23.8454 21.7317C23.8354 21.6634 23.8105 21.6012 23.6839 21.5317C23.0374 21.1764 21.2667 20.1992 19.6585 19.3113C18.8542 18.8672 18.0903 18.4453 17.5275 18.1345C17.3081 18.0133 17.1193 17.909 16.9705 17.8268ZM16.9804 9.8833C16.4373 9.8858 15.7588 10.0791 15.0557 10.4336C14.3608 10.784 13.6973 11.2642 13.1904 11.7746C12.6694 12.2991 12.3801 12.7879 12.3115 13.1452C12.2798 13.3106 12.2997 13.4221 12.3365 13.5005C12.3722 13.5764 12.4509 13.6794 12.6448 13.786C14.4439 14.7746 16.2161 15.764 16.9728 16.1873C16.9913 16.1772 17.0104 16.1668 17.0302 16.156C17.2859 16.0162 17.6519 15.816 18.0928 15.5747C18.9747 15.092 20.1561 14.4447 21.3548 13.786C21.5497 13.6789 21.6283 13.5755 21.6637 13.4994C21.7004 13.4209 21.7202 13.3087 21.6874 13.142C21.6167 12.7823 21.3229 12.2907 20.7964 11.7647C20.284 11.2529 19.6146 10.7723 18.9146 10.4235C18.2063 10.0705 17.5244 9.88081 16.9804 9.8833Z" fill="white"/>
<path d="M6.33301 16.8059C6.33301 15.4135 7.48508 14.2847 8.90623 14.2847C10.3274 14.2847 12.9269 15.5887 12.9269 16.8059C12.9269 18.023 10.3274 19.3271 8.90623 19.3271V18.6316V17.9361C9.27828 17.9361 10.0327 17.7272 10.7298 17.3244C11.049 17.1399 11.2828 16.9557 11.4232 16.8059C11.2828 16.6561 11.049 16.4718 10.7298 16.2874C10.0327 15.8845 9.27828 15.6757 8.90623 15.6757C8.26667 15.6757 7.75106 16.1832 7.75106 16.8059C7.75106 17.4285 8.26667 17.9361 8.90623 17.9361V18.6316V19.3271C7.48508 19.3271 6.33301 18.1983 6.33301 16.8059Z" fill="white"/>
<path d="M27.6665 16.8059C27.6665 15.4135 26.5144 14.2847 25.0933 14.2847C23.6721 14.2847 21.0726 15.5887 21.0726 16.8059C21.0726 18.023 23.6721 19.3271 25.0933 19.3271V17.9361C24.7212 17.9361 23.9669 17.7272 23.2697 17.3244C22.9505 17.1399 22.7167 16.9557 22.5763 16.8059C22.7167 16.6561 22.9505 16.4718 23.2697 16.2874C23.9669 15.8845 24.7212 15.6757 25.0933 15.6757C25.7328 15.6757 26.2485 16.1832 26.2485 16.8059C26.2485 17.4285 25.7328 17.9361 25.0933 17.9361V19.3271C26.5144 19.3271 27.6665 18.1983 27.6665 16.8059Z" fill="white"/>
<circle cx="17" cy="17" r="15.75" stroke="white" stroke-width="2.5"/>
</svg>
