<svg width="29" height="29" viewBox="0 0 29 29" fill="none" xmlns="http://www.w3.org/2000/svg">
<path d="M14.5001 0C16.9798 0 19.0301 0.218111 20.6077 0.483931C22.0603 0.72865 23.2612 0.885764 24.1913 2.0296L24.213 2.05659C25.1252 3.20034 25.0242 4.49489 24.9612 6.07811C24.8377 9.18666 24.4271 12.8574 22.9718 15.7769C22.2362 17.2526 21.2174 18.5701 19.8049 19.5161C18.3857 20.4667 16.6314 21 14.5001 21C12.3687 21 10.6144 20.4667 9.19511 19.5161C7.7826 18.5701 6.76385 17.2526 6.02821 15.7769C4.57291 12.8574 4.16233 9.18665 4.03874 6.07811C3.9753 4.48234 3.8733 3.17997 4.80864 2.02964C5.73873 0.885749 6.93976 0.728649 8.39223 0.483931C9.96998 0.218112 12.0202 2.59522e-07 14.5001 0ZM14.5001 2.03226C12.1401 2.03226 10.2032 2.23982 8.73081 2.48789C7.09332 2.76378 6.74932 2.867 6.38857 3.31067C6.03304 3.74793 5.99926 4.16151 6.07225 5.9975C6.19391 9.05756 6.59816 12.3598 7.85009 14.8712C8.46807 16.1109 9.27605 17.1233 10.3287 17.8283C11.3746 18.5288 12.724 18.9677 14.5001 18.9677C16.2761 18.9677 17.6255 18.5288 18.6713 17.8284C19.724 17.1234 20.5319 16.1109 21.1499 14.8712C22.4018 12.3598 22.8061 9.05752 22.9277 5.99746C23.0007 4.16139 22.967 3.74794 22.6114 3.31071L22.6114 3.31063C22.2507 2.86696 21.9067 2.76377 20.2692 2.48789C18.7969 2.23982 16.8599 2.03226 14.5001 2.03226Z" fill="white"/>
<path d="M27.1297 9.34069V9.24245C27.1298 8.51293 27.1284 8.05101 27.0917 7.70232C27.0578 7.37958 27.0022 7.2596 26.9533 7.18595L26.9532 7.18579C26.9043 7.11216 26.817 7.01701 26.5457 6.87999C26.2525 6.73194 25.8492 6.58444 25.2115 6.35374H25.2115L24.0287 5.92578L24.6202 4L25.8029 4.42792L25.8029 4.42796C26.3997 4.64388 26.9223 4.83127 27.3345 5.03945C27.7686 5.25862 28.1663 5.54092 28.4704 5.99885L28.4984 6.04191C28.7821 6.48803 28.8973 6.97189 28.9499 7.47209C29.0015 7.96245 29 8.55976 29 9.24253V9.34069C29 9.90307 29.0011 10.3988 28.9631 10.8116C28.923 11.247 28.8342 11.6702 28.6125 12.0793C28.3907 12.4883 28.093 12.778 27.7618 13.0274C27.4478 13.264 27.048 13.5036 26.5951 13.7767L22.9083 16L22 14.2255L25.6868 12.0023V12.0023C26.172 11.7097 26.4758 11.5252 26.6955 11.3597C26.898 11.2072 26.964 11.1172 27.0006 11.0497C27.0371 10.9822 27.0775 10.876 27.102 10.6098C27.1286 10.321 27.1297 9.94316 27.1297 9.34069Z" fill="white"/>
<path d="M4.97128 5.92578L3.78852 6.35374C3.15087 6.58444 2.74756 6.73194 2.45436 6.87999C2.18296 7.01702 2.09564 7.11218 2.04674 7.18583C1.99782 7.25949 1.94227 7.37954 1.90833 7.70232C1.87166 8.05104 1.87025 8.51296 1.87027 9.24249L1.87038 9.5563C1.87096 10.0362 1.87469 10.3571 1.89795 10.6098C1.92247 10.876 1.96287 10.9823 1.99947 11.0498L2.0067 11.0627C2.04483 11.1287 2.11466 11.2167 2.30452 11.3597C2.52418 11.5251 2.828 11.7097 3.31322 12.0023L7 14.2255L6.09168 16L2.40493 13.7768C1.95201 13.5037 1.55221 13.264 1.23821 13.0274C0.917409 12.7858 0.627949 12.5063 0.408578 12.1172L0.387574 12.0792C0.165836 11.6702 0.0770588 11.247 0.0369737 10.8116C-0.00103337 10.3989 2.48555e-05 9.9031 6.80806e-06 9.34073V9.24253C-1.13265e-05 8.55975 -0.00144335 7.96243 0.0501239 7.47209C0.104419 6.95581 0.225376 6.4569 0.529487 5.99893L0.558272 5.95651C0.858497 5.52337 1.24498 5.25178 1.66549 5.03945C2.07776 4.83128 2.6003 4.64384 3.19709 4.42792L4.37985 4L4.97128 5.92578Z" fill="white"/>
<path d="M14 23.9286V21.0714C14 20.4797 14.2239 20 14.5 20C14.7761 20 15 20.4797 15 21.0714V23.9286C15 24.5203 14.7761 25 14.5 25C14.2239 25 14 24.5203 14 23.9286Z" fill="white"/>
<path d="M17.3214 24C18.3842 24 19.3013 24.7133 19.5317 25.7108L19.5422 25.7585V25.7585L19.9811 27.8787C20.0382 28.1541 19.9644 28.4397 19.78 28.6569C19.5957 28.8741 19.3202 29 19.0294 29H9.9706C9.67982 29 9.40434 28.8741 9.21999 28.6569C9.03565 28.4397 8.96183 28.1541 9.01885 27.8787L9.45786 25.7585L9.46832 25.7108C9.69867 24.7133 10.6158 24 11.6786 24H17.3214ZM11.6786 25.875C11.5244 25.875 11.3916 25.9801 11.3613 26.1262L11.1545 27.125H17.8455L17.6387 26.1262V26.1262C17.6084 25.9801 17.4756 25.875 17.3214 25.875H11.6786Z" fill="white"/>
<path d="M22.9444 27L22.9717 27.0003C23.5421 27.014 24 27.4563 24 28C24 28.5437 23.5421 28.986 22.9717 28.9997L22.9444 29H6.05556C5.47259 29 5 28.5523 5 28C5 27.4477 5.47259 27 6.05556 27H22.9444Z" fill="white"/>
</svg>
