<svg width="587" height="581" viewBox="0 0 587 581" fill="none" xmlns="http://www.w3.org/2000/svg">
<path d="M243.656 475.162L269.364 511.392L275.798 520.458L270.07 529.987L244.362 572.758L239.408 581H31.2598L26.5068 571.807L4.39844 529.035L0.00585938 520.539L4.98828 512.374L27.0977 476.145L32.0674 468H238.574L243.656 475.162ZM554.156 475.162L579.864 511.392L586.298 520.458L580.57 529.987L554.862 572.758L549.908 581H341.76L337.007 571.807L314.898 529.035L310.506 520.539L315.488 512.374L337.598 476.145L342.567 468H549.074L554.156 475.162ZM38.9932 521.92L51.959 547H220.176L235.201 522L221.01 502H51.1504L38.9932 521.92ZM349.493 521.92L362.459 547H530.676L545.701 522L531.51 502H361.65L349.493 521.92ZM243.656 330.162L269.364 366.392L275.798 375.458L270.07 384.987L244.362 427.758L239.408 436H31.2598L26.5068 426.807L4.39844 384.035L0.00585938 375.539L4.98828 367.374L27.0977 331.145L32.0674 323H238.574L243.656 330.162ZM554.156 330.162L579.864 366.392L586.298 375.458L580.57 384.987L554.862 427.758L549.908 436H341.76L337.007 426.807L314.898 384.035L310.506 375.539L315.488 367.374L337.598 331.145L342.567 323H549.074L554.156 330.162ZM38.9932 376.92L51.959 402H220.176L235.201 377L221.01 357H51.1504L38.9932 376.92ZM349.493 376.92L362.459 402H530.676L545.701 377L531.51 357H361.65L349.493 376.92ZM582.5 284H1.5V0H582.5V284ZM35.5 250H548.5V34H35.5V250ZM292 189C301.389 189 309 196.611 309 206C309 215.389 301.389 223 292 223C282.611 223 275 215.389 275 206C275 196.611 282.611 189 292 189ZM292.184 59.5039C306.535 59.6711 318.907 65.1001 327.585 74.7627C336.171 84.324 339.999 96.7339 339.999 109C339.999 126.131 328.715 145.223 308.499 152.229V169H274.499V121H291.499C301.708 121 305.999 113.54 305.999 109C305.999 103.591 304.327 99.7504 302.288 97.4805C300.535 95.5285 297.551 93.623 292.04 93.5059L291.499 93.5C287.884 93.5 284.423 94.8586 281.951 97.2275C279.688 99.3971 277.5 103.129 277.5 109.535H243.5C243.5 77.9754 267.297 59.5 291.499 59.5L292.184 59.5039Z" fill="white"/>
</svg>
