<svg width="26" height="22" viewBox="0 0 26 22" fill="none" xmlns="http://www.w3.org/2000/svg">
<path d="M23.6341 4.74407C23.6341 4.02877 23.3058 3.34278 22.7213 2.83702C22.1369 2.33128 21.3443 2.04716 20.5179 2.04716H5.48209C4.65567 2.04716 3.86307 2.33128 3.27866 2.83702C2.69424 3.34278 2.36587 4.02877 2.36587 4.74407V14.0355C2.36587 14.7508 2.69424 15.4368 3.27866 15.9425C3.86307 16.4483 4.65567 16.7324 5.48209 16.7324H10.2713L13 19.0938L15.7287 16.7324H20.5179C21.3443 16.7324 22.1369 16.4483 22.7213 15.9425C23.3058 15.4368 23.6341 14.7508 23.6341 14.0355V4.74407ZM26 14.0355C26 15.2937 25.4225 16.5003 24.3944 17.39C23.3663 18.2797 21.9719 18.7796 20.5179 18.7796H16.7088L13 21.9891L9.2912 18.7796H5.48209C4.0281 18.7796 2.63368 18.2797 1.6056 17.39C0.577524 16.5003 3.28202e-06 15.2937 0 14.0355V4.74407C0 3.48591 0.57752 2.27922 1.6056 1.38953C2.63368 0.49983 4.0281 2.60978e-07 5.48209 0H20.5179C21.9719 0 23.3663 0.49983 24.3944 1.38953C25.4225 2.27922 26 3.48591 26 4.74407V14.0355Z" fill="white"/>
<path d="M24.2671 2.25879L25.1333 8.28027L24.2671 15.0557L22.5337 17.6904H16.0337L13.4331 20.7012L9.96631 17.6904H3.8999L1.30029 15.0557L0.866699 5.26953L3.03369 1.50586L16.8999 0.75293L24.2671 2.25879ZM12.8208 12.4805C12.1645 12.4805 11.6316 13.0127 11.6313 13.6689C11.6315 14.3253 12.1645 14.8584 12.8208 14.8584H13.1802C13.8363 14.8581 14.3685 14.3251 14.3687 13.6689C14.3684 13.0129 13.8362 12.4808 13.1802 12.4805H12.8208ZM13.0005 3.56641C12.0963 3.5664 11.2285 3.89224 10.5874 4.47266C10.2451 4.78261 9.98241 5.15171 9.81104 5.55371C9.56406 6.13331 10.0902 6.66571 10.7202 6.66895L11.0317 6.6709C11.4888 6.67282 11.857 6.25116 12.1958 5.94434C12.4095 5.75091 12.6991 5.64258 13.0005 5.64258C13.3016 5.64274 13.5907 5.75105 13.8042 5.94434C14.011 6.13174 14.1314 6.38457 14.1401 6.64941V6.85156C14.1391 7.12782 14.0184 7.39315 13.8042 7.58887L12.8647 8.44434C12.5457 8.73326 12.2921 9.07667 12.1196 9.45508C11.9475 9.83293 11.8594 10.2384 11.8599 10.6475V10.7461C11.8601 11.3757 12.3708 11.8867 13.0005 11.8867C13.6299 11.8863 14.1399 11.3755 14.1401 10.7461V10.6455C14.1399 10.5101 14.1701 10.3761 14.2271 10.251C14.2841 10.1257 14.3676 10.0116 14.4731 9.91602L15.4204 9.05371C16.059 8.47023 16.4188 7.68003 16.4214 6.85645V6.66406C16.4167 5.84117 16.0534 5.05309 15.4126 4.47266C14.7717 3.89238 13.9044 3.56656 13.0005 3.56641Z" fill="white"/>
</svg>
