<svg width="28" height="23" viewBox="0 0 28 23" fill="none" xmlns="http://www.w3.org/2000/svg">
<path d="M3.52715 18.8183C4.6745 18.8328 5.6 19.7635 5.6 20.9091C5.59999 22.0637 4.65986 23 3.5 23C2.34918 23 1.41468 22.0783 1.40016 20.9361L1.39999 20.9091L1.40016 20.8821C1.41469 19.7399 2.34919 18.8182 3.5 18.8182L3.52715 18.8183ZM26.6001 19.5161C27.3733 19.5162 28.0001 20.1403 28 20.9102C27.9999 21.68 27.3731 22.304 26.5999 22.304L12.5999 22.303C11.8267 22.303 11.1999 21.6788 11.2 20.909C11.2 20.1391 11.8269 19.5151 12.6001 19.5151L26.6001 19.5161ZM7.4046 8.77737C7.94831 8.23001 8.83472 8.22512 9.38447 8.76647C9.93421 9.30782 9.93911 10.1904 9.39542 10.7378L4.54926 15.6166C4.28627 15.8813 3.9278 16.0303 3.55381 16.0303C3.17983 16.0303 2.82142 15.8813 2.55844 15.6165L0.404586 13.4481C-0.139107 12.9008 -0.134206 12.0182 0.415537 11.4768C0.96529 10.9355 1.85171 10.9404 2.3954 11.4878L3.55381 12.654L7.4046 8.77737ZM26.6001 11.1525C27.3733 11.1525 28.0001 11.7767 28 12.5465C27.9999 13.3164 27.3731 13.9404 26.5999 13.9404L12.5999 13.9394C11.8267 13.9393 11.1999 13.3152 11.2 12.5453C11.2 11.7755 11.8269 11.1514 12.6001 11.1515L26.6001 11.1525ZM7.4046 0.413742C7.94831 -0.133623 8.83473 -0.138513 9.38447 0.402838C9.93421 0.944185 9.93911 1.82676 9.39542 2.37413L4.54926 7.25293C4.28628 7.51768 3.92783 7.66666 3.55385 7.66666C3.17987 7.66666 2.82142 7.51768 2.55844 7.25293L0.404586 5.08455C-0.139109 4.53718 -0.134207 3.65461 0.415537 3.11326C0.965286 2.57192 1.8517 2.5768 2.3954 3.12416L3.55381 4.29038L7.4046 0.413742ZM26.6001 2.78888C27.3733 2.78894 28.0001 3.41308 28 4.18293C27.9999 4.95277 27.3731 5.57682 26.5999 5.57677L12.5999 5.57575C11.8267 5.57569 11.1999 4.95155 11.2 4.1817C11.2 3.41186 11.8269 2.78781 12.6001 2.78786L26.6001 2.78888Z" fill="white"/>
</svg>
