<svg width="19" height="19" viewBox="0 0 19 19" fill="none" xmlns="http://www.w3.org/2000/svg">
<path d="M12.9541 0C14.385 0 15.5459 1.15994 15.5459 2.59082H16.4092C17.84 2.59087 18.9999 3.75084 19 5.18164V5.73926C19 6.7987 18.3547 7.75201 17.3711 8.14551L14.709 9.20996C14.3337 9.90035 13.7818 10.5986 12.9746 11.1367C12.273 11.6043 11.4102 11.9296 10.3633 12.0449V13.8184H12.0908C13.5218 13.8184 14.6816 14.9782 14.6816 16.4092V17.2725C14.6816 18.2264 13.9081 19 12.9541 19H6.0459C5.09195 19 4.31836 18.2264 4.31836 17.2725V16.4092C4.31836 14.9782 5.47826 13.8184 6.90918 13.8184H8.63672V12.0449C7.58962 11.9297 6.727 11.6035 6.02539 11.1357C5.21823 10.5977 4.66622 9.90034 4.29102 9.20996L1.62891 8.14551C0.645242 7.75201 0 6.7987 0 5.73926V5.18164C9.59878e-05 3.75084 1.16 2.59087 2.59082 2.59082H3.4541C3.45415 1.15995 4.61501 0 6.0459 0H12.9541ZM2.59082 4.31836C2.11395 4.31841 1.72764 4.70478 1.72754 5.18164V5.73926C1.72754 6.09241 1.94262 6.41084 2.27051 6.54199L3.55762 7.05664C3.49964 6.72473 3.45465 6.38367 3.4541 6.0459V4.31836H2.59082ZM15.5459 6.0459C15.5459 6.38504 15.4994 6.72255 15.4424 7.05664L16.7295 6.54199C17.0573 6.41084 17.2725 6.09241 17.2725 5.73926V5.18164C17.2724 4.70478 16.8861 4.31841 16.4092 4.31836H15.5459V6.0459Z" fill="white"/>
</svg>
