<svg width="35" height="35" viewBox="0 0 35 35" fill="none" xmlns="http://www.w3.org/2000/svg">
<path d="M17.5002 23.3332C17.2117 23.3332 16.9298 23.4187 16.69 23.5789C16.4501 23.7392 16.2632 23.9669 16.1529 24.2334C16.0425 24.4999 16.0136 24.7931 16.0699 25.076C16.1261 25.3589 16.265 25.6187 16.469 25.8227C16.6729 26.0266 16.9328 26.1655 17.2157 26.2218C17.4986 26.2781 17.7918 26.2492 18.0583 26.1388C18.3247 26.0284 18.5525 25.8415 18.7127 25.6017C18.873 25.3619 18.9585 25.0799 18.9585 24.7915C18.9585 24.4047 18.8049 24.0338 18.5314 23.7603C18.2579 23.4868 17.8869 23.3332 17.5002 23.3332ZM33.0606 25.4769L21.321 5.06024C20.9416 4.37995 20.3874 3.81331 19.7157 3.41884C19.044 3.02438 18.2791 2.81641 17.5002 2.81641C16.7212 2.81641 15.9564 3.02438 15.2847 3.41884C14.613 3.81331 14.0588 4.37995 13.6793 5.06024L2.01268 25.4769C1.62009 26.139 1.40913 26.893 1.40112 27.6627C1.3931 28.4324 1.5883 29.1906 1.96701 29.8607C2.34572 30.5309 2.89454 31.0892 3.55805 31.4794C4.22156 31.8697 4.97628 32.0779 5.74601 32.0832H29.2543C30.0303 32.0908 30.7942 31.892 31.468 31.507C32.1417 31.122 32.7009 30.5648 33.0883 29.8925C33.4756 29.2201 33.6772 28.4569 33.6724 27.6809C33.6675 26.905 33.4564 26.1443 33.0606 25.4769ZM30.5377 28.3936C30.4098 28.621 30.2234 28.81 29.9976 28.9408C29.7719 29.0716 29.5152 29.1395 29.2543 29.1373H5.74601C5.48513 29.1395 5.22845 29.0716 5.00272 28.9408C4.777 28.81 4.5905 28.621 4.46268 28.3936C4.33468 28.1719 4.2673 27.9204 4.2673 27.6644C4.2673 27.4084 4.33468 27.1569 4.46268 26.9352L16.1293 6.51858C16.2517 6.2797 16.4377 6.07923 16.6667 5.93924C16.8957 5.79926 17.1589 5.72519 17.4273 5.72519C17.6957 5.72519 17.9589 5.79926 18.1879 5.93924C18.4169 6.07923 18.6028 6.2797 18.7252 6.51858L30.4648 26.9352C30.6094 27.1538 30.6926 27.4072 30.7054 27.669C30.7182 27.9307 30.6603 28.1911 30.5377 28.4227V28.3936ZM17.5002 11.6665C17.1134 11.6665 16.7425 11.8201 16.469 12.0936C16.1955 12.3671 16.0418 12.7381 16.0418 13.1248V18.9582C16.0418 19.3449 16.1955 19.7159 16.469 19.9894C16.7425 20.2628 17.1134 20.4165 17.5002 20.4165C17.8869 20.4165 18.2579 20.2628 18.5314 19.9894C18.8049 19.7159 18.9585 19.3449 18.9585 18.9582V13.1248C18.9585 12.7381 18.8049 12.3671 18.5314 12.0936C18.2579 11.8201 17.8869 11.6665 17.5002 11.6665Z" fill="white"/>
</svg>
