<svg width="30" height="30" viewBox="0 0 30 30" fill="none" xmlns="http://www.w3.org/2000/svg">
<path d="M26.2762 14.5979C26.2762 8.14814 21.0477 2.91955 14.5979 2.91955C8.14814 2.91955 2.91955 8.14814 2.91955 14.5979C2.91955 21.0477 8.14814 26.2762 14.5979 26.2762C21.0477 26.2762 26.2762 21.0477 26.2762 14.5979ZM29.1958 14.5979C29.1958 22.6601 22.6601 29.1958 14.5979 29.1958C6.5357 29.1958 2.70867e-07 22.6601 0 14.5979C0 6.5357 6.5357 0 14.5979 0C22.6601 2.71008e-07 29.1958 6.5357 29.1958 14.5979Z" fill="white"/>
<path d="M15 9V15L20 18.5" stroke="white" stroke-width="2.5" stroke-linecap="round"/>
</svg>
