<svg width="38" height="39" viewBox="0 0 38 39" fill="none" xmlns="http://www.w3.org/2000/svg">
<path d="M32.0366 0.000343105C32.4143 0.00777136 32.782 0.130212 33.0946 0.352998C33.3972 0.568713 33.6348 0.869148 33.7808 1.21917L37.2943 8.77651L37.2959 8.77977C38.2768 10.9033 38.1756 13.2964 37.3457 15.214C36.5172 17.1283 34.8754 18.7367 32.6572 18.9913L32.5043 19H31.4957L31.3428 18.9913C29.1246 18.7367 27.4827 17.1283 26.6542 15.214C25.8244 13.2964 25.7232 10.9033 26.7041 8.77977L26.7057 8.77651L30.2188 1.22008C30.3647 0.869663 30.6025 0.568907 30.9054 0.352998C31.228 0.123027 31.6095 0 32 0L32.0366 0.000343105ZM29.2271 10.0526C28.6392 11.3254 28.6874 12.8068 29.207 14.0074C29.7164 15.1846 30.5957 15.9311 31.5818 16.0722H32.4182C33.4043 15.9311 34.2836 15.1846 34.7931 14.0074C35.3127 12.8068 35.3608 11.3254 34.7729 10.0527V10.0526L32 4.08849L29.2271 10.0526ZM32.7729 2.42186C32.7827 2.40087 32.7917 2.37948 32.7999 2.35764L32.7729 2.42186ZM31.2001 2.35764C31.2082 2.37937 31.2172 2.40068 31.2269 2.42158L31.2001 2.35764Z" fill="white"/>
<path d="M6.03655 0.000343105C6.41428 0.00777132 6.78202 0.130214 7.09456 0.352998C7.39717 0.568713 7.63482 0.869148 7.78074 1.21917L11.2943 8.77651L11.2959 8.77977C12.2768 10.9033 12.1756 13.2964 11.3457 15.214C10.5172 17.1283 8.87539 18.7367 6.65724 18.9913L6.5043 19H5.4957L5.34276 18.9913C3.12461 18.7367 1.48278 17.1283 0.654274 15.214C-0.175585 13.2964 -0.276849 10.9033 0.704123 8.77977L0.705656 8.77651L4.21877 1.22008C4.36465 0.869663 4.60251 0.568907 4.90539 0.352998C5.228 0.123028 5.60948 0 6 0L6.03655 0.000343105ZM3.22708 10.0526C2.63913 11.3254 2.68735 12.8068 3.20695 14.0074C3.71642 15.1846 4.59573 15.9311 5.58178 16.0722H6.41822C7.40426 15.9311 8.28358 15.1846 8.79305 14.0074C9.31265 12.8068 9.3608 11.3254 8.77286 10.0527V10.0526L6 4.08849L3.22708 10.0526ZM6.77291 2.42186C6.78266 2.40087 6.7917 2.37948 6.79989 2.35764L6.77291 2.42186ZM5.20005 2.35764C5.2082 2.37937 5.21718 2.40068 5.22687 2.42158L5.20005 2.35764Z" fill="white"/>
<path d="M19.5385 15.0004C19.9355 15.0079 20.3228 15.1307 20.656 15.3554C20.9909 15.5814 21.2571 15.9007 21.4241 16.2763L26.0914 26.2436H26.0913C27.3298 28.8866 27.2393 31.8825 26.2013 34.2951C25.162 36.7108 23.0989 38.6806 20.3134 38.9918L20.1665 39H18.8335L18.6866 38.9918C15.9011 38.6806 13.838 36.7108 12.7987 34.2951C11.7607 31.8825 11.6702 28.8866 12.9087 26.2436L17.5759 16.2763C17.7428 15.9007 18.0091 15.5814 18.3441 15.3554L18.3764 15.334C18.713 15.1159 19.1024 15 19.5 15L19.5385 15.0004ZM15.3732 27.4808L15.3729 27.4812C14.5118 29.3189 14.5674 31.437 15.3006 33.1411C16.0222 34.8185 17.3284 35.9596 18.9131 36.1641H20.0869C21.6716 35.9596 22.9778 34.8185 23.6994 33.1411C24.4326 31.437 24.4882 29.3189 23.6271 27.4812L23.6268 27.4808L19.5 18.6675L15.3732 27.4808Z" fill="white"/>
</svg>
