<svg width="21" height="21" viewBox="0 0 21 21" fill="none" xmlns="http://www.w3.org/2000/svg">
<path d="M19.5 5.4H17.82C18.3 4.824 18.6 4.104 18.6 3.3C18.6 1.476 17.124 0 15.3 0C13.284 0 11.508 1.068 10.5 2.652C9.492 1.068 7.716 0 5.7 0C3.876 0 2.4 1.476 2.4 3.3C2.4 4.104 2.7 4.824 3.18 5.4H1.5C0.672 5.4 0 6.072 0 6.9V9.9C0 10.62 0.516 11.196 1.2 11.34V19.5C1.2 20.328 1.872 21 2.7 21H18.3C19.128 21 19.8 20.328 19.8 19.5V11.34C20.484 11.196 21 10.62 21 9.9V6.9C21 6.072 20.328 5.4 19.5 5.4ZM19.2 9.6H11.4V7.2H19.2V9.6ZM15.3 1.8C16.128 1.8 16.8 2.472 16.8 3.3C16.8 4.128 16.128 4.8 15.3 4.8H11.508C11.916 3.084 13.464 1.8 15.3 1.8ZM5.7 1.8C7.536 1.8 9.084 3.084 9.492 4.8H5.7C4.872 4.8 4.2 4.128 4.2 3.3C4.2 2.472 4.872 1.8 5.7 1.8ZM1.8 7.2H9.6V9.6H1.8V7.2ZM3 11.4H9.6V19.2H3V11.4ZM18 19.2H11.4V11.4H18V19.2Z" fill="white"/>
</svg>
