<svg width="41" height="41" viewBox="0 0 41 41" fill="none" xmlns="http://www.w3.org/2000/svg">
<path d="M20.4647 10.2085C21.5177 10.2037 22.636 10.5551 23.6389 11.0549C24.6518 11.5597 25.618 12.251 26.3749 13.0073C27.1148 13.7464 27.7366 14.6297 27.9139 15.5319C28.0056 15.9989 27.9821 16.4967 27.7614 16.9697C27.5391 17.4457 27.1511 17.8233 26.6461 18.1008C25.1996 18.8958 23.7741 19.6768 22.7102 20.2591C22.5493 20.3471 22.3966 20.4306 22.2533 20.5089C22.9048 20.8687 23.7348 21.3271 24.6039 21.807C26.5437 22.878 28.6768 24.0552 29.4544 24.4825C30.0803 24.8265 30.4396 25.3568 30.5292 25.966C30.6122 26.531 30.4546 27.0905 30.2284 27.5611C29.7795 28.4953 28.9084 29.3941 28.0398 29.8764C27.0644 30.418 26.0807 30.3994 25.196 30.1551C24.3529 29.9223 23.5395 29.467 22.8498 29.0809C22.3014 28.7738 21.6924 28.2962 21.2501 27.9694C21.0102 27.7922 20.8166 27.6559 20.663 27.5654C20.6494 27.5574 20.6368 27.5502 20.6251 27.5436C20.5988 27.5559 20.5686 27.5707 20.5345 27.5883C20.3497 27.6834 20.1169 27.824 19.8428 27.9985C19.3288 28.3257 18.651 28.787 18.1099 29.0844C17.4057 29.4713 16.5872 29.9193 15.7466 30.1484C14.8667 30.3882 13.8907 30.409 12.928 29.8775C12.0673 29.4023 11.2038 28.4999 10.76 27.5648C10.5362 27.0932 10.3809 26.533 10.4642 25.9683C10.554 25.3598 10.9117 24.8275 11.5393 24.4825C12.6593 23.867 16.583 21.6787 18.6864 20.5049C17.6011 19.8994 15.9834 18.9997 14.3477 18.1008C13.8446 17.8244 13.4576 17.4485 13.235 16.9749C13.0137 16.5042 12.9883 16.0084 13.0776 15.5427C13.2503 14.643 13.8656 13.7618 14.5985 13.0239C15.3484 12.2689 16.3064 11.5779 17.3118 11.071C18.3073 10.569 19.4176 10.2134 20.4647 10.2085ZM20.4616 21.4943C18.8513 22.3931 13.7467 25.2419 12.4376 25.9613C12.2867 26.0442 12.255 26.1196 12.2423 26.2058C12.2231 26.3358 12.252 26.5575 12.3966 26.8622C12.6897 27.4798 13.2999 28.1081 13.8294 28.4004C14.257 28.6364 14.6995 28.6572 15.2519 28.5066C15.8435 28.3454 16.4709 28.0126 17.2116 27.6056C17.685 27.3454 18.2465 26.9596 18.8441 26.5792C19.1258 26.3999 19.4169 26.2216 19.6801 26.0861C19.8119 26.0183 19.9541 25.9521 20.097 25.9012C20.2277 25.8546 20.4231 25.797 20.6433 25.797L20.6647 25.7971C20.8851 25.8008 21.0752 25.8609 21.2063 25.9126C21.3502 25.9692 21.4871 26.0419 21.6089 26.1137C21.8507 26.2562 22.1098 26.442 22.3516 26.6206C22.8726 27.0056 23.3426 27.375 23.7606 27.6091C24.489 28.0169 25.1076 28.3523 25.6964 28.5149C26.2436 28.6659 26.6919 28.6472 27.1346 28.4015C27.684 28.0964 28.3006 27.4645 28.5954 26.8511C28.7411 26.5478 28.7695 26.3292 28.7509 26.2025C28.7388 26.1201 28.7088 26.0452 28.5562 25.9613C27.7766 25.5329 25.6416 24.3547 23.7026 23.2841C22.7328 22.7487 21.8117 22.24 21.133 21.8652C20.8686 21.7191 20.6409 21.5933 20.4616 21.4943ZM20.4734 11.9164C19.8186 11.9194 19.0005 12.1525 18.1528 12.58C17.3149 13.0025 16.5149 13.5815 15.9037 14.1968C15.2755 14.8292 14.9267 15.4186 14.844 15.8494C14.8057 16.0489 14.8297 16.1833 14.8741 16.2778C14.9172 16.3693 15.012 16.4935 15.2459 16.622C17.415 17.8141 19.5519 19.007 20.4643 19.5174C20.4866 19.5052 20.5096 19.4927 20.5335 19.4796C20.8418 19.3111 21.2831 19.0697 21.8147 18.7787C22.878 18.1968 24.3026 17.4163 25.7478 16.622C25.9828 16.4929 26.0775 16.3682 26.1203 16.2765C26.1646 16.1818 26.1884 16.0466 26.1489 15.8456C26.0637 15.4118 25.7094 14.8191 25.0745 14.1849C24.4568 13.5678 23.6496 12.9883 22.8056 12.5677C21.9515 12.1421 21.1294 11.9134 20.4734 11.9164Z" fill="white"/>
<path d="M7.63574 20.263C7.63574 18.5841 9.02481 17.2232 10.7383 17.2231C12.4518 17.2231 15.5861 18.7955 15.5861 20.263C15.5861 21.7305 12.4518 23.3028 10.7383 23.3028V22.4643V21.6257C11.1869 21.6257 12.0964 21.3739 12.937 20.8882C13.3219 20.6658 13.6037 20.4436 13.773 20.263C13.6037 20.0824 13.3219 19.8602 12.937 19.6378C12.0964 19.1521 11.1869 18.9003 10.7383 18.9003C9.96718 18.9003 9.3455 19.5123 9.3455 20.263C9.3455 21.0137 9.96718 21.6257 10.7383 21.6257V22.4643V23.3028C9.02481 23.3028 7.63574 21.9418 7.63574 20.263Z" fill="white"/>
<path d="M33.3574 20.263C33.3574 18.5841 31.9684 17.2232 30.2549 17.2231C28.5414 17.2231 25.4071 18.7955 25.4071 20.263C25.4071 21.7305 28.5414 23.3028 30.2549 23.3028V21.6257C29.8063 21.6257 28.8967 21.3739 28.0561 20.8882C27.6712 20.6658 27.3894 20.4436 27.2201 20.263C27.3894 20.0824 27.6712 19.8602 28.0561 19.6378C28.8967 19.1521 29.8063 18.9003 30.2549 18.9003C31.026 18.9003 31.6477 19.5123 31.6477 20.263C31.6477 21.0137 31.026 21.6257 30.2549 21.6257V23.3028C31.9684 23.3028 33.3574 21.9418 33.3574 20.263Z" fill="white"/>
<circle cx="20.4968" cy="20.4968" r="19.2468" stroke="white" stroke-width="2.5"/>
</svg>
