<svg width="44" height="36" viewBox="0 0 44 36" fill="none" xmlns="http://www.w3.org/2000/svg">
<path d="M21.9454 0.817955C23.7466 0.809685 25.6596 1.41079 27.375 2.2657C29.1077 3.1292 30.7604 4.31177 32.0552 5.60534C33.3209 6.86972 34.3845 8.38066 34.6877 9.92398C34.8446 10.7228 34.8045 11.5743 34.4268 12.3833C34.0467 13.1976 33.3829 13.8435 32.519 14.3183C30.0447 15.678 27.6062 17.0141 25.7865 18.0101C25.5112 18.1607 25.2499 18.3035 25.0049 18.4375C26.1192 19.0529 27.5391 19.8371 29.0258 20.6579C32.344 22.4899 35.9927 24.5037 37.3228 25.2346C38.3935 25.823 39.0081 26.73 39.1613 27.7722C39.3033 28.7386 39.0337 29.6956 38.6469 30.5006C37.8789 32.0987 36.3889 33.6362 34.9031 34.4612C33.2346 35.3876 31.552 35.3557 30.0385 34.9379C28.5963 34.5397 27.205 33.7609 26.0252 33.1004C25.0871 32.5751 24.0454 31.7581 23.2889 31.1991C22.8785 30.8959 22.5473 30.6629 22.2845 30.508C22.2614 30.4943 22.2397 30.482 22.2197 30.4708C22.1747 30.4918 22.1231 30.5171 22.0647 30.5472C21.7486 30.7099 21.3505 30.9504 20.8815 31.249C20.0023 31.8087 18.8428 32.5977 17.9172 33.1063C16.7128 33.7683 15.3127 34.5345 13.8747 34.9265C12.3697 35.3367 10.7001 35.3722 9.05333 34.4631C7.58094 33.6502 6.10389 32.1066 5.34485 30.5071C4.96202 29.7003 4.6963 28.7421 4.83885 27.7762C4.99248 26.7352 5.60419 25.8246 6.67787 25.2346C8.59369 24.1818 15.3054 20.4385 18.9035 18.4306C17.0469 17.3949 14.2797 15.8559 11.4817 14.3183C10.6212 13.8454 9.95923 13.2024 9.57838 12.3922C9.19993 11.5871 9.15637 10.739 9.30926 9.94238C9.60465 8.40335 10.6571 6.89601 11.9108 5.6338C13.1935 4.34239 14.8324 3.16033 16.552 2.29323C18.2549 1.43459 20.1542 0.826181 21.9454 0.817955ZM21.94 20.123C19.1856 21.6606 10.4538 26.5335 8.2144 27.7642C7.95631 27.906 7.90216 28.0349 7.88041 28.1823C7.84758 28.4048 7.89692 28.7839 8.14428 29.3052C8.64565 30.3617 9.68945 31.4364 10.5952 31.9364C11.3266 32.3402 12.0837 32.3756 13.0285 32.1181C14.0405 31.8423 15.1137 31.273 16.3807 30.5767C17.1905 30.1317 18.1509 29.4719 19.1732 28.8211C19.655 28.5144 20.153 28.2093 20.6032 27.9777C20.8288 27.8616 21.0719 27.7484 21.3164 27.6613C21.5399 27.5816 21.8742 27.483 22.2509 27.483L22.2875 27.4833C22.6644 27.4897 22.9897 27.5924 23.2139 27.6808C23.46 27.7777 23.6943 27.902 23.9026 28.0248C24.3162 28.2686 24.7594 28.5864 25.173 28.892C26.0643 29.5505 26.8681 30.1823 27.5832 30.5827C28.8291 31.2803 29.8873 31.8541 30.8946 32.1322C31.8306 32.3906 32.5974 32.3586 33.3546 31.9382C34.2945 31.4163 35.3491 30.3355 35.8535 29.2861C36.1027 28.7674 36.1513 28.3934 36.1194 28.1767C36.0987 28.0358 36.0474 27.9077 35.7863 27.7642C34.4529 27.0314 30.8008 25.0159 27.4839 23.1846C25.8251 22.2687 24.2495 21.3986 23.0886 20.7575C22.6362 20.5076 22.2468 20.2925 21.94 20.123ZM21.9602 3.73941C20.8402 3.74456 19.4407 4.14331 17.9906 4.87448C16.5573 5.59718 15.1889 6.58759 14.1434 7.64016C13.0689 8.72193 12.4722 9.73019 12.3307 10.467C12.2652 10.8083 12.3064 11.0383 12.3823 11.1998C12.4559 11.3564 12.6182 11.5688 13.0182 11.7887C16.7287 13.8278 20.3839 15.8683 21.9447 16.7414C21.9827 16.7206 22.0222 16.6991 22.063 16.6768C22.5905 16.3884 23.3453 15.9756 24.2547 15.4779C26.0735 14.4824 28.5103 13.1473 30.9825 11.7887C31.3844 11.5678 31.5465 11.3545 31.6197 11.1977C31.6953 11.0357 31.7361 10.8044 31.6685 10.4606C31.5228 9.71854 30.9167 8.70468 29.8308 7.61983C28.7741 6.56417 27.3933 5.573 25.9496 4.85351C24.4887 4.12543 23.0823 3.73427 21.9602 3.73941Z" fill="white"/>
<path d="M0 18.0179C0 15.146 2.37615 12.8179 5.30728 12.8179C8.23842 12.8179 13.6 15.5075 13.6 18.0179C13.6 20.5282 8.23842 23.2178 5.30728 23.2178V21.7834V20.3489C6.07462 20.3489 7.63051 19.9181 9.06843 19.0873C9.72682 18.7068 10.2089 18.3268 10.4985 18.0179C10.2089 17.7089 9.72682 17.3289 9.06843 16.9484C7.63051 16.1176 6.07462 15.6868 5.30728 15.6868C3.98818 15.6868 2.92472 16.7337 2.92472 18.0179C2.92472 19.3021 3.98818 20.3489 5.30728 20.3489V21.7834V23.2178C2.37615 23.2178 0 20.8897 0 18.0179Z" fill="white"/>
<path d="M44 18.0179C44 15.146 41.6239 12.8179 38.6927 12.8179C35.7616 12.8179 30.4 15.5075 30.4 18.0179C30.4 20.5282 35.7616 23.2178 38.6927 23.2178V20.3489C37.9254 20.3489 36.3695 19.9181 34.9316 19.0873C34.2732 18.7068 33.7911 18.3268 33.5015 18.0179C33.7911 17.7089 34.2732 17.3289 34.9316 16.9484C36.3695 16.1176 37.9254 15.6868 38.6927 15.6868C40.0118 15.6868 41.0753 16.7337 41.0753 18.0179C41.0753 19.3021 40.0118 20.3489 38.6927 20.3489V23.2178C41.6239 23.2178 44 20.8897 44 18.0179Z" fill="white"/>
</svg>
