<svg width="33" height="33" viewBox="0 0 33 33" fill="none" xmlns="http://www.w3.org/2000/svg">
<path d="M33 30.8V33H0V30.8H33ZM33 26.4V28.6H0V26.4H33ZM30.8 3.3C30.8 2.69248 30.3075 2.20003 29.7 2.20003H3.3C2.69249 2.20003 2.19999 2.69249 2.19999 3.3V20.9C2.19999 21.5075 2.69248 22 3.3 22H29.7C30.3075 22 30.8 21.5076 30.8 20.9V3.3ZM6.6 15.4V17.6H8.79999V19.8H4.40001V15.4H6.6ZM28.6 15.4V19.8H24.2V17.6H26.4V15.4H28.6ZM19.8 12.1C19.8 10.2775 18.3225 8.80003 16.5 8.80003C14.6775 8.80003 13.2 10.2775 13.2 12.1C13.2 13.9226 14.6775 15.4 16.5 15.4C18.3225 15.4 19.8 13.9226 19.8 12.1ZM8.79999 4.40001V6.6H6.6V8.80003H4.40001V4.40001H8.79999ZM28.6 4.40001V8.80003H26.4V6.6H24.2V4.40001H28.6ZM22 12.1C22 15.1376 19.5376 17.6 16.5 17.6C13.4624 17.6 11 15.1376 11 12.1C11 9.06246 13.4624 6.6 16.5 6.6C19.5376 6.6 22 9.06246 22 12.1ZM33 20.9C33 22.7226 31.5226 24.2 29.7 24.2H3.3C1.47747 24.2 2.55125e-07 22.7226 0 20.9V3.3C7.22951e-06 1.47747 1.47746 0 3.3 0H29.7C31.5226 3.82731e-07 33 1.47748 33 3.3V20.9Z" fill="white"/>
</svg>
