<svg width="30" height="8" viewBox="0 0 30 8" fill="none" xmlns="http://www.w3.org/2000/svg">
<path d="M7.5 4C7.5 3.20888 7.28007 2.43552 6.86801 1.77772C6.45596 1.11992 5.87029 0.607234 5.18506 0.304483C4.49984 0.00173283 3.74584 -0.0774803 3.01841 0.0768604C2.29098 0.231201 1.6228 0.612165 1.09835 1.17158C0.573904 1.73099 0.216751 2.44372 0.0720569 3.21964C-0.0726377 3.99556 0.0016248 4.79983 0.285453 5.53073C0.569282 6.26164 1.04993 6.88635 1.66661 7.32588C2.2833 7.7654 3.00832 8 3.75 8C4.74456 8 5.69839 7.57857 6.40165 6.82843C7.10491 6.07828 7.5 5.06087 7.5 4ZM26.25 8C25.5083 8 24.7833 7.7654 24.1666 7.32588C23.5499 6.88635 23.0693 6.26164 22.7854 5.53073C22.5016 4.79983 22.4274 3.99556 22.5721 3.21964C22.7167 2.44372 23.0739 1.73099 23.5983 1.17158C24.1228 0.612165 24.791 0.231201 25.5184 0.0768604C26.2458 -0.0774803 26.9998 0.00173283 27.6851 0.304483C28.3703 0.607234 28.956 1.11992 29.368 1.77772C29.7801 2.43552 30 3.20888 30 4C30 5.06087 29.6049 6.07828 28.9016 6.82843C28.1984 7.57857 27.2446 8 26.25 8ZM15 8C14.2583 8 13.5333 7.7654 12.9166 7.32588C12.2999 6.88635 11.8193 6.26164 11.5355 5.53073C11.2516 4.79983 11.1774 3.99556 11.3221 3.21964C11.4668 2.44372 11.8239 1.73099 12.3484 1.17158C12.8728 0.612165 13.541 0.231201 14.2684 0.0768604C14.9958 -0.0774803 15.7498 0.00173283 16.4351 0.304483C17.1203 0.607234 17.706 1.11992 18.118 1.77772C18.5301 2.43552 18.75 3.20888 18.75 4C18.75 5.06087 18.3549 6.07828 17.6516 6.82843C16.9484 7.57857 15.9946 8 15 8Z" fill="white"/>
</svg>
