<svg width="32" height="32" viewBox="0 0 32 32" fill="none" xmlns="http://www.w3.org/2000/svg">
<g clip-path="url(#clip0_121_444)">
<path d="M32 0H0V32H32V0Z" fill="white" fill-opacity="0.01"/>
<path d="M27.9998 4.6665C28.7362 4.6665 29.3331 5.26344 29.3331 5.99982C29.3331 6.7362 28.7362 7.33314 27.9998 7.33314H3.99982C3.26344 7.33314 2.6665 6.7362 2.6665 5.99982C2.6665 5.26344 3.26344 4.6665 3.99982 4.6665H27.9998Z" fill="white"/>
<path d="M28 11.3335C28.7364 11.3335 29.3333 11.9304 29.3333 12.6668C29.3333 13.4032 28.7364 14.0001 28 14.0001H9.33332C8.59694 14.0001 8 13.4032 8 12.6668C8 11.9304 8.59694 11.3335 9.33332 11.3335H28Z" fill="white"/>
<path d="M27.9998 18C28.7362 18 29.3331 18.5969 29.3331 19.3333C29.3331 20.0697 28.7362 20.6666 27.9998 20.6666H3.99982C3.26344 20.6666 2.6665 20.0697 2.6665 19.3333C2.6665 18.5969 3.26344 18 3.99982 18H27.9998Z" fill="white"/>
<path d="M28 24.6665C28.7364 24.6665 29.3333 25.2634 29.3333 25.9998C29.3333 26.7362 28.7364 27.3331 28 27.3331H9.33332C8.59694 27.3331 8 26.7362 8 25.9998C8 25.2634 8.59694 24.6665 9.33332 24.6665H28Z" fill="white"/>
</g>
<defs>
<clipPath id="clip0_121_444">
<rect width="32" height="32" fill="white"/>
</clipPath>
</defs>
</svg>
