<svg width="2037" height="1035" viewBox="0 0 2037 1035" fill="none" xmlns="http://www.w3.org/2000/svg">
<mask id="path-1-inside-1_511_11" fill="white">
<path d="M1712.53 116.689C1737.48 126.481 1760.55 145.789 1779.48 167.826C1798.58 190.069 1814.72 216.542 1825.21 242.638C1835.49 268.181 1841.41 296.012 1836.71 319.981C1834.27 332.366 1828.85 344.361 1819.09 353.891C1809.28 363.479 1796.53 369.159 1781.93 371.288C1739.29 377.505 1697.29 383.572 1665.96 388.085C1660.16 388.92 1654.73 389.697 1649.72 390.417C1661.97 406.001 1677.98 426.367 1694.79 447.738C1730.55 493.216 1769.88 543.215 1784.24 561.395C1795.48 575.636 1798.66 591.903 1794.82 607.613C1791.25 622.227 1782.09 634.558 1772.08 644.131C1752.19 663.143 1722.61 677.313 1697.29 681.121C1669.04 685.368 1646.1 675.73 1627.6 661.336C1609.91 647.58 1595.1 628.528 1582.42 612.19C1574.77 602.347 1558.05 580.984 1538.24 555.726C1506.7 560.528 1479.85 564.592 1467.22 566.434C1446.43 569.465 1422.52 572.898 1400.31 570.671C1377.13 568.347 1354 559.703 1336.61 537.581C1320.95 517.678 1309.42 487.043 1308.17 459.592C1307.54 445.754 1309.42 430.503 1316.87 417.437C1324.88 403.401 1338.35 393.705 1356.36 391.08C1379.22 387.746 1442 378.228 1499.15 369.529C1525.6 365.503 1550.83 361.656 1570.28 358.686C1567.29 354.844 1564.06 350.693 1560.62 346.284C1541.15 321.315 1515.08 287.994 1488.68 254.561C1479.57 243.024 1474.21 230.188 1473.64 216.533C1473.07 202.959 1477.31 190.547 1483.98 179.888C1496.9 159.26 1520.16 143.11 1544.99 131.58C1570.37 119.8 1600.09 111.585 1629.09 108.43C1657.83 105.305 1687.72 106.952 1712.53 116.689ZM1682.82 533.6C1662.87 536.663 1635.83 540.813 1607.46 545.157C1600.72 546.189 1593.9 547.229 1587.08 548.272C1600.17 564.981 1610.75 578.503 1616.41 585.793C1629.76 602.979 1641.35 617.502 1654.02 627.364C1665.88 636.587 1677.26 640.61 1690.89 638.559C1707.46 636.069 1728.88 625.888 1742.33 613.021C1748.99 606.655 1752.09 601.164 1753.01 597.392C1753.67 594.715 1753.58 592.029 1750.46 588.067C1741.98 577.336 1724.85 555.571 1704.9 530.207C1699.32 531.064 1691.79 532.223 1682.82 533.6ZM1434 422.953C1402.72 427.689 1375.93 431.722 1362.57 433.67C1357.62 434.391 1355.67 436.283 1354.26 438.762C1352.29 442.214 1350.75 448.409 1351.17 457.636C1352.02 476.315 1360.46 498.287 1370.44 510.976C1378.67 521.446 1389.55 526.336 1404.61 527.846C1420.64 529.453 1439.22 527.022 1461.01 523.844C1470.19 522.506 1487 519.974 1507.73 516.831C1503.26 511.139 1498.79 505.439 1494.36 499.803C1476.4 476.924 1459.25 455.093 1446.6 438.981C1441.64 432.666 1437.36 427.229 1434 422.953ZM1581.31 400.543C1561.32 403.594 1534.19 407.733 1505.63 412.08C1498.12 413.223 1490.51 414.376 1482.91 415.532C1495.28 431.285 1511.39 451.796 1528.22 473.226C1537.63 485.212 1547.27 497.493 1556.6 509.392C1571.2 507.164 1586.25 504.864 1600.95 502.613C1628.4 498.411 1654.6 494.388 1674.34 491.357C1669.86 485.661 1665.38 479.968 1660.96 474.344C1643.08 451.608 1626.1 430.01 1613.59 414.097C1608.42 407.517 1604.01 401.908 1600.62 397.593C1595.41 398.389 1588.87 399.388 1581.31 400.543ZM1426.3 209.674C1469.4 226.828 1517.18 336.181 1517.18 336.181C1517.06 336.233 1407.3 382.773 1364.23 365.63C1321.13 348.477 1300.1 299.66 1317.24 256.594C1334.38 213.529 1383.21 192.522 1426.3 209.674ZM1866.08 384.726C1909.18 401.879 1930.21 450.696 1913.07 493.762C1895.93 536.827 1847.1 557.834 1804.01 540.681C1760.92 523.532 1713.15 414.226 1713.13 414.175C1713.13 414.175 1822.99 367.573 1866.08 384.726ZM1410.39 249.663C1389.36 241.292 1365.57 251.555 1357.23 272.512C1348.89 293.469 1359.11 317.27 1380.14 325.641C1379.78 325.496 1381.2 326.09 1385.39 326.306C1389.4 326.512 1394.67 326.31 1401.19 325.53C1414.33 323.958 1429.63 320.413 1444.9 315.994C1449.08 314.785 1453.17 313.534 1457.13 312.276C1455.12 308.644 1453 304.921 1450.8 301.173C1442.74 287.468 1434.07 274.38 1425.6 264.211C1421.4 259.161 1417.71 255.389 1414.65 252.782C1411.46 250.064 1410.02 249.517 1410.39 249.663ZM1850.17 424.714C1850.53 424.86 1849.11 424.265 1844.92 424.05C1840.91 423.843 1835.64 424.046 1829.11 424.827C1815.98 426.398 1800.68 429.943 1785.41 434.362C1781.23 435.57 1777.14 436.823 1773.18 438.08C1775.19 441.712 1777.31 445.435 1779.51 449.183C1787.57 462.888 1796.24 475.975 1804.71 486.145C1808.91 491.195 1812.6 494.967 1815.66 497.573C1818.84 500.291 1820.29 500.838 1819.92 500.693C1840.95 509.064 1864.74 498.801 1873.08 477.845C1881.42 456.888 1871.2 433.086 1850.17 424.714ZM1696.8 156.755C1680.74 150.451 1658.5 148.527 1633.75 151.219C1609.25 153.883 1584.1 160.877 1563.12 170.618C1541.6 180.609 1527 192.293 1520.46 202.733C1517.41 207.608 1516.51 211.539 1516.65 214.73C1516.78 217.842 1517.96 222.197 1522.46 227.889C1548.93 261.413 1575.05 294.807 1594.56 319.813C1604.31 332.318 1612.41 342.731 1618.07 350.017C1618.42 350.468 1618.77 350.908 1619.1 351.335C1620.04 351.2 1621.04 351.058 1622.09 350.908C1631.17 349.605 1644.16 347.739 1659.82 345.484C1691.14 340.973 1733.11 334.91 1775.72 328.698C1782.93 327.647 1786.79 325.284 1789.02 323.106C1791.3 320.869 1793.36 317.373 1794.47 311.685C1796.87 299.507 1794.19 280.855 1785.28 258.698C1776.59 237.093 1762.96 214.646 1746.83 195.869C1730.52 176.885 1712.9 163.071 1696.8 156.755Z"/>
</mask>
<path d="M1712.53 116.689C1737.48 126.481 1760.55 145.789 1779.48 167.826C1798.58 190.069 1814.72 216.542 1825.21 242.638C1835.49 268.181 1841.41 296.012 1836.71 319.981C1834.27 332.366 1828.85 344.361 1819.09 353.891C1809.28 363.479 1796.53 369.159 1781.93 371.288C1739.29 377.505 1697.29 383.572 1665.96 388.085C1660.16 388.92 1654.73 389.697 1649.72 390.417C1661.97 406.001 1677.98 426.367 1694.79 447.738C1730.55 493.216 1769.88 543.215 1784.24 561.395C1795.48 575.636 1798.66 591.903 1794.82 607.613C1791.25 622.227 1782.09 634.558 1772.08 644.131C1752.19 663.143 1722.61 677.313 1697.29 681.121C1669.04 685.368 1646.1 675.73 1627.6 661.336C1609.91 647.58 1595.1 628.528 1582.42 612.19C1574.77 602.347 1558.05 580.984 1538.24 555.726C1506.7 560.528 1479.85 564.592 1467.22 566.434C1446.43 569.465 1422.52 572.898 1400.31 570.671C1377.13 568.347 1354 559.703 1336.61 537.581C1320.95 517.678 1309.42 487.043 1308.17 459.592C1307.54 445.754 1309.42 430.503 1316.87 417.437C1324.88 403.401 1338.35 393.705 1356.36 391.08C1379.22 387.746 1442 378.228 1499.15 369.529C1525.6 365.503 1550.83 361.656 1570.28 358.686C1567.29 354.844 1564.06 350.693 1560.62 346.284C1541.15 321.315 1515.08 287.994 1488.68 254.561C1479.57 243.024 1474.21 230.188 1473.64 216.533C1473.07 202.959 1477.31 190.547 1483.98 179.888C1496.9 159.26 1520.16 143.11 1544.99 131.58C1570.37 119.8 1600.09 111.585 1629.09 108.43C1657.83 105.305 1687.72 106.952 1712.53 116.689ZM1682.82 533.6C1662.87 536.663 1635.83 540.813 1607.46 545.157C1600.72 546.189 1593.9 547.229 1587.08 548.272C1600.17 564.981 1610.75 578.503 1616.41 585.793C1629.76 602.979 1641.35 617.502 1654.02 627.364C1665.88 636.587 1677.26 640.61 1690.89 638.559C1707.46 636.069 1728.88 625.888 1742.33 613.021C1748.99 606.655 1752.09 601.164 1753.01 597.392C1753.67 594.715 1753.58 592.029 1750.46 588.067C1741.98 577.336 1724.85 555.571 1704.9 530.207C1699.32 531.064 1691.79 532.223 1682.82 533.6ZM1434 422.953C1402.72 427.689 1375.93 431.722 1362.57 433.67C1357.62 434.391 1355.67 436.283 1354.26 438.762C1352.29 442.214 1350.75 448.409 1351.17 457.636C1352.02 476.315 1360.46 498.287 1370.44 510.976C1378.67 521.446 1389.55 526.336 1404.61 527.846C1420.64 529.453 1439.22 527.022 1461.01 523.844C1470.19 522.506 1487 519.974 1507.73 516.831C1503.26 511.139 1498.79 505.439 1494.36 499.803C1476.4 476.924 1459.25 455.093 1446.6 438.981C1441.64 432.666 1437.36 427.229 1434 422.953ZM1581.31 400.543C1561.32 403.594 1534.19 407.733 1505.63 412.08C1498.12 413.223 1490.51 414.376 1482.91 415.532C1495.28 431.285 1511.39 451.796 1528.22 473.226C1537.63 485.212 1547.27 497.493 1556.6 509.392C1571.2 507.164 1586.25 504.864 1600.95 502.613C1628.4 498.411 1654.6 494.388 1674.34 491.357C1669.86 485.661 1665.38 479.968 1660.96 474.344C1643.08 451.608 1626.1 430.01 1613.59 414.097C1608.42 407.517 1604.01 401.908 1600.62 397.593C1595.41 398.389 1588.87 399.388 1581.31 400.543ZM1426.3 209.674C1469.4 226.828 1517.18 336.181 1517.18 336.181C1517.06 336.233 1407.3 382.773 1364.23 365.63C1321.13 348.477 1300.1 299.66 1317.24 256.594C1334.38 213.529 1383.21 192.522 1426.3 209.674ZM1866.08 384.726C1909.18 401.879 1930.21 450.696 1913.07 493.762C1895.93 536.827 1847.1 557.834 1804.01 540.681C1760.92 523.532 1713.15 414.226 1713.13 414.175C1713.13 414.175 1822.99 367.573 1866.08 384.726ZM1410.39 249.663C1389.36 241.292 1365.57 251.555 1357.23 272.512C1348.89 293.469 1359.11 317.27 1380.14 325.641C1379.78 325.496 1381.2 326.09 1385.39 326.306C1389.4 326.512 1394.67 326.31 1401.19 325.53C1414.33 323.958 1429.63 320.413 1444.9 315.994C1449.08 314.785 1453.17 313.534 1457.13 312.276C1455.12 308.644 1453 304.921 1450.8 301.173C1442.74 287.468 1434.07 274.38 1425.6 264.211C1421.4 259.161 1417.71 255.389 1414.65 252.782C1411.46 250.064 1410.02 249.517 1410.39 249.663ZM1850.17 424.714C1850.53 424.86 1849.11 424.265 1844.92 424.05C1840.91 423.843 1835.64 424.046 1829.11 424.827C1815.98 426.398 1800.68 429.943 1785.41 434.362C1781.23 435.57 1777.14 436.823 1773.18 438.08C1775.19 441.712 1777.31 445.435 1779.51 449.183C1787.57 462.888 1796.24 475.975 1804.71 486.145C1808.91 491.195 1812.6 494.967 1815.66 497.573C1818.84 500.291 1820.29 500.838 1819.92 500.693C1840.95 509.064 1864.74 498.801 1873.08 477.845C1881.42 456.888 1871.2 433.086 1850.17 424.714ZM1696.8 156.755C1680.74 150.451 1658.5 148.527 1633.75 151.219C1609.25 153.883 1584.1 160.877 1563.12 170.618C1541.6 180.609 1527 192.293 1520.46 202.733C1517.41 207.608 1516.51 211.539 1516.65 214.73C1516.78 217.842 1517.96 222.197 1522.46 227.889C1548.93 261.413 1575.05 294.807 1594.56 319.813C1604.31 332.318 1612.41 342.731 1618.07 350.017C1618.42 350.468 1618.77 350.908 1619.1 351.335C1620.04 351.2 1621.04 351.058 1622.09 350.908C1631.17 349.605 1644.16 347.739 1659.82 345.484C1691.14 340.973 1733.11 334.91 1775.72 328.698C1782.93 327.647 1786.79 325.284 1789.02 323.106C1791.3 320.869 1793.36 317.373 1794.47 311.685C1796.87 299.507 1794.19 280.855 1785.28 258.698C1776.59 237.093 1762.96 214.646 1746.83 195.869C1730.52 176.885 1712.9 163.071 1696.8 156.755Z" fill="#FFEE50"/>
<path d="M1712.53 116.689L1713.63 113.897L1713.63 113.897L1712.53 116.689ZM1779.48 167.826L1781.75 165.871L1781.75 165.871L1779.48 167.826ZM1825.21 242.638L1828 241.518L1828 241.518L1825.21 242.638ZM1836.71 319.981L1839.65 320.559L1839.65 320.559L1836.71 319.981ZM1819.09 353.891L1821.19 356.036L1821.19 356.036L1819.09 353.891ZM1781.93 371.288L1782.36 374.257L1782.36 374.257L1781.93 371.288ZM1665.96 388.085L1666.39 391.054L1666.39 391.054L1665.96 388.085ZM1649.72 390.417L1649.3 387.447L1644.15 388.187L1647.36 392.271L1649.72 390.417ZM1694.79 447.738L1697.15 445.884L1697.15 445.884L1694.79 447.738ZM1784.24 561.395L1786.59 559.536L1786.59 559.536L1784.24 561.395ZM1794.82 607.613L1797.74 608.326L1797.74 608.326L1794.82 607.613ZM1772.08 644.131L1774.15 646.299L1774.15 646.299L1772.08 644.131ZM1697.29 681.121L1697.74 684.087L1697.74 684.087L1697.29 681.121ZM1627.6 661.336L1625.75 663.704L1625.75 663.704L1627.6 661.336ZM1582.42 612.19L1580.05 614.03L1580.05 614.03L1582.42 612.19ZM1538.24 555.726L1540.6 553.875L1539.52 552.496L1537.79 552.76L1538.24 555.726ZM1467.22 566.434L1467.66 569.402L1467.66 569.402L1467.22 566.434ZM1400.31 570.671L1400.02 573.656L1400.02 573.656L1400.31 570.671ZM1336.61 537.581L1334.25 539.436L1334.25 539.436L1336.61 537.581ZM1308.17 459.592L1305.17 459.728L1305.17 459.728L1308.17 459.592ZM1316.87 417.437L1314.27 415.951L1314.27 415.951L1316.87 417.437ZM1356.36 391.08L1355.92 388.112L1355.92 388.112L1356.36 391.08ZM1499.15 369.529L1499.6 372.495L1499.6 372.495L1499.15 369.529ZM1570.28 358.686L1570.74 361.651L1575.79 360.879L1572.65 356.842L1570.28 358.686ZM1560.62 346.284L1562.99 344.439L1562.99 344.439L1560.62 346.284ZM1488.68 254.561L1486.32 256.42L1486.32 256.42L1488.68 254.561ZM1473.64 216.533L1470.65 216.659L1470.65 216.659L1473.64 216.533ZM1483.98 179.888L1481.44 178.295L1481.44 178.295L1483.98 179.888ZM1544.99 131.58L1543.73 128.858L1543.73 128.858L1544.99 131.58ZM1629.09 108.43L1628.77 105.448L1628.77 105.448L1629.09 108.43ZM1682.82 533.6L1682.37 530.635L1682.37 530.635L1682.82 533.6ZM1607.46 545.157L1607.92 548.122L1607.92 548.122L1607.46 545.157ZM1587.08 548.272L1586.63 545.306L1581.56 546.082L1584.72 550.122L1587.08 548.272ZM1616.41 585.793L1618.78 583.953L1618.78 583.953L1616.41 585.793ZM1654.02 627.364L1652.18 629.732L1652.18 629.732L1654.02 627.364ZM1690.89 638.559L1691.34 641.526L1691.34 641.526L1690.89 638.559ZM1742.33 613.021L1744.41 615.189L1744.41 615.189L1742.33 613.021ZM1753.01 597.392L1755.93 598.104L1755.93 598.104L1753.01 597.392ZM1750.46 588.067L1752.81 586.208L1752.81 586.208L1750.46 588.067ZM1704.9 530.207L1707.25 528.352L1706.17 526.976L1704.44 527.242L1704.9 530.207ZM1434 422.953L1436.36 421.099L1435.28 419.725L1433.55 419.987L1434 422.953ZM1362.57 433.67L1362.13 430.701L1362.13 430.701L1362.57 433.67ZM1354.26 438.762L1351.65 437.276L1351.65 437.276L1354.26 438.762ZM1351.17 457.636L1348.17 457.772L1348.17 457.772L1351.17 457.636ZM1370.44 510.976L1368.08 512.83L1368.08 512.83L1370.44 510.976ZM1404.61 527.846L1404.31 530.831L1404.31 530.831L1404.61 527.846ZM1461.01 523.844L1461.45 526.813L1461.45 526.813L1461.01 523.844ZM1507.73 516.831L1508.18 519.797L1513.27 519.025L1510.09 514.978L1507.73 516.831ZM1494.36 499.803L1496.72 497.95L1496.72 497.95L1494.36 499.803ZM1446.6 438.981L1444.24 440.835L1444.24 440.835L1446.6 438.981ZM1581.31 400.543L1581.76 403.508L1581.76 403.508L1581.31 400.543ZM1505.63 412.08L1506.08 415.046L1506.08 415.046L1505.63 412.08ZM1482.91 415.532L1482.46 412.566L1477.37 413.339L1480.55 417.385L1482.91 415.532ZM1528.22 473.226L1525.86 475.078L1525.86 475.078L1528.22 473.226ZM1556.6 509.392L1554.24 511.244L1555.32 512.622L1557.06 512.358L1556.6 509.392ZM1600.95 502.613L1601.4 505.579L1601.4 505.579L1600.95 502.613ZM1674.34 491.357L1674.79 494.322L1679.87 493.542L1676.7 489.503L1674.34 491.357ZM1660.96 474.344L1658.6 476.198L1658.6 476.198L1660.96 474.344ZM1613.59 414.097L1615.95 412.243L1615.95 412.243L1613.59 414.097ZM1600.62 397.593L1602.97 395.739L1601.89 394.363L1600.16 394.627L1600.62 397.593ZM1426.3 209.674L1427.41 206.887L1427.41 206.887L1426.3 209.674ZM1517.18 336.181L1518.35 338.943L1521.15 337.759L1519.93 334.98L1517.18 336.181ZM1364.23 365.63L1363.12 368.417L1363.12 368.417L1364.23 365.63ZM1317.24 256.594L1314.45 255.485L1314.45 255.485L1317.24 256.594ZM1866.08 384.726L1867.19 381.938L1867.19 381.938L1866.08 384.726ZM1913.07 493.762L1915.86 494.871L1915.86 494.871L1913.07 493.762ZM1804.01 540.681L1802.9 543.469L1802.9 543.469L1804.01 540.681ZM1713.13 414.175L1711.95 411.414L1709.16 412.598L1710.38 415.377L1713.13 414.175ZM1410.39 249.663L1409.28 252.45L1411.5 246.875L1410.39 249.663ZM1357.23 272.512L1354.44 271.402L1354.44 271.402L1357.23 272.512ZM1380.14 325.641L1379.04 328.429L1381.25 322.854L1380.14 325.641ZM1385.39 326.306L1385.23 329.302L1385.23 329.302L1385.39 326.306ZM1401.19 325.53L1401.55 328.508L1401.55 328.508L1401.19 325.53ZM1444.9 315.994L1445.73 318.876L1445.73 318.876L1444.9 315.994ZM1457.13 312.276L1458.04 315.135L1461.52 314.026L1459.75 310.824L1457.13 312.276ZM1450.8 301.173L1453.39 299.652L1453.39 299.652L1450.8 301.173ZM1425.6 264.211L1427.91 262.292L1427.91 262.292L1425.6 264.211ZM1414.65 252.782L1416.6 250.5L1416.6 250.5L1414.65 252.782ZM1850.17 424.714L1851.27 421.927L1849.06 427.502L1850.17 424.714ZM1844.92 424.05L1845.08 421.054L1845.08 421.054L1844.92 424.05ZM1829.11 424.827L1828.76 421.848L1828.76 421.848L1829.11 424.827ZM1785.41 434.362L1784.57 431.48L1784.57 431.48L1785.41 434.362ZM1773.18 438.08L1772.27 435.221L1768.79 436.33L1770.56 439.532L1773.18 438.08ZM1779.51 449.183L1776.92 450.703L1776.92 450.703L1779.51 449.183ZM1804.71 486.145L1802.4 488.064L1802.4 488.064L1804.71 486.145ZM1815.66 497.573L1813.71 499.856L1813.71 499.856L1815.66 497.573ZM1819.92 500.693L1821.03 497.905L1818.81 503.48L1819.92 500.693ZM1873.08 477.845L1875.87 478.954L1875.87 478.954L1873.08 477.845ZM1696.8 156.755L1697.9 153.962L1697.9 153.962L1696.8 156.755ZM1633.75 151.219L1633.42 148.237L1633.42 148.237L1633.75 151.219ZM1563.12 170.618L1561.85 167.897L1561.85 167.897L1563.12 170.618ZM1520.46 202.733L1517.92 201.141L1517.92 201.141L1520.46 202.733ZM1516.65 214.73L1513.65 214.856L1513.65 214.856L1516.65 214.73ZM1522.46 227.889L1520.1 229.748L1520.1 229.748L1522.46 227.889ZM1594.56 319.813L1592.19 321.658L1592.19 321.658L1594.56 319.813ZM1618.07 350.017L1620.44 348.176L1620.44 348.176L1618.07 350.017ZM1619.1 351.335L1616.73 353.176L1617.8 354.552L1619.53 354.305L1619.1 351.335ZM1622.09 350.908L1622.51 353.877L1622.51 353.877L1622.09 350.908ZM1659.82 345.484L1659.39 342.514L1659.39 342.514L1659.82 345.484ZM1775.72 328.698L1775.28 325.73L1775.28 325.73L1775.72 328.698ZM1789.02 323.106L1791.11 325.251L1791.11 325.251L1789.02 323.106ZM1794.47 311.685L1797.42 312.263L1797.42 312.263L1794.47 311.685ZM1785.28 258.698L1788.06 257.578L1788.06 257.578L1785.28 258.698ZM1746.83 195.869L1749.1 193.914L1749.1 193.914L1746.83 195.869ZM1712.53 116.689L1711.43 119.482C1735.76 129.031 1758.46 147.956 1777.2 169.781L1779.48 167.826L1781.75 165.871C1762.64 143.622 1739.19 123.93 1713.63 113.897L1712.53 116.689ZM1779.48 167.826L1777.2 169.781C1796.1 191.783 1812.06 217.975 1822.43 243.757L1825.21 242.638L1828 241.518C1817.37 215.11 1801.07 188.356 1781.75 165.871L1779.48 167.826ZM1825.21 242.638L1822.43 243.757C1832.61 269.064 1838.31 296.255 1833.76 319.403L1836.71 319.981L1839.65 320.559C1844.52 295.768 1838.36 267.298 1828 241.518L1825.21 242.638ZM1836.71 319.981L1833.76 319.403C1831.42 331.322 1826.23 342.724 1817 351.745L1819.09 353.891L1821.19 356.036C1831.46 345.997 1837.12 333.41 1839.65 320.559L1836.71 319.981ZM1819.09 353.891L1817 351.745C1807.71 360.816 1795.58 366.265 1781.49 368.319L1781.93 371.288L1782.36 374.257C1797.48 372.052 1810.85 366.142 1821.19 356.036L1819.09 353.891ZM1781.93 371.288L1781.49 368.319C1738.86 374.536 1696.86 380.603 1665.53 385.115L1665.96 388.085L1666.39 391.054C1697.72 386.541 1739.72 380.474 1782.36 374.257L1781.93 371.288ZM1665.96 388.085L1665.53 385.115C1659.73 385.951 1654.3 386.727 1649.3 387.447L1649.72 390.417L1650.15 393.386C1655.15 392.667 1660.59 391.889 1666.39 391.054L1665.96 388.085ZM1649.72 390.417L1647.36 392.271C1659.61 407.855 1675.63 428.221 1692.43 449.593L1694.79 447.738L1697.15 445.884C1680.34 424.513 1664.33 404.147 1652.08 388.563L1649.72 390.417ZM1694.79 447.738L1692.43 449.593C1728.19 495.069 1767.52 545.071 1781.88 563.255L1784.24 561.395L1786.59 559.536C1772.24 541.359 1732.91 491.363 1697.15 445.884L1694.79 447.738ZM1784.24 561.395L1781.88 563.255C1792.56 576.779 1795.53 592.1 1791.91 606.901L1794.82 607.613L1797.74 608.326C1801.8 591.707 1798.4 574.493 1786.59 559.536L1784.24 561.395ZM1794.82 607.613L1791.91 606.901C1788.52 620.759 1779.78 632.613 1770 641.962L1772.08 644.131L1774.15 646.299C1784.4 636.504 1793.98 623.696 1797.74 608.326L1794.82 607.613ZM1772.08 644.131L1770 641.962C1750.57 660.546 1721.56 674.438 1696.85 678.154L1697.29 681.121L1697.74 684.087C1723.67 680.188 1753.82 665.74 1774.15 646.299L1772.08 644.131ZM1697.29 681.121L1696.85 678.154C1669.62 682.248 1647.48 673.003 1629.44 658.968L1627.6 661.336L1625.75 663.704C1644.72 678.456 1668.47 688.488 1697.74 684.087L1697.29 681.121ZM1627.6 661.336L1629.44 658.968C1612.1 645.483 1597.52 626.744 1584.79 610.35L1582.42 612.19L1580.05 614.03C1592.69 630.312 1607.72 649.677 1625.75 663.704L1627.6 661.336ZM1582.42 612.19L1584.79 610.35C1577.14 600.501 1560.41 579.131 1540.6 553.875L1538.24 555.726L1535.88 557.577C1555.69 582.837 1572.41 604.194 1580.05 614.03L1582.42 612.19ZM1538.24 555.726L1537.79 552.76C1506.25 557.563 1479.41 561.625 1466.79 563.465L1467.22 566.434L1467.66 569.402C1480.3 567.559 1507.16 563.494 1538.69 558.692L1538.24 555.726ZM1467.22 566.434L1466.79 563.465C1445.93 566.506 1422.39 569.87 1400.61 567.686L1400.31 570.671L1400.02 573.656C1422.65 575.926 1446.93 572.424 1467.66 569.402L1467.22 566.434ZM1400.31 570.671L1400.61 567.686C1378 565.418 1355.72 557.034 1338.96 535.727L1336.61 537.581L1334.25 539.436C1352.28 562.372 1376.27 571.276 1400.02 573.656L1400.31 570.671ZM1336.61 537.581L1338.96 535.727C1323.71 516.327 1312.39 486.295 1311.17 459.455L1308.17 459.592L1305.17 459.728C1306.45 487.791 1318.2 519.03 1334.25 539.436L1336.61 537.581ZM1308.17 459.592L1311.17 459.455C1310.55 445.938 1312.41 431.318 1319.48 418.924L1316.87 417.437L1314.27 415.951C1306.43 429.687 1304.53 445.57 1305.17 459.728L1308.17 459.592ZM1316.87 417.437L1319.48 418.924C1327.03 405.693 1339.7 396.541 1356.79 394.049L1356.36 391.08L1355.92 388.112C1337.01 390.869 1322.73 401.109 1314.27 415.951L1316.87 417.437ZM1356.36 391.08L1356.79 394.049C1379.67 390.713 1442.45 381.193 1499.6 372.495L1499.15 369.529L1498.7 366.563C1441.54 375.263 1378.78 384.779 1355.92 388.112L1356.36 391.08ZM1499.15 369.529L1499.6 372.495C1526.06 368.469 1551.28 364.621 1570.74 361.651L1570.28 358.686L1569.83 355.72C1550.37 358.69 1525.15 362.537 1498.7 366.563L1499.15 369.529ZM1570.28 358.686L1572.65 356.842C1569.66 353.001 1566.43 348.849 1562.99 344.439L1560.62 346.284L1558.25 348.129C1561.69 352.537 1564.92 356.687 1567.92 360.529L1570.28 358.686ZM1560.62 346.284L1562.99 344.439C1543.51 319.468 1517.44 286.142 1491.03 252.702L1488.68 254.561L1486.32 256.42C1512.72 289.847 1538.78 323.163 1558.25 348.129L1560.62 346.284ZM1488.68 254.561L1491.03 252.702C1482.24 241.571 1477.18 229.326 1476.64 216.408L1473.64 216.533L1470.65 216.659C1471.25 231.05 1476.89 244.477 1486.32 256.42L1488.68 254.561ZM1473.64 216.533L1476.64 216.408C1476.1 203.558 1480.1 191.737 1486.53 181.48L1483.98 179.888L1481.44 178.295C1474.51 189.356 1470.05 202.359 1470.65 216.659L1473.64 216.533ZM1483.98 179.888L1486.53 181.48C1499 161.563 1521.65 145.724 1546.26 134.301L1544.99 131.58L1543.73 128.858C1518.66 140.496 1494.8 156.958 1481.44 178.295L1483.98 179.888ZM1544.99 131.58L1546.26 134.301C1571.33 122.663 1600.73 114.533 1629.42 111.413L1629.09 108.43L1628.77 105.448C1599.45 108.637 1569.41 116.937 1543.73 128.858L1544.99 131.58ZM1629.09 108.43L1629.42 111.413C1657.88 108.317 1687.23 109.984 1711.43 119.482L1712.53 116.689L1713.63 113.897C1688.21 103.92 1657.79 102.292 1628.77 105.448L1629.09 108.43ZM1682.82 533.6L1682.37 530.635C1662.42 533.698 1635.38 537.848 1607.01 542.192L1607.46 545.157L1607.92 548.122C1636.29 543.779 1663.33 539.629 1683.28 536.565L1682.82 533.6ZM1607.46 545.157L1607.01 542.192C1600.27 543.224 1593.45 544.263 1586.63 545.306L1587.08 548.272L1587.54 551.237C1594.35 550.195 1601.18 549.155 1607.92 548.122L1607.46 545.157ZM1587.08 548.272L1584.72 550.122C1597.81 566.832 1608.39 580.349 1614.04 587.633L1616.41 585.793L1618.78 583.953C1613.12 576.657 1602.53 563.129 1589.44 546.422L1587.08 548.272ZM1616.41 585.793L1614.04 587.633C1627.34 604.756 1639.15 619.598 1652.18 629.732L1654.02 627.364L1655.87 624.996C1643.54 615.406 1632.17 601.202 1618.78 583.953L1616.41 585.793ZM1654.02 627.364L1652.18 629.732C1664.51 639.32 1676.69 643.729 1691.34 641.526L1690.89 638.559L1690.45 635.593C1677.83 637.49 1667.25 633.855 1655.87 624.996L1654.02 627.364ZM1690.89 638.559L1691.34 641.526C1708.51 638.944 1730.5 628.485 1744.41 615.189L1742.33 613.021L1740.26 610.853C1727.25 623.291 1706.4 633.194 1690.45 635.593L1690.89 638.559ZM1742.33 613.021L1744.41 615.189C1751.3 608.598 1754.82 602.631 1755.93 598.104L1753.01 597.392L1750.1 596.679C1749.36 599.698 1746.68 604.711 1740.26 610.853L1742.33 613.021ZM1753.01 597.392L1755.93 598.104C1756.32 596.492 1756.54 594.661 1756.08 592.567C1755.63 590.501 1754.57 588.433 1752.81 586.208L1750.46 588.067L1748.1 589.927C1749.47 591.663 1750.02 592.919 1750.22 593.855C1750.42 594.764 1750.36 595.615 1750.1 596.679L1753.01 597.392ZM1750.46 588.067L1752.81 586.208C1744.34 575.48 1727.21 553.717 1707.25 528.352L1704.9 530.207L1702.54 532.062C1722.49 557.425 1739.63 579.193 1748.1 589.927L1750.46 588.067ZM1704.9 530.207L1704.44 527.242C1698.86 528.099 1691.33 529.258 1682.37 530.635L1682.82 533.6L1683.28 536.565C1692.24 535.188 1699.78 534.03 1705.35 533.172L1704.9 530.207ZM1434 422.953L1433.55 419.987C1402.27 424.723 1375.49 428.754 1362.13 430.701L1362.57 433.67L1363 436.638C1376.37 434.689 1403.17 430.655 1434.45 425.919L1434 422.953ZM1362.57 433.67L1362.13 430.701C1359.35 431.107 1357.16 431.878 1355.4 433.077C1353.62 434.289 1352.5 435.79 1351.65 437.276L1354.26 438.762L1356.86 440.249C1357.43 439.255 1357.99 438.57 1358.78 438.036C1359.58 437.489 1360.84 436.954 1363 436.638L1362.57 433.67ZM1354.26 438.762L1351.65 437.276C1349.3 441.396 1347.73 448.222 1348.17 457.772L1351.17 457.636L1354.16 457.5C1353.76 448.596 1355.28 443.031 1356.86 440.249L1354.26 438.762ZM1351.17 457.636L1348.17 457.772C1349.05 477.063 1357.71 499.639 1368.08 512.83L1370.44 510.976L1372.8 509.121C1363.21 496.935 1354.98 475.567 1354.16 457.5L1351.17 457.636ZM1370.44 510.976L1368.08 512.83C1376.95 524.109 1388.67 529.263 1404.31 530.831L1404.61 527.846L1404.91 524.861C1390.42 523.408 1380.4 518.783 1372.8 509.121L1370.44 510.976ZM1404.61 527.846L1404.31 530.831C1420.77 532.482 1439.73 529.98 1461.45 526.813L1461.01 523.844L1460.58 520.876C1438.71 524.064 1420.51 526.425 1404.91 524.861L1404.61 527.846ZM1461.01 523.844L1461.45 526.813C1470.63 525.474 1487.46 522.94 1508.18 519.797L1507.73 516.831L1507.28 513.865C1486.55 517.008 1469.75 519.539 1460.58 520.876L1461.01 523.844ZM1507.73 516.831L1510.09 514.978C1505.62 509.287 1501.15 503.587 1496.72 497.95L1494.36 499.803L1492 501.655C1496.43 507.292 1500.9 512.991 1505.37 518.683L1507.73 516.831ZM1494.36 499.803L1496.72 497.95C1478.76 475.071 1461.61 453.24 1448.96 437.128L1446.6 438.981L1444.24 440.835C1456.9 456.946 1474.04 478.777 1492 501.655L1494.36 499.803ZM1446.6 438.981L1448.96 437.128C1443.99 430.812 1439.72 425.376 1436.36 421.099L1434 422.953L1431.64 424.806C1435 429.083 1439.28 434.519 1444.24 440.835L1446.6 438.981ZM1581.31 400.543L1580.85 397.577C1560.87 400.628 1533.74 404.767 1505.17 409.114L1505.63 412.08L1506.08 415.046C1534.64 410.698 1561.77 406.56 1581.76 403.508L1581.31 400.543ZM1505.63 412.08L1505.17 409.114C1497.67 410.257 1490.06 411.409 1482.46 412.566L1482.91 415.532L1483.36 418.498C1490.96 417.342 1498.57 416.188 1506.08 415.046L1505.63 412.08ZM1482.91 415.532L1480.55 417.385C1492.92 433.138 1509.04 453.649 1525.86 475.078L1528.22 473.226L1530.58 471.373C1513.75 449.943 1497.64 429.432 1485.27 413.678L1482.91 415.532ZM1528.22 473.226L1525.86 475.078C1535.27 487.064 1544.91 499.345 1554.24 511.244L1556.6 509.392L1558.96 507.541C1549.63 495.641 1539.99 483.36 1530.58 471.373L1528.22 473.226ZM1556.6 509.392L1557.06 512.358C1571.65 510.129 1586.7 507.829 1601.4 505.579L1600.95 502.613L1600.5 499.648C1585.8 501.898 1570.75 504.198 1556.15 506.427L1556.6 509.392ZM1600.95 502.613L1601.4 505.579C1628.85 501.376 1655.06 497.353 1674.79 494.322L1674.34 491.357L1673.88 488.392C1654.15 491.423 1627.94 495.445 1600.5 499.648L1600.95 502.613ZM1674.34 491.357L1676.7 489.503C1672.22 483.806 1667.74 478.114 1663.31 472.489L1660.96 474.344L1658.6 476.198C1663.02 481.822 1667.5 487.517 1671.98 493.212L1674.34 491.357ZM1660.96 474.344L1663.31 472.489C1645.44 449.754 1628.46 428.156 1615.95 412.243L1613.59 414.097L1611.23 415.951C1623.74 431.865 1640.72 453.463 1658.6 476.198L1660.96 474.344ZM1613.59 414.097L1615.95 412.243C1610.78 405.663 1606.37 400.054 1602.97 395.739L1600.62 397.593L1598.26 399.447C1601.65 403.762 1606.06 409.371 1611.23 415.951L1613.59 414.097ZM1600.62 397.593L1600.16 394.627C1594.95 395.423 1588.41 396.423 1580.85 397.577L1581.31 400.543L1581.76 403.508C1589.32 402.354 1595.86 401.354 1601.07 400.558L1600.62 397.593ZM1426.3 209.674L1425.19 212.461C1435.25 216.464 1445.92 226.03 1456.38 238.597C1466.77 251.087 1476.69 266.212 1485.32 280.881C1493.93 295.538 1501.22 309.672 1506.35 320.146C1508.91 325.382 1510.94 329.698 1512.32 332.702C1513.01 334.205 1513.54 335.378 1513.9 336.175C1514.08 336.573 1514.21 336.877 1514.3 337.08C1514.35 337.182 1514.38 337.258 1514.4 337.309C1514.41 337.334 1514.42 337.353 1514.43 337.365C1514.43 337.371 1514.43 337.376 1514.43 337.379C1514.43 337.38 1514.43 337.381 1514.43 337.382C1514.43 337.382 1514.43 337.382 1517.18 336.181C1519.93 334.98 1519.93 334.979 1519.93 334.978C1519.93 334.977 1519.93 334.975 1519.93 334.973C1519.93 334.97 1519.93 334.964 1519.92 334.957C1519.92 334.943 1519.91 334.922 1519.89 334.895C1519.87 334.84 1519.84 334.759 1519.79 334.654C1519.69 334.442 1519.56 334.13 1519.37 333.723C1519.01 332.909 1518.47 331.717 1517.77 330.195C1516.37 327.152 1514.33 322.791 1511.74 317.507C1506.56 306.942 1499.21 292.665 1490.49 277.84C1481.78 263.026 1471.67 247.596 1460.99 234.758C1450.37 221.996 1438.91 211.461 1427.41 206.887L1426.3 209.674ZM1517.18 336.181L1516.01 333.419C1516.01 333.419 1514.3 334.145 1511.22 335.381C1508.15 336.617 1503.7 338.363 1498.24 340.405C1487.31 344.49 1472.3 349.75 1455.98 354.472C1439.64 359.198 1422.05 363.363 1405.92 365.289C1389.7 367.227 1375.39 366.842 1365.34 362.843L1364.23 365.63L1363.12 368.417C1374.6 372.989 1390.16 373.215 1406.63 371.247C1423.21 369.267 1441.14 365.008 1457.64 360.235C1490.65 350.688 1518.25 338.987 1518.35 338.943L1517.18 336.181ZM1364.23 365.63L1365.34 362.843C1323.78 346.302 1303.5 299.229 1320.03 257.704L1317.24 256.594L1314.45 255.485C1296.7 300.092 1318.49 350.652 1363.12 368.417L1364.23 365.63ZM1317.24 256.594L1320.03 257.704C1336.56 216.179 1383.64 195.921 1425.2 212.461L1426.3 209.674L1427.41 206.887C1382.78 189.122 1332.21 210.878 1314.45 255.485L1317.24 256.594ZM1866.08 384.726L1864.97 387.513C1906.53 404.054 1926.81 451.128 1910.28 492.652L1913.07 493.762L1915.86 494.871C1933.61 450.265 1911.82 399.704 1867.19 381.938L1866.08 384.726ZM1913.07 493.762L1910.28 492.652C1893.75 534.177 1846.67 554.434 1805.11 537.894L1804.01 540.681L1802.9 543.469C1847.53 561.233 1898.1 539.478 1915.86 494.871L1913.07 493.762ZM1804.01 540.681L1805.11 537.894C1795.06 533.893 1784.39 524.33 1773.94 511.768C1763.55 499.281 1753.63 484.161 1745 469.495C1727.76 440.17 1715.87 412.957 1715.88 412.974L1713.13 414.175L1710.38 415.377C1710.41 415.444 1722.41 442.909 1739.83 472.537C1748.54 487.347 1758.64 502.772 1769.33 515.606C1779.95 528.364 1791.41 538.895 1802.9 543.469L1804.01 540.681ZM1713.13 414.175C1714.3 416.937 1714.3 416.937 1714.3 416.937C1714.3 416.937 1714.3 416.936 1714.3 416.936C1714.3 416.934 1714.31 416.933 1714.31 416.93C1714.33 416.925 1714.35 416.917 1714.37 416.906C1714.42 416.884 1714.5 416.852 1714.6 416.809C1714.81 416.723 1715.11 416.595 1715.52 416.428C1716.32 416.095 1717.52 415.607 1719.05 414.99C1722.12 413.757 1726.56 412.013 1732.02 409.972C1742.94 405.889 1757.95 400.626 1774.28 395.9C1790.62 391.17 1808.22 387 1824.36 385.07C1840.59 383.128 1854.92 383.511 1864.97 387.513L1866.08 384.726L1867.19 381.938C1855.7 377.364 1840.13 377.14 1823.65 379.112C1807.06 381.096 1789.12 385.36 1772.61 390.137C1756.09 394.917 1740.94 400.233 1729.92 404.352C1724.4 406.412 1719.92 408.174 1716.81 409.423C1715.26 410.047 1714.05 410.543 1713.22 410.884C1712.81 411.054 1712.5 411.186 1712.28 411.275C1712.18 411.32 1712.1 411.354 1712.04 411.377C1712.01 411.389 1711.99 411.398 1711.98 411.404C1711.97 411.407 1711.97 411.409 1711.96 411.411C1711.96 411.412 1711.96 411.412 1711.96 411.413C1711.96 411.413 1711.95 411.414 1713.13 414.175ZM1410.39 249.663L1411.5 246.875C1388.93 237.892 1363.4 248.905 1354.44 271.402L1357.23 272.512L1360.02 273.621C1367.74 254.205 1389.78 244.691 1409.28 252.45L1410.39 249.663ZM1357.23 272.512L1354.44 271.402C1345.49 293.9 1356.47 319.445 1379.03 328.429L1380.14 325.641L1381.25 322.854C1361.76 315.095 1352.29 293.038 1360.02 273.621L1357.23 272.512ZM1380.14 325.641L1381.25 322.854C1381.2 322.831 1381.23 322.844 1381.25 322.852C1381.26 322.856 1381.29 322.871 1381.34 322.894C1381.37 322.904 1381.42 322.929 1381.48 322.962C1381.5 322.973 1381.71 323.076 1381.93 323.251C1381.99 323.295 1382.39 323.598 1382.7 324.146C1382.86 324.477 1383.08 325.358 1383.08 325.899C1382.95 326.529 1382.37 327.568 1381.97 327.952C1381.2 328.58 1380.36 328.607 1380.32 328.61C1380.09 328.627 1379.92 328.615 1379.85 328.609C1379.69 328.596 1379.57 328.574 1379.54 328.567C1379.49 328.558 1379.45 328.549 1379.43 328.545C1379.39 328.536 1379.23 328.496 1379.46 328.556C1379.67 328.61 1380.01 328.694 1380.5 328.786C1381.48 328.97 1383.02 329.188 1385.23 329.302L1385.39 326.306L1385.54 323.31C1383.57 323.208 1382.31 323.021 1381.62 322.89C1381.27 322.825 1381.07 322.774 1380.98 322.751C1380.96 322.745 1380.94 322.741 1380.92 322.736C1380.92 322.734 1380.9 322.73 1380.89 322.726C1380.88 322.724 1380.87 322.72 1380.85 322.716C1380.84 322.713 1380.8 322.704 1380.76 322.694C1380.74 322.689 1380.7 322.68 1380.64 322.67C1380.61 322.664 1380.49 322.641 1380.33 322.629C1380.26 322.623 1380.09 322.61 1379.86 322.628C1379.82 322.63 1378.98 322.657 1378.2 323.285C1377.81 323.669 1377.23 324.708 1377.1 325.338C1377.1 325.879 1377.32 326.76 1377.48 327.092C1377.78 327.64 1378.19 327.943 1378.25 327.987C1378.47 328.163 1378.68 328.266 1378.7 328.277C1378.76 328.311 1378.82 328.335 1378.84 328.347C1378.89 328.37 1378.93 328.387 1378.95 328.393C1378.98 328.405 1379 328.416 1379.01 328.418C1379.02 328.424 1379.02 328.424 1379.04 328.429L1380.14 325.641ZM1385.39 326.306L1385.23 329.302C1389.46 329.52 1394.91 329.303 1401.55 328.508L1401.19 325.53L1400.84 322.551C1394.43 323.317 1389.33 323.505 1385.54 323.31L1385.39 326.306ZM1401.19 325.53L1401.55 328.508C1414.91 326.91 1430.38 323.318 1445.73 318.876L1444.9 315.994L1444.07 313.112C1428.88 317.508 1413.75 321.006 1400.84 322.551L1401.19 325.53ZM1444.9 315.994L1445.73 318.876C1449.94 317.659 1454.06 316.4 1458.04 315.135L1457.13 312.276L1456.22 309.417C1452.28 310.668 1448.22 311.912 1444.07 313.112L1444.9 315.994ZM1457.13 312.276L1459.75 310.824C1457.73 307.172 1455.61 303.426 1453.39 299.652L1450.8 301.173L1448.21 302.693C1450.4 306.416 1452.5 310.116 1454.5 313.728L1457.13 312.276ZM1450.8 301.173L1453.39 299.652C1445.29 285.875 1436.52 272.635 1427.91 262.292L1425.6 264.211L1423.3 266.13C1431.62 276.126 1440.2 289.06 1448.21 302.693L1450.8 301.173ZM1425.6 264.211L1427.91 262.292C1423.63 257.152 1419.82 253.247 1416.6 250.5L1414.65 252.782L1412.71 255.065C1415.6 257.53 1419.17 261.169 1423.3 266.13L1425.6 264.211ZM1414.65 252.782L1416.6 250.5C1414.91 249.06 1413.64 248.162 1412.81 247.625C1412.39 247.355 1412.08 247.18 1411.89 247.076C1411.69 246.963 1411.83 247.041 1411.86 247.062C1411.88 247.072 1411.92 247.093 1411.96 247.121C1411.99 247.138 1412.09 247.205 1412.21 247.303C1412.27 247.347 1412.4 247.459 1412.55 247.627C1412.58 247.654 1413.17 248.25 1413.3 249.239C1413.33 249.789 1413.04 250.94 1412.7 251.486C1412.33 251.882 1411.57 252.376 1411.22 252.506C1410.62 252.693 1410.11 252.634 1410.04 252.627C1409.76 252.6 1409.54 252.535 1409.52 252.529C1409.45 252.509 1409.39 252.491 1409.37 252.483C1409.32 252.466 1409.28 252.451 1409.27 252.448C1409.25 252.44 1409.22 252.427 1409.28 252.45L1410.39 249.663L1411.5 246.875C1411.49 246.871 1411.48 246.871 1411.47 246.865C1411.47 246.863 1411.44 246.852 1411.41 246.84C1411.39 246.835 1411.35 246.819 1411.3 246.801C1411.27 246.793 1411.22 246.774 1411.15 246.754C1411.12 246.748 1410.91 246.683 1410.62 246.655C1410.55 246.648 1410.04 246.589 1409.44 246.776C1409.1 246.907 1408.34 247.401 1407.97 247.796C1407.63 248.343 1407.34 249.494 1407.36 250.044C1407.49 251.032 1408.08 251.629 1408.11 251.656C1408.26 251.824 1408.4 251.937 1408.45 251.981C1408.58 252.079 1408.68 252.146 1408.71 252.164C1408.75 252.193 1408.79 252.214 1408.81 252.225C1408.85 252.248 1408.88 252.266 1408.89 252.272C1408.9 252.28 1408.92 252.287 1408.92 252.291C1408.94 252.298 1408.95 252.306 1408.96 252.309C1408.97 252.317 1408.99 252.326 1409.01 252.337C1409.09 252.38 1409.27 252.484 1409.57 252.673C1410.16 253.052 1411.21 253.787 1412.71 255.065L1414.65 252.782ZM1850.17 424.714L1849.06 427.502C1849.11 427.525 1849.08 427.511 1849.06 427.503C1849.05 427.5 1849.01 427.484 1848.97 427.462C1848.94 427.451 1848.89 427.427 1848.83 427.393C1848.81 427.383 1848.6 427.28 1848.38 427.105C1848.32 427.061 1847.92 426.758 1847.61 426.211C1847.45 425.88 1847.23 425 1847.23 424.459C1847.36 423.828 1847.94 422.789 1848.33 422.404C1849.11 421.775 1849.95 421.749 1849.99 421.746C1850.22 421.728 1850.39 421.741 1850.46 421.747C1850.62 421.759 1850.74 421.782 1850.77 421.788C1850.82 421.797 1850.86 421.806 1850.88 421.811C1850.92 421.82 1851.08 421.859 1850.85 421.8C1850.64 421.745 1850.3 421.662 1849.81 421.569C1848.83 421.385 1847.29 421.168 1845.08 421.054L1844.92 424.05L1844.77 427.046C1846.74 427.147 1848 427.335 1848.69 427.465C1849.04 427.53 1849.24 427.582 1849.33 427.604C1849.35 427.61 1849.37 427.615 1849.39 427.62C1849.39 427.621 1849.41 427.626 1849.42 427.63C1849.43 427.632 1849.44 427.635 1849.46 427.64C1849.47 427.643 1849.51 427.652 1849.55 427.662C1849.57 427.667 1849.61 427.676 1849.67 427.685C1849.7 427.692 1849.82 427.714 1849.98 427.727C1850.05 427.733 1850.22 427.745 1850.45 427.728C1850.49 427.725 1851.33 427.698 1852.11 427.07C1852.5 426.685 1853.08 425.645 1853.21 425.015C1853.21 424.474 1852.99 423.593 1852.83 423.263C1852.52 422.715 1852.12 422.412 1852.06 422.368C1851.84 422.193 1851.63 422.09 1851.61 422.079C1851.55 422.045 1851.49 422.02 1851.47 422.009C1851.42 421.985 1851.38 421.968 1851.36 421.963C1851.33 421.95 1851.31 421.939 1851.3 421.937C1851.29 421.932 1851.29 421.931 1851.27 421.927L1850.17 424.714ZM1844.92 424.05L1845.08 421.054C1840.85 420.836 1835.4 421.054 1828.76 421.848L1829.11 424.827L1829.47 427.806C1835.88 427.039 1840.98 426.85 1844.77 427.046L1844.92 424.05ZM1829.11 424.827L1828.76 421.848C1815.4 423.446 1799.93 427.038 1784.57 431.48L1785.41 434.362L1786.24 437.243C1801.43 432.848 1816.56 429.35 1829.47 427.806L1829.11 424.827ZM1785.41 434.362L1784.57 431.48C1780.37 432.697 1776.25 433.957 1772.27 435.221L1773.18 438.08L1774.09 440.939C1778.03 439.688 1782.09 438.444 1786.24 437.243L1785.41 434.362ZM1773.18 438.08L1770.56 439.532C1772.58 443.185 1774.7 446.93 1776.92 450.703L1779.51 449.183L1782.1 447.662C1779.91 443.94 1777.81 440.24 1775.81 436.628L1773.18 438.08ZM1779.51 449.183L1776.92 450.703C1785.02 464.481 1793.79 477.72 1802.4 488.064L1804.71 486.145L1807.01 484.226C1798.69 474.23 1790.11 461.296 1782.1 447.662L1779.51 449.183ZM1804.71 486.145L1802.4 488.064C1806.68 493.203 1810.49 497.108 1813.71 499.856L1815.66 497.573L1817.6 495.29C1814.71 492.826 1811.14 489.187 1807.01 484.226L1804.71 486.145ZM1815.66 497.573L1813.71 499.856C1815.4 501.296 1816.66 502.194 1817.5 502.731C1817.92 503 1818.23 503.175 1818.42 503.28C1818.62 503.393 1818.48 503.315 1818.45 503.294C1818.43 503.283 1818.39 503.263 1818.35 503.235C1818.32 503.217 1818.22 503.151 1818.1 503.053C1818.04 503.009 1817.91 502.896 1817.75 502.729C1817.68 502.642 1817.51 502.42 1817.42 502.282C1817.3 502.067 1817.08 501.483 1817 501.112C1816.98 500.56 1817.28 499.408 1817.62 498.862C1817.99 498.469 1818.75 497.977 1819.09 497.847C1819.69 497.662 1820.2 497.721 1820.27 497.728C1820.55 497.756 1820.77 497.821 1820.79 497.827C1820.86 497.846 1820.92 497.865 1820.94 497.873C1820.99 497.89 1821.03 497.905 1821.04 497.908C1821.06 497.915 1821.09 497.928 1821.03 497.906L1819.92 500.693L1818.81 503.48C1818.82 503.484 1818.82 503.485 1818.84 503.491C1818.84 503.492 1818.87 503.504 1818.9 503.515C1818.92 503.52 1818.96 503.536 1819.01 503.554C1819.04 503.563 1819.09 503.581 1819.16 503.601C1819.18 503.608 1819.4 503.672 1819.69 503.7C1819.76 503.707 1820.26 503.766 1820.86 503.581C1821.21 503.451 1821.97 502.96 1822.34 502.566C1822.68 502.02 1822.97 500.868 1822.95 500.316C1822.88 499.945 1822.66 499.361 1822.54 499.146C1822.45 499.008 1822.28 498.786 1822.2 498.699C1822.05 498.531 1821.91 498.419 1821.86 498.374C1821.73 498.276 1821.63 498.209 1821.6 498.191C1821.56 498.163 1821.52 498.141 1821.5 498.13C1821.46 498.107 1821.43 498.09 1821.42 498.084C1821.41 498.075 1821.39 498.069 1821.39 498.065C1821.37 498.058 1821.36 498.05 1821.35 498.047C1821.34 498.038 1821.32 498.029 1821.3 498.018C1821.22 497.976 1821.04 497.872 1820.74 497.683C1820.15 497.303 1819.1 496.569 1817.6 495.29L1815.66 497.573ZM1819.92 500.693L1818.81 503.48C1841.38 512.463 1866.91 501.451 1875.87 478.954L1873.08 477.845L1870.29 476.735C1862.57 496.151 1840.52 505.664 1821.03 497.905L1819.92 500.693ZM1873.08 477.845L1875.87 478.954C1884.82 456.457 1873.84 430.911 1851.27 421.927L1850.17 424.714L1849.06 427.502C1868.55 435.261 1878.02 457.319 1870.29 476.735L1873.08 477.845ZM1696.8 156.755L1697.9 153.962C1681.23 147.419 1658.45 145.514 1633.42 148.237L1633.75 151.219L1634.07 154.201C1658.55 151.539 1680.26 153.483 1695.71 159.547L1696.8 156.755ZM1633.75 151.219L1633.42 148.237C1608.61 150.935 1583.14 158.014 1561.85 167.897L1563.12 170.618L1564.38 173.339C1585.06 163.74 1609.89 156.831 1634.07 154.201L1633.75 151.219ZM1563.12 170.618L1561.85 167.897C1540.1 177.995 1524.9 189.99 1517.92 201.141L1520.46 202.733L1523 204.325C1529.1 194.595 1543.09 183.223 1564.38 173.339L1563.12 170.618ZM1520.46 202.733L1517.92 201.141C1514.61 206.422 1513.49 210.944 1513.65 214.856L1516.65 214.73L1519.64 214.605C1519.54 212.133 1520.21 208.793 1523 204.325L1520.46 202.733ZM1516.65 214.73L1513.65 214.856C1513.81 218.699 1515.28 223.645 1520.1 229.748L1522.46 227.889L1524.81 226.03C1520.64 220.749 1519.74 216.985 1519.64 214.605L1516.65 214.73ZM1522.46 227.889L1520.1 229.748C1546.57 263.266 1572.69 296.654 1592.19 321.658L1594.56 319.813L1596.92 317.968C1577.42 292.959 1551.29 259.56 1524.81 226.03L1522.46 227.889ZM1594.56 319.813L1592.19 321.658C1601.94 334.162 1610.04 344.573 1615.7 351.858L1618.07 350.017L1620.44 348.176C1614.78 340.889 1606.68 330.475 1596.92 317.968L1594.56 319.813ZM1618.07 350.017L1615.7 351.858C1616.07 352.328 1616.39 352.734 1616.73 353.176L1619.1 351.335L1621.47 349.495C1621.15 349.082 1620.78 348.609 1620.44 348.176L1618.07 350.017ZM1619.1 351.335L1619.53 354.305C1620.45 354.173 1621.48 354.025 1622.51 353.877L1622.09 350.908L1621.66 347.938C1620.6 348.091 1619.63 348.228 1618.67 348.366L1619.1 351.335ZM1622.09 350.908L1622.51 353.877C1631.59 352.574 1644.59 350.708 1660.25 348.453L1659.82 345.484L1659.39 342.514C1643.74 344.769 1630.74 346.635 1621.66 347.938L1622.09 350.908ZM1659.82 345.484L1660.25 348.453C1691.57 343.942 1733.54 337.879 1776.15 331.667L1775.72 328.698L1775.28 325.73C1732.68 331.941 1690.71 338.004 1659.39 342.514L1659.82 345.484ZM1775.72 328.698L1776.15 331.667C1783.88 330.54 1788.36 327.944 1791.11 325.251L1789.02 323.106L1786.92 320.96C1785.22 322.624 1781.98 324.754 1775.28 325.73L1775.72 328.698ZM1789.02 323.106L1791.11 325.251C1793.92 322.509 1796.21 318.422 1797.42 312.263L1794.47 311.685L1791.53 311.106C1790.51 316.323 1788.69 319.229 1786.92 320.96L1789.02 323.106ZM1794.47 311.685L1797.42 312.263C1799.97 299.263 1797.07 279.971 1788.06 257.578L1785.28 258.698L1782.5 259.817C1791.31 281.738 1793.76 299.75 1791.53 311.106L1794.47 311.685ZM1785.28 258.698L1788.06 257.578C1779.25 235.66 1765.44 212.933 1749.1 193.914L1746.83 195.869L1744.55 197.823C1760.47 216.359 1773.93 238.525 1782.5 259.817L1785.28 258.698ZM1746.83 195.869L1749.1 193.914C1732.62 174.718 1714.61 160.521 1697.9 153.962L1696.8 156.755L1695.71 159.547C1711.19 165.622 1728.43 179.053 1744.55 197.823L1746.83 195.869Z" fill="#FFEE50" mask="url(#path-1-inside-1_511_11)"/>
<mask id="path-3-outside-2_511_11" maskUnits="userSpaceOnUse" x="0" y="601" width="2037" height="364" fill="black">
<rect fill="white" y="601" width="2037" height="364"/>
<path d="M48.419 920V849.272H253.025C258.358 849.272 262.708 847.728 266.076 844.641C269.444 841.273 271.128 836.642 271.128 830.748C271.128 824.854 269.444 820.223 266.076 816.855C262.708 813.487 258.358 811.803 253.025 811.803H132.619C119.989 811.803 108.201 809.838 97.255 805.909C86.5897 801.699 77.3277 796.086 69.469 789.069C61.891 781.772 55.8567 773.071 51.366 762.967C47.156 752.863 45.051 741.636 45.051 729.287C45.051 716.938 47.156 705.711 51.366 695.607C55.8567 685.222 61.891 676.381 69.469 669.084C77.3277 661.787 86.5897 656.173 97.255 652.244C108.201 648.315 119.989 646.35 132.619 646.35H340.593V716.657H135.987C130.654 716.657 126.304 718.201 122.936 721.288C119.849 724.375 118.305 728.866 118.305 734.76C118.305 740.373 119.849 744.864 122.936 748.232C126.304 751.6 130.654 753.284 135.987 753.284H256.393C269.304 753.284 281.092 755.389 291.757 759.599C302.422 763.528 311.684 769.142 319.543 776.439C327.402 783.736 333.436 792.577 337.646 802.962C342.137 813.066 344.382 824.152 344.382 836.221C344.382 848.851 342.137 860.358 337.646 870.743C333.436 880.847 327.402 889.688 319.543 897.266C311.684 904.563 302.422 910.177 291.757 914.106C281.092 918.035 269.304 920 256.393 920H48.419ZM466.656 920V716.657H366.037V646.35H640.95V716.657H540.331V920H466.656ZM882.364 920L859.63 877.9H731.225L762.379 819.381H828.476L781.745 731.392L681.547 920H600.294L740.066 666.558C747.644 653.086 758.59 646.35 772.904 646.35H789.744C804.058 646.35 815.004 653.086 822.582 666.558L962.354 920H882.364ZM1201.84 920L1089.86 805.067C1086.49 801.138 1083.96 797.629 1082.28 794.542C1080.6 791.174 1079.75 787.245 1079.75 782.754V776.018C1079.75 768.159 1082.98 760.722 1089.44 753.705L1197.63 646.35H1291.94L1160.16 778.544L1298.67 920H1201.84ZM989.66 920V646.35H1063.33V920H989.66ZM1587.46 920L1564.72 877.9H1436.32L1467.47 819.381H1533.57L1486.84 731.392L1386.64 920H1305.39L1445.16 666.558C1452.74 653.086 1463.68 646.35 1478 646.35H1494.84C1509.15 646.35 1520.1 653.086 1527.67 666.558L1667.45 920H1587.46ZM1949.46 920C1939.63 920 1931.92 918.176 1926.3 914.527C1920.69 910.878 1914.37 904.984 1907.36 896.845L1766.32 744.443V920H1694.75V677.504C1694.75 656.735 1706.12 646.35 1728.85 646.35H1746.54C1752.15 646.35 1757.06 646.771 1761.27 647.613C1765.48 648.455 1769.27 649.718 1772.64 651.402C1776.01 653.086 1779.09 655.191 1781.9 657.717C1784.99 660.243 1788.07 663.19 1791.16 666.558L1920.41 805.909V646.35H1991.56V891.793C1991.56 910.598 1982.44 920 1964.19 920H1949.46Z"/>
</mask>
<path d="M48.419 920V849.272H253.025C258.358 849.272 262.708 847.728 266.076 844.641C269.444 841.273 271.128 836.642 271.128 830.748C271.128 824.854 269.444 820.223 266.076 816.855C262.708 813.487 258.358 811.803 253.025 811.803H132.619C119.989 811.803 108.201 809.838 97.255 805.909C86.5897 801.699 77.3277 796.086 69.469 789.069C61.891 781.772 55.8567 773.071 51.366 762.967C47.156 752.863 45.051 741.636 45.051 729.287C45.051 716.938 47.156 705.711 51.366 695.607C55.8567 685.222 61.891 676.381 69.469 669.084C77.3277 661.787 86.5897 656.173 97.255 652.244C108.201 648.315 119.989 646.35 132.619 646.35H340.593V716.657H135.987C130.654 716.657 126.304 718.201 122.936 721.288C119.849 724.375 118.305 728.866 118.305 734.76C118.305 740.373 119.849 744.864 122.936 748.232C126.304 751.6 130.654 753.284 135.987 753.284H256.393C269.304 753.284 281.092 755.389 291.757 759.599C302.422 763.528 311.684 769.142 319.543 776.439C327.402 783.736 333.436 792.577 337.646 802.962C342.137 813.066 344.382 824.152 344.382 836.221C344.382 848.851 342.137 860.358 337.646 870.743C333.436 880.847 327.402 889.688 319.543 897.266C311.684 904.563 302.422 910.177 291.757 914.106C281.092 918.035 269.304 920 256.393 920H48.419ZM466.656 920V716.657H366.037V646.35H640.95V716.657H540.331V920H466.656ZM882.364 920L859.63 877.9H731.225L762.379 819.381H828.476L781.745 731.392L681.547 920H600.294L740.066 666.558C747.644 653.086 758.59 646.35 772.904 646.35H789.744C804.058 646.35 815.004 653.086 822.582 666.558L962.354 920H882.364ZM1201.84 920L1089.86 805.067C1086.49 801.138 1083.96 797.629 1082.28 794.542C1080.6 791.174 1079.75 787.245 1079.75 782.754V776.018C1079.75 768.159 1082.98 760.722 1089.44 753.705L1197.63 646.35H1291.94L1160.16 778.544L1298.67 920H1201.84ZM989.66 920V646.35H1063.33V920H989.66ZM1587.46 920L1564.72 877.9H1436.32L1467.47 819.381H1533.57L1486.84 731.392L1386.64 920H1305.39L1445.16 666.558C1452.74 653.086 1463.68 646.35 1478 646.35H1494.84C1509.15 646.35 1520.1 653.086 1527.67 666.558L1667.45 920H1587.46ZM1949.46 920C1939.63 920 1931.92 918.176 1926.3 914.527C1920.69 910.878 1914.37 904.984 1907.36 896.845L1766.32 744.443V920H1694.75V677.504C1694.75 656.735 1706.12 646.35 1728.85 646.35H1746.54C1752.15 646.35 1757.06 646.771 1761.27 647.613C1765.48 648.455 1769.27 649.718 1772.64 651.402C1776.01 653.086 1779.09 655.191 1781.9 657.717C1784.99 660.243 1788.07 663.19 1791.16 666.558L1920.41 805.909V646.35H1991.56V891.793C1991.56 910.598 1982.44 920 1964.19 920H1949.46Z" fill="white"/>
<path d="M48.419 920H3.419V965H48.419V920ZM48.419 849.272V804.272H3.419V849.272H48.419ZM266.076 844.641L296.484 877.813L297.204 877.152L297.896 876.461L266.076 844.641ZM266.076 816.855L297.896 785.035L297.896 785.035L266.076 816.855ZM97.255 805.909L80.7325 847.766L81.3879 848.025L82.0511 848.263L97.255 805.909ZM69.469 789.069L38.2551 821.483L38.8658 822.072L39.4983 822.636L69.469 789.069ZM51.366 762.967L9.82754 780.275L10.0303 780.761L10.2445 781.243L51.366 762.967ZM51.366 695.607L10.0624 677.746L9.94314 678.022L9.82753 678.299L51.366 695.607ZM69.469 669.084L38.8487 636.108L38.5494 636.386L38.2551 636.67L69.469 669.084ZM97.255 652.244L82.0511 609.89L81.8744 609.954L81.6983 610.019L97.255 652.244ZM340.593 646.35H385.593V601.35H340.593V646.35ZM340.593 716.657V761.657H385.593V716.657H340.593ZM122.936 721.288L92.5284 688.116L91.8076 688.777L91.1162 689.468L122.936 721.288ZM122.936 748.232L89.7641 778.64L90.4248 779.36L91.1162 780.052L122.936 748.232ZM291.757 759.599L275.235 801.456L275.715 801.646L276.2 801.824L291.757 759.599ZM337.646 802.962L295.943 819.869L296.222 820.558L296.524 821.238L337.646 802.962ZM337.646 870.743L296.342 852.882L296.223 853.158L296.108 853.435L337.646 870.743ZM319.543 897.266L350.163 930.242L350.474 929.953L350.779 929.659L319.543 897.266ZM291.757 914.106L307.314 956.331L291.757 914.106ZM48.419 920H93.419V849.272H48.419H3.419V920H48.419ZM48.419 849.272V894.272H253.025V849.272V804.272H48.419V849.272ZM253.025 849.272V894.272C267.611 894.272 283.448 889.762 296.484 877.813L266.076 844.641L235.668 811.469C238.48 808.892 241.787 806.93 245.239 805.705C248.581 804.519 251.346 804.272 253.025 804.272V849.272ZM266.076 844.641L297.896 876.461C311.613 862.744 316.128 845.574 316.128 830.748H271.128H226.128C226.128 829.451 226.311 826.737 227.574 823.263C228.9 819.619 231.128 815.949 234.256 812.821L266.076 844.641ZM271.128 830.748H316.128C316.128 815.922 311.613 798.752 297.896 785.035L266.076 816.855L234.256 848.675C231.128 845.547 228.9 841.877 227.574 838.233C226.311 834.759 226.128 832.045 226.128 830.748H271.128ZM266.076 816.855L297.896 785.035C285.046 772.185 268.732 766.803 253.025 766.803V811.803V856.803C250.922 856.803 247.735 856.461 244.043 855.032C240.251 853.564 236.905 851.324 234.256 848.675L266.076 816.855ZM253.025 811.803V766.803H132.619V811.803V856.803H253.025V811.803ZM132.619 811.803V766.803C124.726 766.803 118.124 765.589 112.459 763.555L97.255 805.909L82.0511 848.263C98.2776 854.088 115.252 856.803 132.619 856.803V811.803ZM97.255 805.909L113.777 764.052C107.612 761.618 103.004 758.684 99.4397 755.502L69.469 789.069L39.4983 822.636C51.6515 833.487 65.5674 841.78 80.7325 847.766L97.255 805.909ZM69.469 789.069L100.683 756.655C97.5004 753.59 94.7413 749.762 92.4875 744.691L51.366 762.967L10.2445 781.243C16.9721 796.38 26.2816 809.953 38.2551 821.483L69.469 789.069ZM51.366 762.967L92.9045 745.659C91.2545 741.699 90.051 736.455 90.051 729.287H45.051H0.0510006C0.0510006 746.818 3.05749 764.027 9.82754 780.275L51.366 762.967ZM45.051 729.287H90.051C90.051 722.119 91.2545 716.875 92.9045 712.915L51.366 695.607L9.82753 678.299C3.05749 694.547 0.0510006 711.756 0.0510006 729.287H45.051ZM51.366 695.607L92.6696 713.468C94.9746 708.138 97.7146 704.357 100.683 701.498L69.469 669.084L38.2551 636.67C26.0674 648.406 16.7388 662.307 10.0624 677.746L51.366 695.607ZM69.469 669.084L100.089 702.06C103.331 699.05 107.391 696.467 112.812 694.469L97.255 652.244L81.6983 610.019C65.7886 615.88 51.3248 624.523 38.8487 636.108L69.469 669.084ZM97.255 652.244L112.459 694.598C118.124 692.564 124.726 691.35 132.619 691.35V646.35V601.35C115.252 601.35 98.2777 604.065 82.0511 609.89L97.255 652.244ZM132.619 646.35V691.35H340.593V646.35V601.35H132.619V646.35ZM340.593 646.35H295.593V716.657H340.593H385.593V646.35H340.593ZM340.593 716.657V671.657H135.987V716.657V761.657H340.593V716.657ZM135.987 716.657V671.657C121.401 671.657 105.564 676.167 92.5284 688.116L122.936 721.288L153.344 754.46C150.532 757.037 147.225 758.999 143.773 760.224C140.431 761.41 137.666 761.657 135.987 761.657V716.657ZM122.936 721.288L91.1162 689.468C76.9729 703.612 73.305 721.227 73.305 734.76H118.305H163.305C163.305 736.505 162.724 745.139 154.756 753.108L122.936 721.288ZM118.305 734.76H73.305C73.305 748.934 77.4236 765.177 89.7641 778.64L122.936 748.232L156.108 717.824C158.908 720.879 160.861 724.341 162.019 727.709C163.129 730.94 163.305 733.472 163.305 734.76H118.305ZM122.936 748.232L91.1162 780.052C103.966 792.902 120.28 798.284 135.987 798.284V753.284V708.284C138.09 708.284 141.277 708.626 144.969 710.055C148.761 711.523 152.107 713.763 154.756 716.412L122.936 748.232ZM135.987 753.284V798.284H256.393V753.284V708.284H135.987V753.284ZM256.393 753.284V798.284C264.356 798.284 270.452 799.568 275.235 801.456L291.757 759.599L308.28 717.742C291.732 711.21 274.251 708.284 256.393 708.284V753.284ZM291.757 759.599L276.2 801.824C281.621 803.822 285.682 806.405 288.923 809.415L319.543 776.439L350.163 743.463C337.687 731.878 323.223 723.235 307.314 717.374L291.757 759.599ZM319.543 776.439L288.923 809.415C291.739 812.029 294.093 815.306 295.943 819.869L337.646 802.962L379.349 786.055C372.779 769.849 363.065 755.443 350.163 743.463L319.543 776.439ZM337.646 802.962L296.524 821.238C298.232 825.08 299.382 829.867 299.382 836.221H344.382H389.382C389.382 818.438 386.042 801.052 378.768 784.686L337.646 802.962ZM344.382 836.221H299.382C299.382 843.423 298.126 848.758 296.342 852.882L337.646 870.743L378.95 888.604C386.148 871.958 389.382 854.279 389.382 836.221H344.382ZM337.646 870.743L296.108 853.435C294.258 857.875 291.724 861.578 288.307 864.873L319.543 897.266L350.779 929.659C363.079 917.798 372.614 903.819 379.184 888.051L337.646 870.743ZM319.543 897.266L288.923 864.29C285.682 867.3 281.621 869.883 276.2 871.881L291.757 914.106L307.314 956.331C323.223 950.47 337.687 941.827 350.163 930.242L319.543 897.266ZM291.757 914.106L276.2 871.881C271.145 873.743 264.709 875 256.393 875V920V965C273.899 965 291.039 962.327 307.314 956.331L291.757 914.106ZM256.393 920V875H48.419V920V965H256.393V920ZM466.656 920H421.656V965H466.656V920ZM466.656 716.657H511.656V671.657H466.656V716.657ZM366.037 716.657H321.037V761.657H366.037V716.657ZM366.037 646.35V601.35H321.037V646.35H366.037ZM640.95 646.35H685.95V601.35H640.95V646.35ZM640.95 716.657V761.657H685.95V716.657H640.95ZM540.331 716.657V671.657H495.331V716.657H540.331ZM540.331 920V965H585.331V920H540.331ZM466.656 920H511.656V716.657H466.656H421.656V920H466.656ZM466.656 716.657V671.657H366.037V716.657V761.657H466.656V716.657ZM366.037 716.657H411.037V646.35H366.037H321.037V716.657H366.037ZM366.037 646.35V691.35H640.95V646.35V601.35H366.037V646.35ZM640.95 646.35H595.95V716.657H640.95H685.95V646.35H640.95ZM640.95 716.657V671.657H540.331V716.657V761.657H640.95V716.657ZM540.331 716.657H495.331V920H540.331H585.331V716.657H540.331ZM540.331 920V875H466.656V920V965H540.331V920ZM882.364 920L842.768 941.382L855.522 965H882.364V920ZM859.63 877.9L899.226 856.518L886.472 832.9H859.63V877.9ZM731.225 877.9L691.503 856.753L656.289 922.9H731.225V877.9ZM762.379 819.381V774.381H735.356L722.657 798.234L762.379 819.381ZM828.476 819.381V864.381H903.328L868.219 798.274L828.476 819.381ZM781.745 731.392L821.488 710.285L781.751 635.464L742.005 710.28L781.745 731.392ZM681.547 920V965H708.597L721.287 941.112L681.547 920ZM600.294 920L560.889 898.268L524.087 965H600.294V920ZM740.066 666.558L700.845 644.496L700.753 644.661L700.661 644.826L740.066 666.558ZM822.582 666.558L861.987 644.826L861.896 644.661L861.803 644.496L822.582 666.558ZM962.354 920V965H1038.56L1001.76 898.268L962.354 920ZM882.364 920L921.96 898.618L899.226 856.518L859.63 877.9L820.034 899.282L842.768 941.382L882.364 920ZM859.63 877.9V832.9H731.225V877.9V922.9H859.63V877.9ZM731.225 877.9L770.947 899.047L802.101 840.528L762.379 819.381L722.657 798.234L691.503 856.753L731.225 877.9ZM762.379 819.381V864.381H828.476V819.381V774.381H762.379V819.381ZM828.476 819.381L868.219 798.274L821.488 710.285L781.745 731.392L742.002 752.499L788.733 840.488L828.476 819.381ZM781.745 731.392L742.005 710.28L641.807 898.888L681.547 920L721.287 941.112L821.485 752.504L781.745 731.392ZM681.547 920V875H600.294V920V965H681.547V920ZM600.294 920L639.699 941.732L779.471 688.29L740.066 666.558L700.661 644.826L560.889 898.268L600.294 920ZM740.066 666.558L779.287 688.62C780.086 687.199 779.778 688.351 777.543 689.727C776.492 690.374 775.39 690.828 774.395 691.094C773.43 691.351 772.872 691.35 772.904 691.35V646.35V601.35C740.802 601.35 715.614 618.241 700.845 644.496L740.066 666.558ZM772.904 646.35V691.35H789.744V646.35V601.35H772.904V646.35ZM789.744 646.35V691.35C789.776 691.35 789.218 691.351 788.253 691.094C787.258 690.828 786.157 690.374 785.105 689.727C782.87 688.351 782.562 687.199 783.361 688.62L822.582 666.558L861.803 644.496C847.034 618.241 821.846 601.35 789.744 601.35V646.35ZM822.582 666.558L783.177 688.29L922.949 941.732L962.354 920L1001.76 898.268L861.987 644.826L822.582 666.558ZM962.354 920V875H882.364V920V965H962.354V920ZM1201.84 920L1169.61 951.404L1182.86 965H1201.84V920ZM1089.86 805.067L1055.69 834.353L1056.63 835.443L1057.63 836.471L1089.86 805.067ZM1082.28 794.542L1042.03 814.667L1042.39 815.385L1042.77 816.09L1082.28 794.542ZM1089.44 753.705L1057.74 721.761L1057.01 722.483L1056.32 723.237L1089.44 753.705ZM1197.63 646.35V601.35H1179.1L1165.94 614.406L1197.63 646.35ZM1291.94 646.35L1323.81 678.119L1400.33 601.35H1291.94V646.35ZM1160.16 778.544L1128.29 746.775L1096.91 778.262L1128.01 810.027L1160.16 778.544ZM1298.67 920V965H1405.72L1330.83 888.517L1298.67 920ZM989.66 920H944.66V965H989.66V920ZM989.66 646.35V601.35H944.66V646.35H989.66ZM1063.33 646.35H1108.33V601.35H1063.33V646.35ZM1063.33 920V965H1108.33V920H1063.33ZM1201.84 920L1234.07 888.596L1122.09 773.663L1089.86 805.067L1057.63 836.471L1169.61 951.404L1201.84 920ZM1089.86 805.067L1124.02 775.781C1123.01 774.599 1122.35 773.742 1121.96 773.195C1121.55 772.63 1121.56 772.574 1121.79 772.994L1082.28 794.542L1042.77 816.09C1046.49 822.896 1051.14 829.043 1055.69 834.353L1089.86 805.067ZM1082.28 794.542L1122.53 774.417C1124.52 778.391 1124.75 781.593 1124.75 782.754H1079.75H1034.75C1034.75 792.897 1036.68 803.957 1042.03 814.667L1082.28 794.542ZM1079.75 782.754H1124.75V776.018H1079.75H1034.75V782.754H1079.75ZM1079.75 776.018H1124.75C1124.75 778.449 1124.22 780.709 1123.46 782.46C1122.75 784.083 1122.14 784.617 1122.55 784.173L1089.44 753.705L1056.32 723.237C1043.94 736.695 1034.75 754.571 1034.75 776.018H1079.75ZM1089.44 753.705L1121.13 785.649L1229.33 678.294L1197.63 646.35L1165.94 614.406L1057.74 721.761L1089.44 753.705ZM1197.63 646.35V691.35H1291.94V646.35V601.35H1197.63V646.35ZM1291.94 646.35L1260.07 614.581L1128.29 746.775L1160.16 778.544L1192.04 810.313L1323.81 678.119L1291.94 646.35ZM1160.16 778.544L1128.01 810.027L1266.52 951.483L1298.67 920L1330.83 888.517L1192.32 747.061L1160.16 778.544ZM1298.67 920V875H1201.84V920V965H1298.67V920ZM989.66 920H1034.66V646.35H989.66H944.66V920H989.66ZM989.66 646.35V691.35H1063.33V646.35V601.35H989.66V646.35ZM1063.33 646.35H1018.33V920H1063.33H1108.33V646.35H1063.33ZM1063.33 920V875H989.66V920V965H1063.33V920ZM1587.46 920L1547.86 941.382L1560.62 965H1587.46V920ZM1564.72 877.9L1604.32 856.518L1591.56 832.9H1564.72V877.9ZM1436.32 877.9L1396.6 856.753L1361.38 922.9H1436.32V877.9ZM1467.47 819.381V774.381H1440.45L1427.75 798.234L1467.47 819.381ZM1533.57 819.381V864.381H1608.42L1573.31 798.274L1533.57 819.381ZM1486.84 731.392L1526.58 710.285L1486.84 635.464L1447.1 710.28L1486.84 731.392ZM1386.64 920V965H1413.69L1426.38 941.112L1386.64 920ZM1305.39 920L1265.98 898.268L1229.18 965H1305.39V920ZM1445.16 666.558L1405.94 644.496L1405.85 644.661L1405.75 644.826L1445.16 666.558ZM1527.67 666.558L1567.08 644.826L1566.99 644.661L1566.9 644.496L1527.67 666.558ZM1667.45 920V965H1743.65L1706.85 898.268L1667.45 920ZM1587.46 920L1627.05 898.618L1604.32 856.518L1564.72 877.9L1525.13 899.282L1547.86 941.382L1587.46 920ZM1564.72 877.9V832.9H1436.32V877.9V922.9H1564.72V877.9ZM1436.32 877.9L1476.04 899.047L1507.19 840.528L1467.47 819.381L1427.75 798.234L1396.6 856.753L1436.32 877.9ZM1467.47 819.381V864.381H1533.57V819.381V774.381H1467.47V819.381ZM1533.57 819.381L1573.31 798.274L1526.58 710.285L1486.84 731.392L1447.1 752.499L1493.83 840.488L1533.57 819.381ZM1486.84 731.392L1447.1 710.28L1346.9 898.888L1386.64 920L1426.38 941.112L1526.58 752.504L1486.84 731.392ZM1386.64 920V875H1305.39V920V965H1386.64V920ZM1305.39 920L1344.79 941.732L1484.56 688.29L1445.16 666.558L1405.75 644.826L1265.98 898.268L1305.39 920ZM1445.16 666.558L1484.38 688.62C1485.18 687.199 1484.87 688.351 1482.64 689.727C1481.58 690.374 1480.48 690.828 1479.49 691.094C1478.52 691.351 1477.96 691.35 1478 691.35V646.35V601.35C1445.9 601.35 1420.71 618.241 1405.94 644.496L1445.16 666.558ZM1478 646.35V691.35H1494.84V646.35V601.35H1478V646.35ZM1494.84 646.35V691.35C1494.87 691.35 1494.31 691.351 1493.35 691.094C1492.35 690.828 1491.25 690.374 1490.2 689.727C1487.96 688.351 1487.65 687.199 1488.45 688.62L1527.67 666.558L1566.9 644.496C1552.13 618.241 1526.94 601.35 1494.84 601.35V646.35ZM1527.67 666.558L1488.27 688.29L1628.04 941.732L1667.45 920L1706.85 898.268L1567.08 644.826L1527.67 666.558ZM1667.45 920V875H1587.46V920V965H1667.45V920ZM1907.36 896.845L1941.44 867.463L1940.92 866.862L1940.39 866.281L1907.36 896.845ZM1766.32 744.443L1799.35 713.879L1721.32 629.562V744.443H1766.32ZM1766.32 920V965H1811.32V920H1766.32ZM1694.75 920H1649.75V965H1694.75V920ZM1761.27 647.613L1752.45 691.739L1752.45 691.739L1761.27 647.613ZM1772.64 651.402L1752.51 691.651L1752.51 691.651L1772.64 651.402ZM1781.9 657.717L1751.8 691.165L1752.58 691.874L1753.4 692.545L1781.9 657.717ZM1791.16 666.558L1757.99 696.966L1758.08 697.063L1758.17 697.159L1791.16 666.558ZM1920.41 805.909L1887.42 836.51L1965.41 920.601V805.909H1920.41ZM1920.41 646.35V601.35H1875.41V646.35H1920.41ZM1991.56 646.35H2036.56V601.35H1991.56V646.35ZM1949.46 920V875C1947.24 875 1946.43 874.785 1946.65 874.838C1946.92 874.903 1948.57 875.333 1950.83 876.797L1926.3 914.527L1901.78 952.257C1917.35 962.381 1934.77 965 1949.46 965V920ZM1926.3 914.527L1950.83 876.797C1950.83 876.798 1950.76 876.756 1950.63 876.66C1950.5 876.565 1950.32 876.425 1950.07 876.23C1949.58 875.837 1948.91 875.265 1948.06 874.473C1946.34 872.864 1944.13 870.584 1941.44 867.463L1907.36 896.845L1873.27 926.227C1881.61 935.893 1891.12 945.326 1901.78 952.257L1926.3 914.527ZM1907.36 896.845L1940.39 866.281L1799.35 713.879L1766.32 744.443L1733.3 775.007L1874.33 927.409L1907.36 896.845ZM1766.32 744.443H1721.32V920H1766.32H1811.32V744.443H1766.32ZM1766.32 920V875H1694.75V920V965H1766.32V920ZM1694.75 920H1739.75V677.504H1694.75H1649.75V920H1694.75ZM1694.75 677.504H1739.75C1739.75 676.298 1739.93 677.18 1739.16 679.298C1738.29 681.673 1736.54 684.7 1733.63 687.361C1727.82 692.667 1723.47 691.35 1728.85 691.35V646.35V601.35C1711.51 601.35 1690.1 605.225 1672.93 620.916C1654.98 637.31 1649.75 659.083 1649.75 677.504H1694.75ZM1728.85 646.35V691.35H1746.54V646.35V601.35H1728.85V646.35ZM1746.54 646.35V691.35C1750.03 691.35 1751.87 691.624 1752.45 691.739L1761.27 647.613L1770.1 603.487C1762.25 601.918 1754.26 601.35 1746.54 601.35V646.35ZM1761.27 647.613L1752.45 691.739C1752.86 691.821 1753.04 691.883 1753.04 691.882C1753.04 691.881 1752.84 691.817 1752.51 691.651L1772.64 651.402L1792.76 611.153C1785.36 607.45 1777.69 605.006 1770.1 603.487L1761.27 647.613ZM1772.64 651.402L1752.51 691.651C1752.4 691.596 1752.27 691.52 1752.13 691.424C1751.99 691.329 1751.88 691.237 1751.8 691.165L1781.9 657.717L1812 624.269C1806.2 619.045 1799.76 614.65 1792.76 611.153L1772.64 651.402ZM1781.9 657.717L1753.4 692.545C1754.61 693.532 1756.15 694.958 1757.99 696.966L1791.16 666.558L1824.33 636.15C1820 631.422 1815.36 626.954 1810.4 622.889L1781.9 657.717ZM1791.16 666.558L1758.17 697.159L1887.42 836.51L1920.41 805.909L1953.4 775.308L1824.16 635.957L1791.16 666.558ZM1920.41 805.909H1965.41V646.35H1920.41H1875.41V805.909H1920.41ZM1920.41 646.35V691.35H1991.56V646.35V601.35H1920.41V646.35ZM1991.56 646.35H1946.56V891.793H1991.56H2036.56V646.35H1991.56ZM1991.56 891.793H1946.56C1946.56 894.595 1945.87 888.369 1952.42 881.614C1959.22 874.606 1966.03 875 1964.19 875V920V965C1980.6 965 2001.09 960.693 2017.01 944.282C2032.69 928.125 2036.56 907.796 2036.56 891.793H1991.56ZM1964.19 920V875H1949.46V920V965H1964.19V920Z" fill="black" mask="url(#path-3-outside-2_511_11)"/>
</svg>
