<svg width="2284" height="1104" viewBox="0 0 2284 1104" fill="none" xmlns="http://www.w3.org/2000/svg">
<rect width="2284" height="1104" fill="black"/>
<g filter="url(#filter0_d_511_27)">
<mask id="path-2-inside-1_511_27" fill="white">
<path d="M1843.53 116.69C1868.48 126.481 1891.55 145.789 1910.48 167.826C1929.58 190.07 1945.72 216.543 1956.21 242.638C1966.49 268.181 1972.41 296.012 1967.71 319.981C1965.27 332.366 1959.85 344.361 1950.09 353.891C1940.28 363.479 1927.53 369.159 1912.93 371.288C1870.29 377.505 1828.29 383.573 1796.96 388.085C1791.16 388.92 1785.73 389.697 1780.72 390.417C1792.97 406.001 1808.98 426.367 1825.79 447.739C1861.55 493.216 1900.88 543.215 1915.24 561.396C1926.48 575.637 1929.66 591.904 1925.82 607.614C1922.25 622.228 1913.09 634.559 1903.08 644.131C1883.19 663.143 1853.61 677.313 1828.29 681.121C1800.04 685.369 1777.1 675.73 1758.6 661.336C1740.91 647.58 1726.1 628.529 1713.42 612.19C1705.77 602.348 1689.05 580.984 1669.24 555.726C1637.7 560.529 1610.85 564.592 1598.22 566.434C1577.43 569.466 1553.52 572.898 1531.31 570.672C1508.13 568.347 1485 559.703 1467.61 537.582C1451.95 517.679 1440.42 487.043 1439.17 459.592C1438.54 445.754 1440.42 430.503 1447.87 417.438C1455.88 403.401 1469.35 393.705 1487.36 391.081C1510.22 387.747 1573 378.228 1630.15 369.529C1656.6 365.503 1681.83 361.656 1701.28 358.686C1698.29 354.844 1695.06 350.693 1691.62 346.284C1672.15 321.316 1646.08 287.995 1619.68 254.562C1610.57 243.024 1605.21 230.189 1604.64 216.534C1604.07 202.959 1608.31 190.547 1614.98 179.888C1627.9 159.26 1651.16 143.11 1675.99 131.58C1701.37 119.8 1731.09 111.585 1760.09 108.431C1788.83 105.305 1818.72 106.953 1843.53 116.69ZM1813.82 533.6C1793.87 536.664 1766.83 540.814 1738.46 545.157C1731.72 546.19 1724.9 547.23 1718.08 548.272C1731.17 564.981 1741.75 578.504 1747.41 585.793C1760.76 602.979 1772.35 617.502 1785.02 627.364C1796.88 636.588 1808.26 640.61 1821.89 638.56C1838.46 636.069 1859.88 625.888 1873.33 613.021C1879.99 606.655 1883.09 601.165 1884.01 597.392C1884.67 594.715 1884.58 592.029 1881.46 588.068C1872.98 577.337 1855.85 555.571 1835.9 530.207C1830.32 531.065 1822.79 532.223 1813.82 533.6ZM1565 422.953C1533.72 427.69 1506.93 431.722 1493.57 433.67C1488.62 434.391 1486.67 436.283 1485.26 438.763C1483.29 442.214 1481.75 448.41 1482.17 457.636C1483.02 476.315 1491.46 498.287 1501.44 510.976C1509.67 521.446 1520.55 526.336 1535.61 527.846C1551.64 529.454 1570.22 527.022 1592.01 523.845C1601.19 522.507 1618 519.974 1638.73 516.831C1634.26 511.14 1629.79 505.44 1625.36 499.803C1607.4 476.925 1590.25 455.094 1577.6 438.982C1572.64 432.666 1568.36 427.23 1565 422.953ZM1712.31 400.543C1692.32 403.594 1665.19 407.733 1636.63 412.081C1629.12 413.223 1621.51 414.376 1613.91 415.532C1626.28 431.286 1642.39 451.796 1659.22 473.226C1668.63 485.213 1678.27 497.493 1687.6 509.393C1702.2 507.164 1717.25 504.864 1731.95 502.614C1759.4 498.411 1785.6 494.388 1805.34 491.357C1800.86 485.662 1796.38 479.968 1791.96 474.344C1774.08 451.609 1757.1 430.011 1744.59 414.097C1739.42 407.517 1735.01 401.908 1731.62 397.593C1726.41 398.389 1719.87 399.389 1712.31 400.543ZM1557.3 209.675C1600.4 226.828 1648.18 336.181 1648.18 336.181C1648.06 336.233 1538.3 382.773 1495.23 365.63C1452.13 348.477 1431.1 299.661 1448.24 256.595C1465.38 213.529 1514.21 192.522 1557.3 209.675ZM1997.08 384.726C2040.18 401.879 2061.21 450.696 2044.07 493.762C2026.93 536.828 1978.1 557.834 1935.01 540.682C1891.92 523.532 1844.15 414.226 1844.13 414.176C1844.13 414.176 1953.99 367.574 1997.08 384.726ZM1541.39 249.663C1520.36 241.292 1496.57 251.555 1488.23 272.512C1479.89 293.469 1490.11 317.27 1511.14 325.642C1510.78 325.496 1512.2 326.091 1516.39 326.306C1520.4 326.513 1525.67 326.31 1532.19 325.53C1545.33 323.959 1560.63 320.413 1575.9 315.994C1580.08 314.786 1584.17 313.534 1588.13 312.276C1586.12 308.644 1584 304.921 1581.8 301.173C1573.74 287.468 1565.07 274.381 1556.6 264.211C1552.4 259.161 1548.71 255.389 1545.65 252.783C1542.46 250.065 1541.02 249.518 1541.39 249.663ZM1981.17 424.715C1981.53 424.86 1980.11 424.266 1975.92 424.05C1971.91 423.843 1966.64 424.047 1960.11 424.827C1946.98 426.399 1931.68 429.943 1916.41 434.362C1912.23 435.571 1908.14 436.823 1904.18 438.081C1906.19 441.713 1908.31 445.435 1910.51 449.183C1918.57 462.888 1927.24 475.975 1935.71 486.145C1939.91 491.195 1943.6 494.967 1946.66 497.573C1949.84 500.292 1951.29 500.839 1950.92 500.693C1971.95 509.064 1995.74 498.802 2004.08 477.845C2012.42 456.888 2002.2 433.086 1981.17 424.715ZM1827.8 156.755C1811.74 150.451 1789.5 148.527 1764.75 151.219C1740.25 153.883 1715.1 160.877 1694.12 170.618C1672.6 180.609 1658 192.293 1651.46 202.733C1648.41 207.608 1647.51 211.539 1647.65 214.731C1647.78 217.842 1648.96 222.198 1653.46 227.889C1679.93 261.413 1706.05 294.807 1725.56 319.814C1735.31 332.319 1743.41 342.731 1749.07 350.017C1749.42 350.469 1749.77 350.908 1750.1 351.336C1751.04 351.2 1752.04 351.058 1753.09 350.908C1762.17 349.605 1775.16 347.739 1790.82 345.484C1822.14 340.974 1864.11 334.91 1906.72 328.699C1913.93 327.648 1917.79 325.284 1920.02 323.106C1922.3 320.869 1924.36 317.373 1925.47 311.685C1927.87 299.507 1925.19 280.855 1916.28 258.698C1907.59 237.093 1893.96 214.646 1877.83 195.869C1861.52 176.886 1843.9 163.071 1827.8 156.755Z"/>
</mask>
<path d="M1843.53 116.69C1868.48 126.481 1891.55 145.789 1910.48 167.826C1929.58 190.07 1945.72 216.543 1956.21 242.638C1966.49 268.181 1972.41 296.012 1967.71 319.981C1965.27 332.366 1959.85 344.361 1950.09 353.891C1940.28 363.479 1927.53 369.159 1912.93 371.288C1870.29 377.505 1828.29 383.573 1796.96 388.085C1791.16 388.92 1785.73 389.697 1780.72 390.417C1792.97 406.001 1808.98 426.367 1825.79 447.739C1861.55 493.216 1900.88 543.215 1915.24 561.396C1926.48 575.637 1929.66 591.904 1925.82 607.614C1922.25 622.228 1913.09 634.559 1903.08 644.131C1883.19 663.143 1853.61 677.313 1828.29 681.121C1800.04 685.369 1777.1 675.73 1758.6 661.336C1740.91 647.58 1726.1 628.529 1713.42 612.19C1705.77 602.348 1689.05 580.984 1669.24 555.726C1637.7 560.529 1610.85 564.592 1598.22 566.434C1577.43 569.466 1553.52 572.898 1531.31 570.672C1508.13 568.347 1485 559.703 1467.61 537.582C1451.95 517.679 1440.42 487.043 1439.17 459.592C1438.54 445.754 1440.42 430.503 1447.87 417.438C1455.88 403.401 1469.35 393.705 1487.36 391.081C1510.22 387.747 1573 378.228 1630.15 369.529C1656.6 365.503 1681.83 361.656 1701.28 358.686C1698.29 354.844 1695.06 350.693 1691.62 346.284C1672.15 321.316 1646.08 287.995 1619.68 254.562C1610.57 243.024 1605.21 230.189 1604.64 216.534C1604.07 202.959 1608.31 190.547 1614.98 179.888C1627.9 159.26 1651.16 143.11 1675.99 131.58C1701.37 119.8 1731.09 111.585 1760.09 108.431C1788.83 105.305 1818.72 106.953 1843.53 116.69ZM1813.82 533.6C1793.87 536.664 1766.83 540.814 1738.46 545.157C1731.72 546.19 1724.9 547.23 1718.08 548.272C1731.17 564.981 1741.75 578.504 1747.41 585.793C1760.76 602.979 1772.35 617.502 1785.02 627.364C1796.88 636.588 1808.26 640.61 1821.89 638.56C1838.46 636.069 1859.88 625.888 1873.33 613.021C1879.99 606.655 1883.09 601.165 1884.01 597.392C1884.67 594.715 1884.58 592.029 1881.46 588.068C1872.98 577.337 1855.85 555.571 1835.9 530.207C1830.32 531.065 1822.79 532.223 1813.82 533.6ZM1565 422.953C1533.72 427.69 1506.93 431.722 1493.57 433.67C1488.62 434.391 1486.67 436.283 1485.26 438.763C1483.29 442.214 1481.75 448.41 1482.17 457.636C1483.02 476.315 1491.46 498.287 1501.44 510.976C1509.67 521.446 1520.55 526.336 1535.61 527.846C1551.64 529.454 1570.22 527.022 1592.01 523.845C1601.19 522.507 1618 519.974 1638.73 516.831C1634.26 511.14 1629.79 505.44 1625.36 499.803C1607.4 476.925 1590.25 455.094 1577.6 438.982C1572.64 432.666 1568.36 427.23 1565 422.953ZM1712.31 400.543C1692.32 403.594 1665.19 407.733 1636.63 412.081C1629.12 413.223 1621.51 414.376 1613.91 415.532C1626.28 431.286 1642.39 451.796 1659.22 473.226C1668.63 485.213 1678.27 497.493 1687.6 509.393C1702.2 507.164 1717.25 504.864 1731.95 502.614C1759.4 498.411 1785.6 494.388 1805.34 491.357C1800.86 485.662 1796.38 479.968 1791.96 474.344C1774.08 451.609 1757.1 430.011 1744.59 414.097C1739.42 407.517 1735.01 401.908 1731.62 397.593C1726.41 398.389 1719.87 399.389 1712.31 400.543ZM1557.3 209.675C1600.4 226.828 1648.18 336.181 1648.18 336.181C1648.06 336.233 1538.3 382.773 1495.23 365.63C1452.13 348.477 1431.1 299.661 1448.24 256.595C1465.38 213.529 1514.21 192.522 1557.3 209.675ZM1997.08 384.726C2040.18 401.879 2061.21 450.696 2044.07 493.762C2026.93 536.828 1978.1 557.834 1935.01 540.682C1891.92 523.532 1844.15 414.226 1844.13 414.176C1844.13 414.176 1953.99 367.574 1997.08 384.726ZM1541.39 249.663C1520.36 241.292 1496.57 251.555 1488.23 272.512C1479.89 293.469 1490.11 317.27 1511.14 325.642C1510.78 325.496 1512.2 326.091 1516.39 326.306C1520.4 326.513 1525.67 326.31 1532.19 325.53C1545.33 323.959 1560.63 320.413 1575.9 315.994C1580.08 314.786 1584.17 313.534 1588.13 312.276C1586.12 308.644 1584 304.921 1581.8 301.173C1573.74 287.468 1565.07 274.381 1556.6 264.211C1552.4 259.161 1548.71 255.389 1545.65 252.783C1542.46 250.065 1541.02 249.518 1541.39 249.663ZM1981.17 424.715C1981.53 424.86 1980.11 424.266 1975.92 424.05C1971.91 423.843 1966.64 424.047 1960.11 424.827C1946.98 426.399 1931.68 429.943 1916.41 434.362C1912.23 435.571 1908.14 436.823 1904.18 438.081C1906.19 441.713 1908.31 445.435 1910.51 449.183C1918.57 462.888 1927.24 475.975 1935.71 486.145C1939.91 491.195 1943.6 494.967 1946.66 497.573C1949.84 500.292 1951.29 500.839 1950.92 500.693C1971.95 509.064 1995.74 498.802 2004.08 477.845C2012.42 456.888 2002.2 433.086 1981.17 424.715ZM1827.8 156.755C1811.74 150.451 1789.5 148.527 1764.75 151.219C1740.25 153.883 1715.1 160.877 1694.12 170.618C1672.6 180.609 1658 192.293 1651.46 202.733C1648.41 207.608 1647.51 211.539 1647.65 214.731C1647.78 217.842 1648.96 222.198 1653.46 227.889C1679.93 261.413 1706.05 294.807 1725.56 319.814C1735.31 332.319 1743.41 342.731 1749.07 350.017C1749.42 350.469 1749.77 350.908 1750.1 351.336C1751.04 351.2 1752.04 351.058 1753.09 350.908C1762.17 349.605 1775.16 347.739 1790.82 345.484C1822.14 340.974 1864.11 334.91 1906.72 328.699C1913.93 327.648 1917.79 325.284 1920.02 323.106C1922.3 320.869 1924.36 317.373 1925.47 311.685C1927.87 299.507 1925.19 280.855 1916.28 258.698C1907.59 237.093 1893.96 214.646 1877.83 195.869C1861.52 176.886 1843.9 163.071 1827.8 156.755Z" fill="#FFEE50"/>
<path d="M1843.53 116.69L1844.63 113.897L1844.63 113.897L1843.53 116.69ZM1910.48 167.826L1912.75 165.872L1912.75 165.872L1910.48 167.826ZM1956.21 242.638L1959 241.518L1959 241.518L1956.21 242.638ZM1967.71 319.981L1970.65 320.56L1970.65 320.56L1967.71 319.981ZM1950.09 353.891L1952.19 356.037L1952.19 356.037L1950.09 353.891ZM1912.93 371.288L1913.36 374.257L1913.36 374.257L1912.93 371.288ZM1796.96 388.085L1797.39 391.055L1797.39 391.055L1796.96 388.085ZM1780.72 390.417L1780.3 387.447L1775.15 388.187L1778.36 392.271L1780.72 390.417ZM1825.79 447.739L1828.15 445.884L1828.15 445.884L1825.79 447.739ZM1915.24 561.396L1917.59 559.537L1917.59 559.537L1915.24 561.396ZM1925.82 607.614L1928.74 608.326L1928.74 608.326L1925.82 607.614ZM1903.08 644.131L1905.15 646.3L1905.15 646.3L1903.08 644.131ZM1828.29 681.121L1828.74 684.088L1828.74 684.088L1828.29 681.121ZM1758.6 661.336L1756.75 663.704L1756.75 663.704L1758.6 661.336ZM1713.42 612.19L1711.05 614.03L1711.05 614.03L1713.42 612.19ZM1669.24 555.726L1671.6 553.875L1670.52 552.497L1668.79 552.76L1669.24 555.726ZM1598.22 566.434L1598.66 569.403L1598.66 569.403L1598.22 566.434ZM1531.31 570.672L1531.02 573.657L1531.02 573.657L1531.31 570.672ZM1467.61 537.582L1465.25 539.436L1465.25 539.436L1467.61 537.582ZM1439.17 459.592L1436.17 459.728L1436.17 459.728L1439.17 459.592ZM1447.87 417.438L1445.27 415.951L1445.27 415.951L1447.87 417.438ZM1487.36 391.081L1486.92 388.112L1486.92 388.112L1487.36 391.081ZM1630.15 369.529L1630.6 372.495L1630.6 372.495L1630.15 369.529ZM1701.28 358.686L1701.74 361.652L1706.79 360.88L1703.65 356.843L1701.28 358.686ZM1691.62 346.284L1693.99 344.439L1693.99 344.439L1691.62 346.284ZM1619.68 254.562L1617.32 256.421L1617.32 256.421L1619.68 254.562ZM1604.64 216.534L1601.65 216.659L1601.65 216.659L1604.64 216.534ZM1614.98 179.888L1612.44 178.296L1612.44 178.296L1614.98 179.888ZM1675.99 131.58L1674.73 128.859L1674.73 128.859L1675.99 131.58ZM1760.09 108.431L1759.77 105.448L1759.77 105.448L1760.09 108.431ZM1813.82 533.6L1813.37 530.635L1813.37 530.635L1813.82 533.6ZM1738.46 545.157L1738.92 548.123L1738.92 548.123L1738.46 545.157ZM1718.08 548.272L1717.63 545.307L1712.56 546.083L1715.72 550.122L1718.08 548.272ZM1747.41 585.793L1749.78 583.953L1749.78 583.953L1747.41 585.793ZM1785.02 627.364L1783.18 629.732L1783.18 629.732L1785.02 627.364ZM1821.89 638.56L1822.34 641.526L1822.34 641.526L1821.89 638.56ZM1873.33 613.021L1875.41 615.19L1875.41 615.19L1873.33 613.021ZM1884.01 597.392L1886.93 598.105L1886.93 598.105L1884.01 597.392ZM1881.46 588.068L1883.81 586.209L1883.81 586.209L1881.46 588.068ZM1835.9 530.207L1838.25 528.352L1837.17 526.976L1835.44 527.242L1835.9 530.207ZM1565 422.953L1567.36 421.1L1566.28 419.725L1564.55 419.987L1565 422.953ZM1493.57 433.67L1493.13 430.702L1493.13 430.702L1493.57 433.67ZM1485.26 438.763L1482.65 437.276L1482.65 437.277L1485.26 438.763ZM1482.17 457.636L1479.17 457.773L1479.17 457.773L1482.17 457.636ZM1501.44 510.976L1499.08 512.831L1499.08 512.831L1501.44 510.976ZM1535.61 527.846L1535.31 530.831L1535.31 530.831L1535.61 527.846ZM1592.01 523.845L1592.45 526.813L1592.45 526.813L1592.01 523.845ZM1638.73 516.831L1639.18 519.797L1644.27 519.026L1641.09 514.979L1638.73 516.831ZM1625.36 499.803L1627.72 497.951L1627.72 497.951L1625.36 499.803ZM1577.6 438.982L1575.24 440.835L1575.24 440.835L1577.6 438.982ZM1712.31 400.543L1712.76 403.509L1712.76 403.509L1712.31 400.543ZM1636.63 412.081L1637.08 415.046L1637.08 415.046L1636.63 412.081ZM1613.91 415.532L1613.46 412.566L1608.37 413.339L1611.55 417.385L1613.91 415.532ZM1659.22 473.226L1656.86 475.078L1656.86 475.078L1659.22 473.226ZM1687.6 509.393L1685.24 511.244L1686.32 512.623L1688.06 512.358L1687.6 509.393ZM1731.95 502.614L1732.4 505.579L1732.4 505.579L1731.95 502.614ZM1805.34 491.357L1805.79 494.323L1810.87 493.542L1807.7 489.503L1805.34 491.357ZM1791.96 474.344L1789.6 476.198L1789.6 476.198L1791.96 474.344ZM1744.59 414.097L1746.95 412.243L1746.95 412.243L1744.59 414.097ZM1731.62 397.593L1733.97 395.739L1732.89 394.363L1731.16 394.628L1731.62 397.593ZM1557.3 209.675L1558.41 206.887L1558.41 206.887L1557.3 209.675ZM1648.18 336.181L1649.35 338.943L1652.15 337.759L1650.93 334.98L1648.18 336.181ZM1495.23 365.63L1494.12 368.418L1494.12 368.418L1495.23 365.63ZM1448.24 256.595L1445.45 255.485L1445.45 255.485L1448.24 256.595ZM1997.08 384.726L1998.19 381.939L1998.19 381.939L1997.08 384.726ZM2044.07 493.762L2046.86 494.872L2046.86 494.872L2044.07 493.762ZM1935.01 540.682L1933.9 543.469L1933.9 543.469L1935.01 540.682ZM1844.13 414.176L1842.95 411.414L1840.16 412.598L1841.38 415.377L1844.13 414.176ZM1541.39 249.663L1540.28 252.45L1542.5 246.876L1541.39 249.663ZM1488.23 272.512L1485.44 271.403L1485.44 271.403L1488.23 272.512ZM1511.14 325.642L1510.04 328.429L1512.25 322.854L1511.14 325.642ZM1516.39 326.306L1516.23 329.302L1516.23 329.302L1516.39 326.306ZM1532.19 325.53L1532.55 328.509L1532.55 328.509L1532.19 325.53ZM1575.9 315.994L1576.73 318.876L1576.73 318.876L1575.9 315.994ZM1588.13 312.276L1589.04 315.135L1592.52 314.026L1590.75 310.824L1588.13 312.276ZM1581.8 301.173L1584.39 299.653L1584.39 299.653L1581.8 301.173ZM1556.6 264.211L1558.91 262.292L1558.91 262.292L1556.6 264.211ZM1545.65 252.783L1547.6 250.5L1547.6 250.5L1545.65 252.783ZM1981.17 424.715L1982.27 421.927L1980.06 427.502L1981.17 424.715ZM1975.92 424.05L1976.08 421.054L1976.08 421.054L1975.92 424.05ZM1960.11 424.827L1959.76 421.848L1959.76 421.848L1960.11 424.827ZM1916.41 434.362L1915.57 431.48L1915.57 431.48L1916.41 434.362ZM1904.18 438.081L1903.27 435.222L1899.79 436.331L1901.56 439.533L1904.18 438.081ZM1910.51 449.183L1907.92 450.704L1907.92 450.704L1910.51 449.183ZM1935.71 486.145L1933.4 488.064L1933.4 488.064L1935.71 486.145ZM1946.66 497.573L1944.71 499.856L1944.71 499.856L1946.66 497.573ZM1950.92 500.693L1952.03 497.906L1949.81 503.48L1950.92 500.693ZM2004.08 477.845L2006.87 478.955L2006.87 478.955L2004.08 477.845ZM1827.8 156.755L1828.9 153.962L1828.9 153.962L1827.8 156.755ZM1764.75 151.219L1764.42 148.237L1764.42 148.237L1764.75 151.219ZM1694.12 170.618L1692.85 167.897L1692.85 167.897L1694.12 170.618ZM1651.46 202.733L1648.92 201.141L1648.92 201.141L1651.46 202.733ZM1647.65 214.731L1644.65 214.856L1644.65 214.856L1647.65 214.731ZM1653.46 227.889L1651.1 229.748L1651.1 229.748L1653.46 227.889ZM1725.56 319.814L1723.19 321.659L1723.19 321.659L1725.56 319.814ZM1749.07 350.017L1751.44 348.176L1751.44 348.176L1749.07 350.017ZM1750.1 351.336L1747.73 353.176L1748.8 354.553L1750.53 354.305L1750.1 351.336ZM1753.09 350.908L1753.51 353.878L1753.51 353.878L1753.09 350.908ZM1790.82 345.484L1790.39 342.515L1790.39 342.515L1790.82 345.484ZM1906.72 328.699L1906.28 325.73L1906.28 325.73L1906.72 328.699ZM1920.02 323.106L1922.11 325.252L1922.11 325.252L1920.02 323.106ZM1925.47 311.685L1928.42 312.263L1928.42 312.263L1925.47 311.685ZM1916.28 258.698L1919.06 257.579L1919.06 257.579L1916.28 258.698ZM1877.83 195.869L1880.1 193.914L1880.1 193.914L1877.83 195.869ZM1843.53 116.69L1842.43 119.482C1866.76 129.031 1889.46 147.957 1908.2 169.781L1910.48 167.826L1912.75 165.872C1893.64 143.622 1870.19 123.93 1844.63 113.897L1843.53 116.69ZM1910.48 167.826L1908.2 169.781C1927.1 191.783 1943.06 217.975 1953.43 243.757L1956.21 242.638L1959 241.518C1948.37 215.11 1932.07 188.357 1912.75 165.872L1910.48 167.826ZM1956.21 242.638L1953.43 243.757C1963.61 269.065 1969.31 296.256 1964.76 319.403L1967.71 319.981L1970.65 320.56C1975.52 295.769 1969.36 267.298 1959 241.518L1956.21 242.638ZM1967.71 319.981L1964.76 319.403C1962.42 331.323 1957.23 342.725 1948 351.745L1950.09 353.891L1952.19 356.037C1962.46 345.998 1968.12 333.41 1970.65 320.56L1967.71 319.981ZM1950.09 353.891L1948 351.745C1938.71 360.816 1926.58 366.265 1912.49 368.32L1912.93 371.288L1913.36 374.257C1928.48 372.053 1941.85 366.142 1952.19 356.037L1950.09 353.891ZM1912.93 371.288L1912.49 368.32C1869.86 374.536 1827.86 380.603 1796.53 385.116L1796.96 388.085L1797.39 391.055C1828.72 386.542 1870.72 380.474 1913.36 374.257L1912.93 371.288ZM1796.96 388.085L1796.53 385.116C1790.73 385.951 1785.3 386.727 1780.3 387.447L1780.72 390.417L1781.15 393.386C1786.15 392.667 1791.59 391.889 1797.39 391.055L1796.96 388.085ZM1780.72 390.417L1778.36 392.271C1790.61 407.855 1806.63 428.222 1823.43 449.593L1825.79 447.739L1828.15 445.884C1811.34 424.513 1795.33 404.147 1783.08 388.563L1780.72 390.417ZM1825.79 447.739L1823.43 449.593C1859.19 495.069 1898.52 545.071 1912.88 563.255L1915.24 561.396L1917.59 559.537C1903.24 541.359 1863.91 491.363 1828.15 445.884L1825.79 447.739ZM1915.24 561.396L1912.88 563.255C1923.56 576.78 1926.53 592.1 1922.91 606.901L1925.82 607.614L1928.74 608.326C1932.8 591.708 1929.4 574.494 1917.59 559.537L1915.24 561.396ZM1925.82 607.614L1922.91 606.901C1919.52 620.759 1910.78 632.613 1901 641.963L1903.08 644.131L1905.15 646.3C1915.4 636.504 1924.98 623.696 1928.74 608.326L1925.82 607.614ZM1903.08 644.131L1901 641.963C1881.57 660.547 1852.56 674.439 1827.85 678.154L1828.29 681.121L1828.74 684.088C1854.67 680.188 1884.82 665.74 1905.15 646.3L1903.08 644.131ZM1828.29 681.121L1827.85 678.154C1800.62 682.248 1778.48 673.004 1760.44 658.968L1758.6 661.336L1756.75 663.704C1775.72 678.456 1799.47 688.489 1828.74 684.088L1828.29 681.121ZM1758.6 661.336L1760.44 658.968C1743.1 645.483 1728.52 626.745 1715.79 610.35L1713.42 612.19L1711.05 614.03C1723.69 630.312 1738.72 649.678 1756.75 663.704L1758.6 661.336ZM1713.42 612.19L1715.79 610.35C1708.14 600.501 1691.41 579.131 1671.6 553.875L1669.24 555.726L1666.88 557.577C1686.69 582.837 1703.41 604.195 1711.05 614.03L1713.42 612.19ZM1669.24 555.726L1668.79 552.76C1637.25 557.563 1610.41 561.625 1597.79 563.465L1598.22 566.434L1598.66 569.403C1611.3 567.559 1638.16 563.494 1669.69 558.692L1669.24 555.726ZM1598.22 566.434L1597.79 563.465C1576.93 566.507 1553.39 569.87 1531.61 567.687L1531.31 570.672L1531.02 573.657C1553.65 575.926 1577.93 572.425 1598.66 569.403L1598.22 566.434ZM1531.31 570.672L1531.61 567.687C1509 565.419 1486.72 557.035 1469.96 535.727L1467.61 537.582L1465.25 539.436C1483.28 562.372 1507.27 571.276 1531.02 573.657L1531.31 570.672ZM1467.61 537.582L1469.96 535.727C1454.71 516.327 1443.39 486.296 1442.17 459.456L1439.17 459.592L1436.17 459.728C1437.45 487.791 1449.2 519.03 1465.25 539.436L1467.61 537.582ZM1439.17 459.592L1442.17 459.456C1441.55 445.938 1443.41 431.319 1450.48 418.924L1447.87 417.438L1445.27 415.951C1437.43 429.687 1435.53 445.57 1436.17 459.728L1439.17 459.592ZM1447.87 417.438L1450.48 418.924C1458.03 405.693 1470.7 396.541 1487.79 394.049L1487.36 391.081L1486.92 388.112C1468.01 390.869 1453.73 401.109 1445.27 415.951L1447.87 417.438ZM1487.36 391.081L1487.79 394.049C1510.67 390.714 1573.45 381.193 1630.6 372.495L1630.15 369.529L1629.7 366.563C1572.54 375.263 1509.78 384.78 1486.92 388.112L1487.36 391.081ZM1630.15 369.529L1630.6 372.495C1657.06 368.469 1682.28 364.622 1701.74 361.652L1701.28 358.686L1700.83 355.721C1681.37 358.69 1656.15 362.537 1629.7 366.563L1630.15 369.529ZM1701.28 358.686L1703.65 356.843C1700.66 353.001 1697.43 348.849 1693.99 344.439L1691.62 346.284L1689.25 348.129C1692.69 352.537 1695.92 356.687 1698.92 360.53L1701.28 358.686ZM1691.62 346.284L1693.99 344.439C1674.51 319.468 1648.44 286.142 1622.03 252.702L1619.68 254.562L1617.32 256.421C1643.72 289.848 1669.78 323.164 1689.25 348.129L1691.62 346.284ZM1619.68 254.562L1622.03 252.702C1613.24 241.571 1608.18 229.327 1607.64 216.408L1604.64 216.534L1601.65 216.659C1602.25 231.051 1607.89 244.477 1617.32 256.421L1619.68 254.562ZM1604.64 216.534L1607.64 216.408C1607.1 203.558 1611.1 191.737 1617.53 181.48L1614.98 179.888L1612.44 178.296C1605.51 189.357 1601.05 202.36 1601.65 216.659L1604.64 216.534ZM1614.98 179.888L1617.53 181.48C1630 161.563 1652.65 145.724 1677.26 134.301L1675.99 131.58L1674.73 128.859C1649.66 140.496 1625.8 156.958 1612.44 178.296L1614.98 179.888ZM1675.99 131.58L1677.26 134.301C1702.33 122.663 1731.73 114.533 1760.42 111.413L1760.09 108.431L1759.77 105.448C1730.45 108.637 1700.41 116.937 1674.73 128.859L1675.99 131.58ZM1760.09 108.431L1760.42 111.413C1788.88 108.318 1818.23 109.985 1842.43 119.482L1843.53 116.69L1844.63 113.897C1819.21 103.921 1788.79 102.292 1759.77 105.448L1760.09 108.431ZM1813.82 533.6L1813.37 530.635C1793.42 533.699 1766.38 537.848 1738.01 542.192L1738.46 545.157L1738.92 548.123C1767.29 543.779 1794.33 539.629 1814.28 536.565L1813.82 533.6ZM1738.46 545.157L1738.01 542.192C1731.27 543.224 1724.45 544.264 1717.63 545.307L1718.08 548.272L1718.54 551.238C1725.35 550.195 1732.18 549.155 1738.92 548.123L1738.46 545.157ZM1718.08 548.272L1715.72 550.122C1728.81 566.832 1739.39 580.35 1745.04 587.633L1747.41 585.793L1749.78 583.953C1744.12 576.658 1733.53 563.13 1720.44 546.422L1718.08 548.272ZM1747.41 585.793L1745.04 587.633C1758.34 604.756 1770.15 619.598 1783.18 629.732L1785.02 627.364L1786.87 624.996C1774.54 615.407 1763.17 601.202 1749.78 583.953L1747.41 585.793ZM1785.02 627.364L1783.18 629.732C1795.51 639.32 1807.69 643.729 1822.34 641.526L1821.89 638.56L1821.45 635.593C1808.83 637.491 1798.25 633.856 1786.87 624.996L1785.02 627.364ZM1821.89 638.56L1822.34 641.526C1839.51 638.944 1861.5 628.485 1875.41 615.19L1873.33 613.021L1871.26 610.853C1858.25 623.291 1837.4 633.194 1821.45 635.593L1821.89 638.56ZM1873.33 613.021L1875.41 615.19C1882.3 608.599 1885.82 602.632 1886.93 598.105L1884.01 597.392L1881.1 596.679C1880.36 599.698 1877.68 604.712 1871.26 610.853L1873.33 613.021ZM1884.01 597.392L1886.93 598.105C1887.32 596.492 1887.54 594.661 1887.08 592.568C1886.63 590.502 1885.57 588.433 1883.81 586.209L1881.46 588.068L1879.1 589.927C1880.47 591.664 1881.02 592.919 1881.22 593.855C1881.42 594.765 1881.36 595.615 1881.1 596.679L1884.01 597.392ZM1881.46 588.068L1883.81 586.209C1875.34 575.48 1858.21 553.717 1838.25 528.352L1835.9 530.207L1833.54 532.062C1853.49 557.426 1870.63 579.193 1879.1 589.927L1881.46 588.068ZM1835.9 530.207L1835.44 527.242C1829.86 528.1 1822.33 529.258 1813.37 530.635L1813.82 533.6L1814.28 536.565C1823.24 535.188 1830.78 534.03 1836.35 533.173L1835.9 530.207ZM1565 422.953L1564.55 419.987C1533.27 424.724 1506.49 428.755 1493.13 430.702L1493.57 433.67L1494 436.639C1507.37 434.689 1534.17 430.655 1565.45 425.919L1565 422.953ZM1493.57 433.67L1493.13 430.702C1490.35 431.107 1488.16 431.879 1486.4 433.077C1484.62 434.29 1483.5 435.79 1482.65 437.276L1485.26 438.763L1487.86 440.249C1488.43 439.256 1488.99 438.57 1489.78 438.037C1490.58 437.489 1491.84 436.954 1494 436.639L1493.57 433.67ZM1485.26 438.763L1482.65 437.277C1480.3 441.397 1478.73 448.223 1479.17 457.773L1482.17 457.636L1485.16 457.5C1484.76 448.597 1486.28 443.031 1487.86 440.249L1485.26 438.763ZM1482.17 457.636L1479.17 457.773C1480.05 477.063 1488.71 499.639 1499.08 512.831L1501.44 510.976L1503.8 509.122C1494.21 496.936 1485.98 475.567 1485.16 457.5L1482.17 457.636ZM1501.44 510.976L1499.08 512.831C1507.95 524.109 1519.67 529.264 1535.31 530.831L1535.61 527.846L1535.91 524.861C1521.42 523.408 1511.4 518.784 1503.8 509.122L1501.44 510.976ZM1535.61 527.846L1535.31 530.831C1551.77 532.482 1570.73 529.98 1592.45 526.813L1592.01 523.845L1591.58 520.876C1569.71 524.064 1551.51 526.425 1535.91 524.861L1535.61 527.846ZM1592.01 523.845L1592.45 526.813C1601.63 525.474 1618.46 522.94 1639.18 519.797L1638.73 516.831L1638.28 513.865C1617.55 517.008 1600.75 519.54 1591.58 520.876L1592.01 523.845ZM1638.73 516.831L1641.09 514.979C1636.62 509.287 1632.15 503.587 1627.72 497.951L1625.36 499.803L1623 501.656C1627.43 507.292 1631.9 512.992 1636.37 518.683L1638.73 516.831ZM1625.36 499.803L1627.72 497.951C1609.76 475.072 1592.61 453.24 1579.96 437.128L1577.6 438.982L1575.24 440.835C1587.9 456.947 1605.04 478.778 1623 501.656L1625.36 499.803ZM1577.6 438.982L1579.96 437.128C1574.99 430.812 1570.72 425.376 1567.36 421.1L1565 422.953L1562.64 424.807C1566 429.083 1570.28 434.519 1575.24 440.835L1577.6 438.982ZM1712.31 400.543L1711.85 397.577C1691.87 400.629 1664.74 404.767 1636.17 409.115L1636.63 412.081L1637.08 415.046C1665.64 410.699 1692.77 406.56 1712.76 403.509L1712.31 400.543ZM1636.63 412.081L1636.17 409.115C1628.67 410.257 1621.06 411.41 1613.46 412.566L1613.91 415.532L1614.36 418.498C1621.96 417.342 1629.57 416.189 1637.08 415.046L1636.63 412.081ZM1613.91 415.532L1611.55 417.385C1623.92 433.139 1640.04 453.649 1656.86 475.078L1659.22 473.226L1661.58 471.373C1644.75 449.943 1628.64 429.432 1616.27 413.679L1613.91 415.532ZM1659.22 473.226L1656.86 475.078C1666.27 487.065 1675.91 499.345 1685.24 511.244L1687.6 509.393L1689.96 507.541C1680.63 495.641 1670.99 483.36 1661.58 471.373L1659.22 473.226ZM1687.6 509.393L1688.06 512.358C1702.65 510.13 1717.7 507.83 1732.4 505.579L1731.95 502.614L1731.5 499.648C1716.8 501.899 1701.75 504.199 1687.15 506.427L1687.6 509.393ZM1731.95 502.614L1732.4 505.579C1759.85 501.376 1786.06 497.354 1805.79 494.323L1805.34 491.357L1804.88 488.392C1785.15 491.423 1758.94 495.446 1731.5 499.648L1731.95 502.614ZM1805.34 491.357L1807.7 489.503C1803.22 483.806 1798.74 478.114 1794.31 472.49L1791.96 474.344L1789.6 476.198C1794.02 481.822 1798.5 487.518 1802.98 493.212L1805.34 491.357ZM1791.96 474.344L1794.31 472.49C1776.44 449.755 1759.46 428.157 1746.95 412.243L1744.59 414.097L1742.23 415.951C1754.74 431.865 1771.72 453.463 1789.6 476.198L1791.96 474.344ZM1744.59 414.097L1746.95 412.243C1741.78 405.663 1737.37 400.054 1733.97 395.739L1731.62 397.593L1729.26 399.447C1732.65 403.762 1737.06 409.371 1742.23 415.951L1744.59 414.097ZM1731.62 397.593L1731.16 394.628C1725.95 395.423 1719.41 396.423 1711.85 397.577L1712.31 400.543L1712.76 403.509C1720.32 402.354 1726.86 401.354 1732.07 400.559L1731.62 397.593ZM1557.3 209.675L1556.19 212.462C1566.25 216.464 1576.92 226.031 1587.38 238.597C1597.77 251.087 1607.69 266.212 1616.32 280.881C1624.93 295.538 1632.22 309.672 1637.35 320.147C1639.91 325.382 1641.94 329.698 1643.32 332.703C1644.01 334.205 1644.54 335.379 1644.9 336.175C1645.08 336.573 1645.21 336.877 1645.3 337.081C1645.35 337.182 1645.38 337.259 1645.4 337.309C1645.41 337.335 1645.42 337.353 1645.43 337.366C1645.43 337.372 1645.43 337.376 1645.43 337.379C1645.43 337.381 1645.43 337.381 1645.43 337.382C1645.43 337.383 1645.43 337.383 1648.18 336.181C1650.93 334.98 1650.93 334.979 1650.93 334.978C1650.93 334.977 1650.93 334.976 1650.93 334.974C1650.93 334.97 1650.93 334.964 1650.92 334.957C1650.92 334.943 1650.91 334.922 1650.89 334.895C1650.87 334.84 1650.84 334.76 1650.79 334.654C1650.69 334.442 1650.56 334.13 1650.37 333.723C1650.01 332.909 1649.47 331.717 1648.77 330.195C1647.37 327.153 1645.33 322.792 1642.74 317.507C1637.56 306.942 1630.21 292.666 1621.49 277.84C1612.78 263.027 1602.67 247.597 1591.99 234.759C1581.37 221.997 1569.91 211.462 1558.41 206.887L1557.3 209.675ZM1648.18 336.181L1647.01 333.42C1647.01 333.419 1645.3 334.145 1642.22 335.381C1639.15 336.617 1634.7 338.363 1629.24 340.405C1618.31 344.49 1603.3 349.75 1586.98 354.472C1570.64 359.198 1553.05 363.363 1536.92 365.289C1520.7 367.228 1506.39 366.843 1496.34 362.843L1495.23 365.63L1494.12 368.418C1505.6 372.989 1521.16 373.215 1537.63 371.247C1554.21 369.267 1572.14 365.008 1588.64 360.236C1621.65 350.688 1649.25 338.987 1649.35 338.943L1648.18 336.181ZM1495.23 365.63L1496.34 362.843C1454.78 346.302 1434.5 299.229 1451.03 257.704L1448.24 256.595L1445.45 255.485C1427.7 300.092 1449.49 350.652 1494.12 368.418L1495.23 365.63ZM1448.24 256.595L1451.03 257.704C1467.56 216.179 1514.64 195.921 1556.2 212.462L1557.3 209.675L1558.41 206.887C1513.78 189.123 1463.21 210.878 1445.45 255.485L1448.24 256.595ZM1997.08 384.726L1995.97 387.513C2037.53 404.054 2057.81 451.128 2041.28 492.653L2044.07 493.762L2046.86 494.872C2064.61 450.265 2042.82 399.704 1998.19 381.939L1997.08 384.726ZM2044.07 493.762L2041.28 492.653C2024.75 534.177 1977.67 554.435 1936.11 537.894L1935.01 540.682L1933.9 543.469C1978.53 561.234 2029.1 539.478 2046.86 494.872L2044.07 493.762ZM1935.01 540.682L1936.11 537.894C1926.06 533.893 1915.39 524.33 1904.94 511.768C1894.55 499.282 1884.63 484.162 1876 469.496C1858.76 440.171 1846.87 412.958 1846.88 412.974L1844.13 414.176L1841.38 415.377C1841.41 415.444 1853.41 442.909 1870.83 472.537C1879.54 487.347 1889.64 502.773 1900.33 515.606C1910.95 528.364 1922.41 538.895 1933.9 543.469L1935.01 540.682ZM1844.13 414.176C1845.3 416.938 1845.3 416.937 1845.3 416.937C1845.3 416.937 1845.3 416.937 1845.3 416.936C1845.3 416.935 1845.31 416.933 1845.31 416.93C1845.33 416.925 1845.35 416.917 1845.37 416.906C1845.42 416.885 1845.5 416.852 1845.6 416.809C1845.81 416.724 1846.11 416.596 1846.52 416.429C1847.32 416.095 1848.52 415.607 1850.05 414.991C1853.12 413.758 1857.56 412.013 1863.02 409.972C1873.94 405.889 1888.95 400.627 1905.28 395.901C1921.62 391.171 1939.22 387 1955.36 385.07C1971.59 383.128 1985.92 383.511 1995.97 387.513L1997.08 384.726L1998.19 381.939C1986.7 377.364 1971.13 377.141 1954.65 379.113C1938.06 381.096 1920.12 385.36 1903.61 390.137C1887.09 394.917 1871.94 400.233 1860.92 404.352C1855.4 406.412 1850.92 408.174 1847.81 409.423C1846.26 410.047 1845.05 410.543 1844.22 410.884C1843.81 411.055 1843.5 411.186 1843.28 411.276C1843.18 411.32 1843.1 411.354 1843.04 411.378C1843.01 411.389 1842.99 411.398 1842.98 411.404C1842.97 411.407 1842.97 411.41 1842.96 411.411C1842.96 411.412 1842.96 411.413 1842.96 411.413C1842.96 411.414 1842.95 411.414 1844.13 414.176ZM1541.39 249.663L1542.5 246.876C1519.93 237.892 1494.4 248.905 1485.44 271.403L1488.23 272.512L1491.02 273.622C1498.74 254.205 1520.78 244.692 1540.28 252.45L1541.39 249.663ZM1488.23 272.512L1485.44 271.403C1476.49 293.9 1487.47 319.445 1510.03 328.429L1511.14 325.642L1512.25 322.854C1492.76 315.095 1483.29 293.038 1491.02 273.621L1488.23 272.512ZM1511.14 325.642L1512.25 322.854C1512.2 322.831 1512.23 322.845 1512.25 322.852C1512.26 322.856 1512.29 322.872 1512.34 322.894C1512.37 322.905 1512.42 322.929 1512.48 322.963C1512.5 322.973 1512.71 323.076 1512.93 323.251C1512.99 323.295 1513.39 323.598 1513.7 324.146C1513.86 324.478 1514.08 325.359 1514.08 325.9C1513.95 326.53 1513.37 327.568 1512.97 327.953C1512.2 328.581 1511.36 328.607 1511.32 328.61C1511.09 328.628 1510.92 328.615 1510.85 328.609C1510.69 328.596 1510.57 328.574 1510.54 328.568C1510.49 328.558 1510.45 328.55 1510.43 328.545C1510.39 328.536 1510.23 328.496 1510.46 328.556C1510.67 328.611 1511.01 328.694 1511.5 328.786C1512.48 328.971 1514.02 329.188 1516.23 329.302L1516.39 326.306L1516.54 323.31C1514.57 323.209 1513.31 323.021 1512.62 322.891C1512.27 322.826 1512.07 322.774 1511.98 322.752C1511.96 322.746 1511.94 322.741 1511.92 322.736C1511.92 322.735 1511.9 322.73 1511.89 322.726C1511.88 322.724 1511.87 322.72 1511.85 322.716C1511.84 322.713 1511.8 322.704 1511.76 322.694C1511.74 322.689 1511.7 322.68 1511.64 322.671C1511.61 322.664 1511.49 322.642 1511.33 322.629C1511.26 322.623 1511.09 322.61 1510.86 322.628C1510.82 322.631 1509.98 322.658 1509.2 323.285C1508.81 323.67 1508.23 324.708 1508.1 325.339C1508.1 325.88 1508.32 326.761 1508.48 327.092C1508.78 327.64 1509.19 327.943 1509.25 327.988C1509.47 328.163 1509.68 328.266 1509.7 328.277C1509.76 328.311 1509.82 328.336 1509.84 328.347C1509.89 328.371 1509.93 328.388 1509.95 328.393C1509.98 328.406 1510 328.417 1510.01 328.419C1510.02 328.424 1510.02 328.425 1510.04 328.429L1511.14 325.642ZM1516.39 326.306L1516.23 329.302C1520.46 329.52 1525.91 329.303 1532.55 328.509L1532.19 325.53L1531.84 322.551C1525.43 323.318 1520.33 323.506 1516.54 323.31L1516.39 326.306ZM1532.19 325.53L1532.55 328.509C1545.91 326.91 1561.38 323.318 1576.73 318.876L1575.9 315.994L1575.07 313.112C1559.88 317.508 1544.75 321.007 1531.84 322.551L1532.19 325.53ZM1575.9 315.994L1576.73 318.876C1580.94 317.659 1585.06 316.4 1589.04 315.135L1588.13 312.276L1587.22 309.418C1583.28 310.668 1579.22 311.912 1575.07 313.112L1575.9 315.994ZM1588.13 312.276L1590.75 310.824C1588.73 307.173 1586.61 303.426 1584.39 299.653L1581.8 301.173L1579.21 302.693C1581.4 306.416 1583.5 310.116 1585.5 313.729L1588.13 312.276ZM1581.8 301.173L1584.39 299.653C1576.29 285.875 1567.52 272.636 1558.91 262.292L1556.6 264.211L1554.3 266.13C1562.62 276.126 1571.2 289.06 1579.21 302.693L1581.8 301.173ZM1556.6 264.211L1558.91 262.292C1554.63 257.153 1550.82 253.248 1547.6 250.5L1545.65 252.783L1543.71 255.065C1546.6 257.53 1550.17 261.169 1554.3 266.13L1556.6 264.211ZM1545.65 252.783L1547.6 250.5C1545.91 249.06 1544.64 248.162 1543.81 247.625C1543.39 247.355 1543.08 247.18 1542.89 247.076C1542.69 246.963 1542.83 247.041 1542.86 247.062C1542.88 247.073 1542.92 247.093 1542.96 247.121C1542.99 247.139 1543.09 247.205 1543.21 247.303C1543.27 247.347 1543.4 247.46 1543.55 247.627C1543.58 247.655 1544.17 248.251 1544.3 249.239C1544.33 249.789 1544.04 250.94 1543.7 251.487C1543.33 251.882 1542.57 252.376 1542.22 252.507C1541.62 252.694 1541.11 252.635 1541.04 252.628C1540.76 252.6 1540.54 252.535 1540.52 252.529C1540.45 252.51 1540.39 252.491 1540.37 252.483C1540.32 252.466 1540.28 252.451 1540.27 252.448C1540.25 252.441 1540.22 252.427 1540.28 252.45L1541.39 249.663L1542.5 246.876C1542.49 246.872 1542.48 246.871 1542.47 246.865C1542.47 246.863 1542.44 246.852 1542.41 246.841C1542.39 246.836 1542.35 246.82 1542.3 246.802C1542.27 246.793 1542.22 246.774 1542.15 246.754C1542.12 246.748 1541.91 246.683 1541.62 246.656C1541.55 246.649 1541.04 246.59 1540.44 246.777C1540.1 246.907 1539.34 247.401 1538.97 247.797C1538.63 248.343 1538.34 249.494 1538.36 250.044C1538.49 251.033 1539.08 251.629 1539.11 251.657C1539.26 251.824 1539.4 251.937 1539.45 251.981C1539.58 252.08 1539.68 252.146 1539.71 252.165C1539.75 252.193 1539.79 252.214 1539.81 252.226C1539.85 252.249 1539.88 252.266 1539.89 252.272C1539.9 252.28 1539.92 252.287 1539.92 252.291C1539.94 252.298 1539.95 252.306 1539.96 252.309C1539.97 252.318 1539.99 252.326 1540.01 252.338C1540.09 252.38 1540.27 252.484 1540.57 252.673C1541.16 253.053 1542.21 253.787 1543.71 255.065L1545.65 252.783ZM1981.17 424.715L1980.06 427.502C1980.11 427.525 1980.08 427.512 1980.06 427.504C1980.05 427.5 1980.01 427.485 1979.97 427.462C1979.94 427.451 1979.89 427.427 1979.83 427.394C1979.81 427.383 1979.6 427.28 1979.38 427.106C1979.32 427.062 1978.92 426.759 1978.61 426.211C1978.45 425.88 1978.23 425 1978.23 424.459C1978.36 423.829 1978.94 422.789 1979.33 422.404C1980.11 421.776 1980.95 421.749 1980.99 421.746C1981.22 421.729 1981.39 421.741 1981.46 421.747C1981.62 421.76 1981.74 421.782 1981.77 421.788C1981.82 421.798 1981.86 421.807 1981.88 421.811C1981.92 421.82 1982.08 421.86 1981.85 421.8C1981.64 421.745 1981.3 421.662 1980.81 421.57C1979.83 421.385 1978.29 421.168 1976.08 421.054L1975.92 424.05L1975.77 427.046C1977.74 427.148 1979 427.335 1979.69 427.466C1980.04 427.53 1980.24 427.582 1980.33 427.604C1980.35 427.61 1980.37 427.615 1980.39 427.62C1980.39 427.622 1980.41 427.626 1980.42 427.63C1980.43 427.632 1980.44 427.636 1980.46 427.64C1980.47 427.643 1980.51 427.652 1980.55 427.662C1980.57 427.667 1980.61 427.676 1980.67 427.686C1980.7 427.692 1980.82 427.715 1980.98 427.727C1981.05 427.733 1981.22 427.746 1981.45 427.728C1981.49 427.725 1982.33 427.699 1983.11 427.07C1983.5 426.685 1984.08 425.646 1984.21 425.015C1984.21 424.474 1983.99 423.594 1983.83 423.263C1983.52 422.715 1983.12 422.412 1983.06 422.368C1982.84 422.193 1982.63 422.09 1982.61 422.079C1982.55 422.045 1982.49 422.02 1982.47 422.009C1982.42 421.986 1982.38 421.968 1982.36 421.963C1982.33 421.951 1982.31 421.939 1982.3 421.938C1982.29 421.932 1982.29 421.932 1982.27 421.927L1981.17 424.715ZM1975.92 424.05L1976.08 421.054C1971.85 420.836 1966.4 421.054 1959.76 421.848L1960.11 424.827L1960.47 427.806C1966.88 427.039 1971.98 426.851 1975.77 427.046L1975.92 424.05ZM1960.11 424.827L1959.76 421.848C1946.4 423.447 1930.93 427.038 1915.57 431.48L1916.41 434.362L1917.24 437.244C1932.43 432.848 1947.56 429.351 1960.47 427.806L1960.11 424.827ZM1916.41 434.362L1915.57 431.48C1911.37 432.697 1907.25 433.957 1903.27 435.222L1904.18 438.081L1905.09 440.94C1909.03 439.689 1913.09 438.444 1917.24 437.244L1916.41 434.362ZM1904.18 438.081L1901.56 439.533C1903.58 443.185 1905.7 446.93 1907.92 450.704L1910.51 449.183L1913.1 447.663C1910.91 443.94 1908.81 440.24 1906.81 436.628L1904.18 438.081ZM1910.51 449.183L1907.92 450.704C1916.02 464.481 1924.79 477.721 1933.4 488.064L1935.71 486.145L1938.01 484.226C1929.69 474.23 1921.11 461.296 1913.1 447.663L1910.51 449.183ZM1935.71 486.145L1933.4 488.064C1937.68 493.204 1941.49 497.108 1944.71 499.856L1946.66 497.573L1948.6 495.291C1945.71 492.826 1942.14 489.187 1938.01 484.226L1935.71 486.145ZM1946.66 497.573L1944.71 499.856C1946.4 501.296 1947.66 502.194 1948.5 502.731C1948.92 503.001 1949.23 503.176 1949.42 503.28C1949.62 503.393 1949.48 503.315 1949.45 503.294C1949.43 503.284 1949.39 503.263 1949.35 503.235C1949.32 503.218 1949.22 503.151 1949.1 503.053C1949.04 503.009 1948.91 502.897 1948.75 502.729C1948.68 502.642 1948.51 502.42 1948.42 502.282C1948.3 502.067 1948.08 501.484 1948 501.112C1947.98 500.561 1948.28 499.408 1948.62 498.862C1948.99 498.469 1949.75 497.978 1950.09 497.848C1950.69 497.663 1951.2 497.722 1951.27 497.729C1951.55 497.756 1951.77 497.821 1951.79 497.827C1951.86 497.847 1951.92 497.865 1951.94 497.873C1951.99 497.89 1952.03 497.905 1952.04 497.908C1952.06 497.916 1952.09 497.929 1952.03 497.906L1950.92 500.693L1949.81 503.48C1949.82 503.485 1949.82 503.485 1949.84 503.491C1949.84 503.493 1949.87 503.504 1949.9 503.516C1949.92 503.52 1949.96 503.536 1950.01 503.555C1950.04 503.563 1950.09 503.582 1950.16 503.602C1950.18 503.608 1950.4 503.673 1950.69 503.7C1950.76 503.707 1951.26 503.767 1951.86 503.581C1952.21 503.452 1952.97 502.96 1953.34 502.567C1953.68 502.021 1953.97 500.868 1953.95 500.317C1953.88 499.945 1953.66 499.362 1953.54 499.147C1953.45 499.009 1953.28 498.786 1953.2 498.7C1953.05 498.532 1952.91 498.419 1952.86 498.375C1952.73 498.276 1952.63 498.21 1952.6 498.191C1952.56 498.163 1952.52 498.142 1952.5 498.13C1952.46 498.108 1952.43 498.09 1952.42 498.084C1952.41 498.076 1952.39 498.069 1952.39 498.065C1952.37 498.058 1952.36 498.05 1952.35 498.047C1952.34 498.039 1952.32 498.03 1952.3 498.019C1952.22 497.976 1952.04 497.872 1951.74 497.683C1951.15 497.303 1950.1 496.569 1948.6 495.291L1946.66 497.573ZM1950.92 500.693L1949.81 503.48C1972.38 512.464 1997.91 501.452 2006.87 478.955L2004.08 477.845L2001.29 476.736C1993.57 496.152 1971.52 505.665 1952.03 497.906L1950.92 500.693ZM2004.08 477.845L2006.87 478.955C2015.82 456.457 2004.84 430.911 1982.27 421.927L1981.17 424.715L1980.06 427.502C1999.55 435.261 2009.02 457.319 2001.29 476.736L2004.08 477.845ZM1827.8 156.755L1828.9 153.962C1812.23 147.419 1789.45 145.514 1764.42 148.237L1764.75 151.219L1765.07 154.202C1789.55 151.54 1811.26 153.483 1826.71 159.548L1827.8 156.755ZM1764.75 151.219L1764.42 148.237C1739.61 150.935 1714.14 158.014 1692.85 167.897L1694.12 170.618L1695.38 173.339C1716.06 163.74 1740.89 156.831 1765.07 154.202L1764.75 151.219ZM1694.12 170.618L1692.85 167.897C1671.1 177.996 1655.9 189.991 1648.92 201.141L1651.46 202.733L1654 204.326C1660.1 194.595 1674.09 183.223 1695.38 173.339L1694.12 170.618ZM1651.46 202.733L1648.92 201.141C1645.61 206.423 1644.49 210.945 1644.65 214.856L1647.65 214.731L1650.64 214.605C1650.54 212.134 1651.21 208.793 1654 204.326L1651.46 202.733ZM1647.65 214.731L1644.65 214.856C1644.81 218.699 1646.28 223.646 1651.1 229.748L1653.46 227.889L1655.81 226.03C1651.64 220.749 1650.74 216.985 1650.64 214.605L1647.65 214.731ZM1653.46 227.889L1651.1 229.748C1677.57 263.266 1703.69 296.655 1723.19 321.659L1725.56 319.814L1727.92 317.969C1708.42 292.959 1682.29 259.561 1655.81 226.03L1653.46 227.889ZM1725.56 319.814L1723.19 321.659C1732.94 334.162 1741.04 344.573 1746.7 351.858L1749.07 350.017L1751.44 348.176C1745.78 340.889 1737.68 330.475 1727.92 317.969L1725.56 319.814ZM1749.07 350.017L1746.7 351.858C1747.07 352.329 1747.39 352.734 1747.73 353.176L1750.1 351.336L1752.47 349.495C1752.15 349.082 1751.78 348.609 1751.44 348.176L1749.07 350.017ZM1750.1 351.336L1750.53 354.305C1751.45 354.173 1752.48 354.026 1753.51 353.878L1753.09 350.908L1752.66 347.938C1751.6 348.091 1750.63 348.228 1749.67 348.366L1750.1 351.336ZM1753.09 350.908L1753.51 353.878C1762.59 352.575 1775.59 350.709 1791.25 348.453L1790.82 345.484L1790.39 342.515C1774.74 344.77 1761.74 346.636 1752.66 347.938L1753.09 350.908ZM1790.82 345.484L1791.25 348.453C1822.57 343.943 1864.54 337.879 1907.15 331.667L1906.72 328.699L1906.28 325.73C1863.68 331.942 1821.71 338.004 1790.39 342.515L1790.82 345.484ZM1906.72 328.699L1907.15 331.667C1914.88 330.54 1919.36 327.944 1922.11 325.252L1920.02 323.106L1917.92 320.96C1916.22 322.624 1912.98 324.755 1906.28 325.73L1906.72 328.699ZM1920.02 323.106L1922.11 325.252C1924.92 322.509 1927.21 318.423 1928.42 312.263L1925.47 311.685L1922.53 311.107C1921.51 316.324 1919.69 319.229 1917.92 320.96L1920.02 323.106ZM1925.47 311.685L1928.42 312.263C1930.97 299.263 1928.07 279.972 1919.06 257.579L1916.28 258.698L1913.5 259.818C1922.31 281.739 1924.76 299.751 1922.53 311.107L1925.47 311.685ZM1916.28 258.698L1919.06 257.579C1910.25 235.661 1896.44 212.933 1880.1 193.914L1877.83 195.869L1875.55 197.824C1891.47 216.359 1904.93 238.525 1913.5 259.818L1916.28 258.698ZM1877.83 195.869L1880.1 193.914C1863.62 174.718 1845.61 160.521 1828.9 153.962L1827.8 156.755L1826.71 159.548C1842.19 165.622 1859.43 179.053 1875.55 197.824L1877.83 195.869Z" fill="#FFEE50" mask="url(#path-2-inside-1_511_27)"/>
</g>
<path d="M2038.36 896.845C2045.37 904.984 2051.69 910.879 2057.3 914.528C2062.74 918.062 2070.15 919.885 2079.54 919.995L2080.46 920H2095.19C2113.44 920 2122.56 910.598 2122.56 891.793V646.35H2051.41V805.91L1922.16 666.558C1919.07 663.19 1915.99 660.243 1912.9 657.717C1910.09 655.191 1907.01 653.087 1903.64 651.403C1900.48 649.824 1896.95 648.614 1893.05 647.776L1892.27 647.614C1888.32 646.824 1883.76 646.404 1878.58 646.355L1877.54 646.35V601.35C1885.26 601.35 1893.25 601.919 1901.1 603.488C1908.22 604.912 1915.4 607.149 1922.37 610.474L1923.76 611.153L1925.07 611.82C1931.22 615.025 1936.93 618.936 1942.14 623.501C1946.76 627.345 1951.09 631.536 1955.16 635.957L2006.41 691.216V601.35H2167.56V891.793C2167.56 907.796 2163.69 928.126 2148.01 944.283C2132.09 960.693 2111.6 965 2095.19 965H2080.46C2065.77 965 2048.35 962.381 2032.78 952.257C2022.37 945.494 2013.07 936.347 2004.89 926.929L1942.32 859.323V965H1780.75V920H1798.45L1780.75 887.915V677.504C1780.75 659.084 1785.98 637.31 1803.93 620.915C1821.1 605.225 1842.51 601.35 1859.85 601.35H1877.54V646.35H1859.85C1837.12 646.35 1825.75 656.735 1825.75 677.504V920H1897.32V744.444L2038.36 896.845Z" fill="black"/>
<path d="M1625.84 601.35C1657.94 601.35 1683.13 618.241 1697.9 644.496L1697.99 644.661L1698.08 644.827L1825.75 876.33V920H1849.84L1874.65 965H1691.62L1668.88 922.901H1567.05L1544.69 965H1360.18L1385 920H1429.67L1401.09 890.812L1536.75 644.827L1536.94 644.496C1551.71 618.241 1576.9 601.35 1609 601.35V646.35L1608.33 646.355C1594.34 646.562 1583.62 653.297 1576.16 666.558L1436.39 920H1517.64L1617.84 731.392L1664.57 819.381H1598.47L1567.32 877.901H1695.72L1718.46 920H1798.45L1658.67 666.558C1651.22 653.297 1640.49 646.562 1626.51 646.355L1625.84 646.35V601.35ZM1625.84 601.35V646.35H1609V601.35H1625.84Z" fill="black"/>
<path d="M1120.66 646.35V920H1194.33V646.35H1120.66ZM1328.63 646.35L1220.44 753.705C1213.98 760.722 1210.75 768.16 1210.75 776.018V782.754C1210.75 787.245 1211.6 791.174 1213.28 794.542C1214.96 797.63 1217.49 801.138 1220.86 805.068L1332.84 920H1429.67L1291.17 778.544L1422.94 646.35H1328.63ZM1239.33 671.561L1310.1 601.35H1531.33L1354.42 778.827L1456.66 883.24L1436.39 920H1492.65L1536.72 965H1313.86L1239.33 888.513V965H1075.66V920H1093.35L1075.66 887.915V601.35H1239.33V671.561Z" fill="black"/>
<path d="M920.744 601.35C952.846 601.35 978.034 618.241 992.803 644.496L992.896 644.661L992.987 644.827L1120.66 876.33V920H1144.74L1169.56 965H986.522L963.788 922.901H861.962L839.597 965H655.087L831.661 644.827L831.845 644.496C846.613 618.241 871.803 601.35 903.904 601.35V646.35L903.235 646.355C889.249 646.562 878.526 653.297 871.066 666.558L731.294 920H812.547L912.745 731.392L959.477 819.381H893.379L862.225 877.901H990.63L1013.36 920H1093.35L953.582 666.558C946.123 653.297 935.399 646.562 921.413 646.355L920.744 646.35V601.35ZM920.744 601.35V646.35H903.904V601.35H920.744Z" fill="black"/>
<path d="M771.95 716.658V646.35H497.037V716.658H597.656V920H671.331V716.658H771.95ZM816.95 761.658H716.331V965H552.656V761.658H452.037V716.658H471.593V646.35H452.037V601.35H816.95V761.658Z" fill="black"/>
<path d="M475.382 836.221C475.382 824.153 473.137 813.066 468.646 802.962C464.568 792.902 458.777 784.291 451.274 777.128L450.543 776.44C442.684 769.142 433.422 763.528 422.757 759.599C412.092 755.389 400.303 753.285 387.393 753.285H266.987L266.49 753.28C261.384 753.178 257.198 751.496 253.936 748.233C250.848 744.865 249.305 740.373 249.305 734.76C249.305 728.866 250.848 724.376 253.936 721.288C257.198 718.298 261.384 716.755 266.49 716.661L266.987 716.658H471.593V646.35H263.619V601.35H516.593V646.35H497.037V716.658H516.593V761.658H497.076C502.269 769.015 506.598 776.954 510.072 785.385C517.133 801.548 520.382 818.691 520.382 836.221C520.382 854.079 517.215 871.566 510.184 888.05C503.613 903.819 494.079 917.799 481.779 929.66L481.474 929.953L481.163 930.243C468.687 941.827 454.223 950.47 438.313 956.331C422.039 962.327 404.898 965 387.393 965H134.419V804.273H154.382C149.245 797.1 144.869 789.399 141.244 781.244L141.03 780.762L140.827 780.275C134.057 764.027 131.051 746.818 131.051 729.287C131.051 711.756 134.057 694.547 140.827 678.299L140.943 678.022L141.062 677.746C147.739 662.308 157.067 648.407 169.255 636.67L169.55 636.387L169.849 636.109C182.325 624.524 196.789 615.88 212.698 610.019L212.874 609.954L213.051 609.891C229.277 604.066 246.253 601.35 263.619 601.35V646.35L262.438 646.356C250.253 646.475 238.859 648.438 228.255 652.245L227.259 652.618C217.012 656.526 208.082 662.015 200.469 669.084C192.891 676.382 186.857 685.223 182.366 695.608L181.978 696.558C178.027 706.414 176.051 717.324 176.051 729.287L176.058 730.442C176.185 742.337 178.288 753.179 182.366 762.967C186.857 773.071 192.891 781.772 200.469 789.07L201.21 789.723C208.908 796.435 217.923 801.831 228.255 805.91C239.201 809.839 250.989 811.803 263.619 811.803H384.025C389.358 811.803 393.708 813.488 397.076 816.856C400.444 820.224 402.128 824.855 402.128 830.748L402.123 831.297C402.021 836.93 400.339 841.378 397.076 844.641C393.813 847.632 389.629 849.174 384.522 849.268L384.025 849.273H179.419V920H387.393C399.9 920 411.354 918.157 421.754 914.469L422.757 914.107C433.422 910.177 442.684 904.563 450.543 897.266C458.402 889.688 464.437 880.847 468.646 870.744C473.137 860.359 475.382 848.851 475.382 836.221Z" fill="black"/>
<g filter="url(#filter1_d_511_27)">
<path d="M2080.46 920C2070.63 920 2062.92 918.176 2057.3 914.527C2051.69 910.879 2045.37 904.985 2038.36 896.845L1897.32 744.443V920H1825.75V677.504C1825.75 656.735 1837.12 646.35 1859.85 646.35H1877.54C1883.15 646.35 1888.06 646.771 1892.27 647.613C1896.48 648.455 1900.27 649.718 1903.64 651.402C1907.01 653.086 1910.09 655.191 1912.9 657.717C1915.99 660.243 1919.07 663.19 1922.16 666.558L2051.41 805.909V646.35H2122.56V891.793C2122.56 910.598 2113.44 920 2095.19 920H2080.46Z" fill="white"/>
<path d="M1718.46 920L1695.72 877.9H1567.32L1598.47 819.381H1664.57L1617.84 731.392L1517.64 920H1436.39L1576.16 666.558C1583.74 653.086 1594.68 646.35 1609 646.35H1625.84C1640.15 646.35 1651.1 653.086 1658.67 666.558L1798.45 920H1718.46Z" fill="white"/>
<path d="M1332.84 920L1220.86 805.067C1217.49 801.138 1214.96 797.63 1213.28 794.542C1211.6 791.174 1210.75 787.245 1210.75 782.754V776.018C1210.75 768.16 1213.98 760.722 1220.44 753.705L1328.63 646.35H1422.94L1291.16 778.544L1429.67 920H1332.84ZM1120.66 920V646.35H1194.33V920H1120.66Z" fill="white"/>
<path d="M1013.36 920L990.63 877.9H862.225L893.379 819.381H959.476L912.745 731.392L812.547 920H731.294L871.066 666.558C878.644 653.086 889.59 646.35 903.904 646.35H920.744C935.058 646.35 946.004 653.086 953.582 666.558L1093.35 920H1013.36Z" fill="white"/>
<path d="M597.656 920V716.657H497.037V646.35H771.95V716.657H671.331V920H597.656Z" fill="white"/>
<path d="M179.419 920V849.272H384.025C389.358 849.272 393.708 847.729 397.076 844.641C400.444 841.273 402.128 836.642 402.128 830.748C402.128 824.854 400.444 820.223 397.076 816.855C393.708 813.487 389.358 811.803 384.025 811.803H263.619C250.989 811.803 239.201 809.839 228.255 805.909C217.59 801.699 208.328 796.086 200.469 789.069C192.891 781.772 186.857 773.071 182.366 762.967C178.156 752.863 176.051 741.637 176.051 729.287C176.051 716.938 178.156 705.711 182.366 695.607C186.857 685.223 192.891 676.382 200.469 669.084C208.328 661.787 217.59 656.174 228.255 652.244C239.201 648.315 250.989 646.35 263.619 646.35H471.593V716.657H266.987C261.654 716.657 257.304 718.201 253.936 721.288C250.849 724.376 249.305 728.866 249.305 734.76C249.305 740.374 250.849 744.864 253.936 748.232C257.304 751.6 261.654 753.284 266.987 753.284H387.393C400.304 753.284 412.092 755.389 422.757 759.599C433.422 763.529 442.684 769.142 450.543 776.439C458.402 783.737 464.436 792.578 468.646 802.962C473.137 813.066 475.382 824.153 475.382 836.221C475.382 848.851 473.137 860.359 468.646 870.743C464.436 880.847 458.402 889.688 450.543 897.266C442.684 904.564 433.422 910.177 422.757 914.106C412.092 918.036 400.304 920 387.393 920H179.419Z" fill="white"/>
</g>
<defs>
<filter id="filter0_d_511_27" x="1384.06" y="55.9957" width="720.982" height="685.135" filterUnits="userSpaceOnUse" color-interpolation-filters="sRGB">
<feFlood flood-opacity="0" result="BackgroundImageFix"/>
<feColorMatrix in="SourceAlpha" type="matrix" values="0 0 0 0 0 0 0 0 0 0 0 0 0 0 0 0 0 0 127 0" result="hardAlpha"/>
<feOffset dy="4"/>
<feGaussianBlur stdDeviation="27.5"/>
<feComposite in2="hardAlpha" operator="out"/>
<feColorMatrix type="matrix" values="0 0 0 0 1 0 0 0 0 0.933333 0 0 0 0 0.313726 0 0 0 1 0"/>
<feBlend mode="normal" in2="BackgroundImageFix" result="effect1_dropShadow_511_27"/>
<feBlend mode="normal" in="SourceGraphic" in2="effect1_dropShadow_511_27" result="shape"/>
</filter>
<filter id="filter1_d_511_27" x="126.851" y="601.15" width="2044.91" height="372.05" filterUnits="userSpaceOnUse" color-interpolation-filters="sRGB">
<feFlood flood-opacity="0" result="BackgroundImageFix"/>
<feColorMatrix in="SourceAlpha" type="matrix" values="0 0 0 0 0 0 0 0 0 0 0 0 0 0 0 0 0 0 127 0" result="hardAlpha"/>
<feOffset dy="4"/>
<feGaussianBlur stdDeviation="24.6"/>
<feComposite in2="hardAlpha" operator="out"/>
<feColorMatrix type="matrix" values="0 0 0 0 1 0 0 0 0 1 0 0 0 0 1 0 0 0 1 0"/>
<feBlend mode="normal" in2="BackgroundImageFix" result="effect1_dropShadow_511_27"/>
<feBlend mode="normal" in="SourceGraphic" in2="effect1_dropShadow_511_27" result="shape"/>
</filter>
</defs>
</svg>
